<?xml version="1.0" standalone="no"?>
<!DOCTYPE svg PUBLIC "-//W3C//DTD SVG 1.1//EN" "http://www.w3.org/Graphics/SVG/1.1/DTD/svg11.dtd" >
<svg xmlns="http://www.w3.org/2000/svg" xmlns:xlink="http://www.w3.org/1999/xlink" version="1.1">
<metadata>
Created by FontForge 20170731 at Thu Mar  1 22:41:43 2018
 By Aleksey,,,
Copyright (c) 2010 by Murasu Systems Sdn. Bhd. Malaysia. All rights reserved.
</metadata>
<defs>
<font id="KhmerSangamMN" horiz-adv-x="0" >
  <font-face 
    font-family="Khmer Sangam MN"
    font-weight="400"
    font-stretch="normal"
    units-per-em="2048"
    panose-1="2 0 4 0 0 0 0 0 0 0"
    ascent="1638"
    descent="-410"
    x-height="1018"
    cap-height="1417"
    bbox="-2441 -1761 3594 2421"
    underline-thickness="41"
    underline-position="-312"
    unicode-range="U+000D-25CC"
  />
<missing-glyph horiz-adv-x="1024" 
d="M129 0v1638h768v-1638h-768zM256 129h512v1382h-512v-1382z" />
    <glyph glyph-name="km_ka.sub" unicode="&#x17d2;&#x1780;" 
d="M-635 -184q-47 0 -97.5 -13.5t-92.5 -41t-69.5 -70.5t-27.5 -101v-327h-143v327q0 95 39 161.5t101 108t138.5 60.5t151.5 19q46 0 95.5 -9t97.5 -27.5t91 -46.5t75.5 -67t51.5 -88.5t19 -110.5v-327h-143v327q0 63 -29 106t-72 70t-93.5 38.5t-92.5 11.5z" />
    <glyph glyph-name="km_kha.sub" unicode="&#x17d2;&#x1781;" 
d="M-897 -233q23 0 41 -16t18 -48q0 -30 -15 -49.5t-36.5 -30.5t-45.5 -15.5t-42 -4.5h-29v135q0 49 36.5 86.5t92 63t121 38.5t123.5 13q67 0 132.5 -14t117.5 -40t83.5 -63.5t31.5 -85.5q0 -45 -26.5 -78t-69.5 -56.5t-98.5 -39t-113 -27.5t-113 -21t-98.5 -19.5
t-69.5 -23.5t-26.5 -32q0 -20 28 -34t67 -23t81.5 -13t71.5 -4q28 0 69.5 5.5t80.5 20t66.5 38t27.5 59.5v16l123 52v-68q0 -56 -32 -98.5t-86 -70.5t-124.5 -42t-146.5 -14q-31 0 -69 2.5t-77 10t-75.5 19.5t-65 31.5t-45.5 46t-17 62.5q0 37 26.5 63t69.5 44t98.5 30
t113 23t113 22.5t98.5 28t69.5 39.5t26.5 57q0 26 -24 44t-60.5 29t-79.5 16t-80 5q-24 0 -64 -3t-80.5 -11t-73.5 -21t-44 -34z" />
    <glyph glyph-name="km_ko.sub" unicode="&#x17d2;&#x1782;" 
d="M-922 -569q28 51 77.5 78.5t105.5 27.5q18 0 44 -6t46 -25v-110q-23 20 -46 25.5t-44 5.5q-29 0 -56 -12.5t-50.5 -35t-43 -52.5t-33.5 -64h-143v327q0 95 39 161.5t101 108t138.5 60.5t151.5 19q46 0 95.5 -9t97.5 -27.5t91 -46.5t75.5 -67t51.5 -88.5t19 -110.5v-327
h-143v327q0 63 -29 106t-72 70t-93.5 38.5t-92.5 11.5q-47 0 -97.5 -13.5t-92.5 -41t-69.5 -70.5t-27.5 -101v-159z" />
    <glyph glyph-name="km_kho.sub" unicode="&#x17d2;&#x1783;" horiz-adv-x="866" 
d="M-444 -266q0 48 17.5 85t42.5 61.5t52 37t45 12.5h82v-422q0 -28 5 -54t18 -45.5t36 -31.5t58 -12t57.5 12t35 31.5t17.5 45.5t5 54v144l-113 127v51l190 111l101 -80l35 24v-63l-64 -39l-65 59l-64 -39l123 -137v-160q0 -28 4.5 -53.5t17.5 -45t36 -31t59 -11.5
q35 0 57.5 12t35 31.5t17 45.5t4.5 54v1311l-227 213v80l313 219l166 -155l70 49v-84l-127 -86l-137 129l-150 -105l236 -219v-1352q0 -59 -22 -104.5t-58.5 -77t-83.5 -47.5t-98 -16q-62 0 -109.5 24.5t-75.5 67.5q-28 -43 -76 -67.5t-108 -24.5q-56 0 -104 17t-83 49
t-55 77t-20 102v136h-8q-15 0 -31 5t-28.5 16t-20.5 28t-8 41z" />
    <glyph glyph-name="km_ngo.sub" unicode="&#x17d2;&#x1784;" 
d="M-635 -723q-75 0 -149 18t-132.5 58t-94.5 103t-36 153q0 39 12.5 87.5t44.5 90.5t86 71t138 29q45 0 90.5 -18.5t82 -53.5t59 -85.5t22.5 -114.5h-123q0 46 -13.5 75t-33 45.5t-42 22.5t-40.5 6q-36 0 -62 -13t-43.5 -34.5t-25.5 -48t-8 -53.5q0 -59 23.5 -100
t61.5 -66.5t86 -37t97 -11.5q73 0 127 22t93.5 59.5t65 87t41.5 103.5t23.5 109.5t10.5 105.5h127q-3 -77 -16 -152.5t-38.5 -143t-63.5 -125t-91 -100t-122.5 -66t-156.5 -23.5z" />
    <glyph glyph-name="km_ca.sub" unicode="&#x17d2;&#x1785;" 
d="M-510 -412q0 50 15.5 84.5t39.5 56t51.5 31t51.5 9.5q65 0 106 -42.5t41 -119.5q0 -50 -21.5 -95t-56.5 -83q28 -13 62 -23.5t78 -19.5l-43 -123q-60 15 -109.5 36.5t-87.5 47.5q-66 -41 -146 -62.5t-163 -21.5q-55 0 -107.5 9t-94 31t-66.5 60t-25 96q0 46 21.5 70
t54.5 40.5t70.5 33t70.5 48t54.5 86t21.5 146.5v47h143v-49q0 -161 -75 -264t-218 -143q0 -45 42 -66.5t108 -21.5q62 0 121 10.5t110 32.5q-49 70 -49 159zM-307 -393q0 29 -12 44t-29 15q-14 0 -23.5 -8t-15 -19.5t-8 -24.5t-2.5 -24q0 -27 6.5 -52.5t23.5 -47.5
q28 25 44 54t16 63z" />
    <glyph glyph-name="km_cha.sub" unicode="&#x17d2;&#x1786;" 
d="M-1153 -489q0 -14 5 -30t16 -31.5t28.5 -29.5t42.5 -24v174q-16 0 -32.5 -2.5t-29.5 -9t-21.5 -18t-8.5 -29.5zM-348 -356h-8q-15 0 -31 5t-28.5 16t-20.5 28t-8 41q0 48 17.5 85t42.5 61.5t52 37t45 12.5h82v-407q0 -51 -15.5 -98t-46 -83t-76 -57.5t-106.5 -21.5
q-55 0 -102.5 22.5t-89.5 57t-79 74t-71 74t-65.5 57t-61.5 22.5v-307h-77q-32 0 -77 16t-85.5 49t-69 84t-28.5 121q0 38 15 68t40.5 50.5t58.5 31t68 10.5h12v237h143v-237q47 0 89.5 -22.5t82.5 -57t77.5 -74t74 -74t72.5 -57t73 -22.5q20 0 38.5 7t32.5 24.5t22 46
t8 71.5v109z" />
    <glyph glyph-name="km_co.sub" unicode="&#x17d2;&#x1787;" 
d="M-799 -158q-21 0 -42.5 -21t-38.5 -56.5t-27.5 -81.5t-10.5 -97q0 -31 5 -66t18.5 -65t37 -49.5t60.5 -19.5q18 0 38.5 9t42.5 30t42.5 55t38.5 84q18 -50 38.5 -84t42.5 -55t42.5 -30t38.5 -9q37 0 60.5 22.5t37 56t18.5 71.5t5 69v14q-8 -2 -15.5 -2h-13.5
q-90 0 -140 40.5t-50 125.5q0 35 13 64t34.5 49.5t48 31.5t53.5 11q37 0 68 -14.5t55.5 -40t42 -61t29.5 -77.5q24 9 55 24t72 35v-96q-19 -12 -47.5 -28.5t-65.5 -30.5q2 -16 3 -31.5t1 -32.5q0 -55 -11.5 -112.5t-40.5 -104t-78.5 -76.5t-125.5 -30q-34 0 -61.5 11.5
t-49 29t-36.5 39.5t-23 43q-8 -21 -22.5 -43t-36 -39.5t-49.5 -29t-62 -11.5q-76 0 -125.5 31t-78.5 79.5t-40.5 107t-11.5 113.5q0 72 19 134.5t53.5 109.5t83 74t106.5 27v-97zM-426 -158q-28 0 -40.5 -15.5t-12.5 -35.5q0 -72 98 -72h21q-8 56 -24 89.5t-42 33.5z" />
    <glyph glyph-name="km_cho.sub" unicode="&#x17d2;&#x1788;" horiz-adv-x="866" 
d="M-659 -451h8q15 0 31 -5t28.5 -16t20.5 -28t8 -41q0 -48 -18 -85t-43 -61.5t-52 -37t-45 -12.5h-82v420q0 66 28.5 114t72.5 79.5t97 47t101 15.5t101 -15.5t97 -47t72.5 -79.5t28.5 -114v-175q0 -28 5 -54t18 -45.5t36 -31.5t58 -12t57.5 12t35 31.5t17.5 45.5t5 54v144
l-113 127v51l190 111l101 -80l35 24v-63l-64 -39l-65 59l-64 -39l123 -137v-160q0 -28 4.5 -53.5t17.5 -45t36 -31t59 -11.5q35 0 57.5 12t35 31.5t17 45.5t4.5 54v1311l-227 213v80l313 219l166 -155l70 49v-84l-127 -86l-137 129l-150 -105l236 -219v-1352
q0 -59 -22 -104.5t-58.5 -77t-83.5 -47.5t-98 -16q-62 0 -109.5 24.5t-75.5 67.5q-28 -43 -76 -67.5t-108 -24.5q-56 0 -104 17t-83 49t-55 77t-20 102v158q0 47 -17 76t-41 45.5t-51 22.5t-47 6t-46.5 -6t-50.5 -22.5t-41 -45.5t-17 -76v-117z" />
    <glyph glyph-name="km_nyo.sub" unicode="&#x17d2;&#x1789;" 
d="M-461 -707q-75 0 -135.5 17.5t-109 45.5t-87 64t-71 74t-60 74t-53.5 64t-52.5 45.5t-57.5 17.5q-22 0 -50 -16.5t-65 -53.5l-39 103q54 48 95.5 69t76.5 21q43 0 78.5 -17.5t67 -45.5t60.5 -64t58.5 -74t61 -74t68.5 -64t80.5 -45.5t96.5 -17.5q82 0 126 46t44 145
q0 71 -31.5 114t-91.5 43q-16 0 -34 -5.5t-34.5 -19t-30.5 -36.5t-21 -59l-115 26q10 49 30 89t49 68.5t67.5 44t86.5 15.5q75 0 126.5 -28.5t83 -70.5t45.5 -91t14 -90q0 -90 -28 -150.5t-70 -96.5t-90.5 -51.5t-88.5 -15.5z" />
    <glyph glyph-name="km_da.sub" unicode="&#x17d2;&#x178a;" 
d="M-922 -451h9q15 0 32.5 -5t32 -16t24 -28t9.5 -41q0 -48 -19.5 -85t-46.5 -61.5t-55.5 -37t-46.5 -12.5h-82v327q0 95 39 161.5t101 108t138.5 60.5t151.5 19q46 0 95.5 -9t97.5 -27.5t91 -46.5t75.5 -67t51.5 -88.5t19 -110.5v-327h-143v327q0 63 -29 106t-72 70
t-93.5 38.5t-92.5 11.5q-47 0 -97.5 -13.5t-92.5 -41t-69.5 -70.5t-27.5 -101v-41z" />
    <glyph glyph-name="km_ttha.sub" unicode="&#x17d2;&#x178b;" 
d="M-348 -70h143v-155h117v-103h-117v-409h-172q-57 72 -108 114.5t-88 42.5q-27 0 -50 -24.5t-50.5 -54t-64.5 -54t-91 -24.5q-53 0 -91.5 19t-64.5 50.5t-38.5 72t-12.5 83.5q0 65 27 118t73 90.5t107 58t129 20.5h352v155zM-893 -512q0 -20 5 -38.5t14.5 -33t24 -23.5
t32.5 -9t34.5 12t32.5 29.5t33 38t36 38t41 29.5t50 12q21 0 44 -6.5t51.5 -24t64.5 -48.5t82 -80v288h-324q-44 0 -83.5 -12t-70.5 -35.5t-49 -57.5t-18 -79z" />
    <glyph glyph-name="km_do.sub" unicode="&#x17d2;&#x178c;" 
d="M-328 -479l123 43v-301h-123v119q-75 -41 -133 -64.5t-105.5 -35.5t-89 -15.5t-83.5 -3.5q-30 0 -72 4.5t-80 19.5t-65 43t-27 76q0 39 28 68.5t74 53t105 42t120.5 35.5t120.5 34t105 37t74 45t28 58v10l-55 37l-211 -78l-207 78l-59 -35v-24q23 0 40 -16t17 -48
q0 -30 -15 -49.5t-36.5 -30.5t-45.5 -15.5t-42 -4.5h-41v221l182 115l207 -91l211 91l178 -119v-62q0 -40 -28 -72t-74 -58t-105 -46.5t-120.5 -38t-120.5 -32.5t-105 -30.5t-74 -32t-28 -36.5q0 -18 16 -27.5t36.5 -14t40.5 -5t28 -0.5q35 0 77.5 3.5t93 17.5t110 42
t130.5 76v17z" />
    <glyph glyph-name="km_ttho.sub" unicode="&#x17d2;&#x178d;" horiz-adv-x="866" 
d="M-195 -451v158l-81 76l-160 -152l-160 152l-82 -76v-158h8q15 0 31 -5t28.5 -16t20.5 -28t8 -41q0 -48 -17.5 -85t-42.5 -61.5t-52 -37t-45 -12.5h-82v477l225 190l160 -157l160 157l225 -190v-191q56 0 95 -12t68 -30t51 -39.5t43.5 -39.5t46 -30t58.5 -12q52 0 71 33
t19 89v1311l-227 213v80l313 219l166 -155l70 49v-84l-127 -86l-137 129l-150 -105l236 -219v-1352q0 -59 -17 -104.5t-47 -77t-72.5 -47.5t-93.5 -16q-53 0 -90.5 14.5t-65 36.5t-50 48t-45 48t-50 37.5t-65.5 15.5v-200h-82q-18 0 -45 12.5t-52 37t-43 61.5t-18 85
q0 24 8 41t20.5 28t28.5 16t31 5h8z" />
    <glyph glyph-name="km_nna.sub" unicode="&#x17d2;&#x178e;" 
d="M-1217 -451h9q15 0 31 -5t28.5 -16t20.5 -28t8 -41q0 -48 -18 -85t-43 -61.5t-52 -37t-45 -12.5h-82v440q0 66 19 111t51.5 73t76 40t91.5 12t91.5 -12t75.5 -40t51 -73t19 -111v-317l103 155l102 -155v317q0 66 19 111t51.5 73t76 40t91.5 12t91.5 -12t75.5 -40t51 -73
t19 -111v-440h-143v403q0 47 -7 76t-20 45.5t-30 22.5t-37 6t-37.5 -6t-30.5 -22.5t-20 -45.5t-7 -76v-403h-143l-102 155l-103 -155h-143v403q0 47 -7 76t-20 45.5t-30 22.5t-37 6q-18 0 -35 -6t-30.5 -22.5t-21.5 -45.5t-8 -76v-117z" />
    <glyph glyph-name="km_ta.sub" unicode="&#x17d2;&#x178f;" 
d="M-922 -451h9q15 0 32.5 -5t32 -16t24 -28t9.5 -41q0 -48 -19.5 -85t-46.5 -61.5t-55.5 -37t-46.5 -12.5h-82v327q0 95 39 161.5t101 108t138.5 60.5t151.5 19q46 0 95.5 -9t97.5 -27.5t91 -46.5t75.5 -67t51.5 -88.5t19 -110.5v-327h-143v327q0 63 -29 106t-72 70
t-93.5 38.5t-92.5 11.5q-47 0 -97.5 -13.5t-92.5 -41t-69.5 -70.5t-27.5 -101v-41z" />
    <glyph glyph-name="km_tha.sub" unicode="&#x17d2;&#x1790;" 
d="M-635 -113q87 0 156.5 -23.5t122.5 -66t91 -100t63.5 -125t38.5 -143t16 -152.5h-127q-3 50 -10.5 105.5t-23.5 110t-41.5 103.5t-65 86.5t-93.5 59.5t-127 22q-49 0 -97 -11.5t-86 -37t-61.5 -66.5t-23.5 -100q0 -27 8 -53.5t25.5 -47.5t43.5 -34.5t62 -13.5
q18 0 40.5 6t42 22.5t33 45.5t13.5 75h123q0 -64 -22.5 -114.5t-59 -85.5t-82 -53.5t-90.5 -18.5q-84 0 -138 29t-86 71.5t-44.5 91t-12.5 87.5q0 90 36 152.5t94.5 102.5t132.5 58t149 18z" />
    <glyph glyph-name="km_to.sub" unicode="&#x17d2;&#x1791;" 
d="M-864 -172v102h63q47 0 78.5 -16t51 -40t28 -51.5t8.5 -49.5q0 -56 -18.5 -102.5t-53 -87t-83 -76.5t-107.5 -70q4 -12 16.5 -24.5t32 -23t45.5 -17.5t58 -7q70 0 130.5 26t110 68.5t88.5 97.5t68 113v260h143v-667h-143v202q-63 -74 -125.5 -115t-116.5 -60.5t-95 -23
t-60 -3.5q-25 0 -67.5 6t-87.5 27t-85.5 62.5t-61.5 113.5q46 18 94 46t87 64t63.5 78.5t24.5 87.5q0 7 -1.5 20.5t-9.5 26.5t-25.5 23t-49.5 10z" />
    <glyph glyph-name="km_tho.sub" unicode="&#x17d2;&#x1792;" 
d="M-1018 -539q0 45 27 82.5t71 70.5t100 61t114.5 53.5t114.5 48.5t100 45.5t71 45t27 46.5v12.5t-2 12.5h108q22 0 38.5 -12t27 -30t15.5 -40t5 -43v-37q0 -91 -29.5 -147.5t-76 -88t-102.5 -42.5t-109 -11q-23 -120 -92 -172.5t-170 -52.5q-42 0 -84.5 10.5t-76.5 33.5
t-55.5 61t-21.5 93zM-514 -420q75 0 122.5 37t47.5 119v78q-10 -28 -39.5 -52t-70.5 -45.5t-90.5 -41t-99.5 -39t-97 -39t-83.5 -41t-58.5 -45.5t-22 -52q0 -11 5 -27t18 -31t35 -25.5t56 -10.5q45 0 73 15t45 42.5t25 67.5t13 90h121z" />
    <glyph glyph-name="km_no.sub" unicode="&#x17d2;&#x1793;" 
d="M-426 -377q42 0 81.5 -12t70 -35t49 -58t18.5 -81q0 -38 -12.5 -70t-36.5 -55t-58.5 -36t-78.5 -13q-74 0 -126.5 38t-66.5 115q-24 -27 -51 -54.5t-59.5 -49.5t-72 -35.5t-87.5 -13.5q-51 0 -99 17t-84.5 52.5t-58.5 89t-22 127.5q0 68 25.5 120.5t71 88t108 54
t135.5 18.5h190v100h144v-100h239v-123h-239v-84h20zM-774 -293q-42 0 -80.5 -8t-68 -26.5t-47 -49.5t-17.5 -76q0 -42 12.5 -72.5t33.5 -50t48 -29t55 -9.5q34 0 64 17.5t60 43.5t60 57t64 58v145h-184zM-385 -614q28 0 41.5 17.5t13.5 39.5q0 43 -28 64.5t-68 21.5h-10.5
t-9.5 -2v-53q0 -44 14.5 -66t46.5 -22z" />
    <glyph glyph-name="km_ba.sub" unicode="&#x17d2;&#x1794;" horiz-adv-x="866" 
d="M-164 -356v-260l283 159l282 -159v1435l-227 213v80l313 219l166 -155l70 49v-84l-127 -86l-137 129l-150 -105l236 -219v-1597h-144l-282 157l-283 -157h-143v667h82q18 0 45 -12.5t52 -37t42.5 -61.5t17.5 -85q0 -24 -8 -41t-20.5 -28t-28.5 -16t-31 -5h-8z" />
    <glyph glyph-name="km_pha.sub" unicode="&#x17d2;&#x1795;" 
d="M-352 -356h-8q-15 0 -31 5t-29 16t-21 28t-8 41q0 48 18 85t43 61.5t52 37t45 12.5h82v-667h-143l-283 157l-283 -157h-143v667h143v-546l283 159l283 -159v260z" />
    <glyph glyph-name="km_po.sub" unicode="&#x17d2;&#x1796;" 
d="M-918 -451h9q15 0 31 -5t28.5 -16t20.5 -28t8 -41q0 -48 -18 -85t-43 -61.5t-52 -37t-45 -12.5h-82v477l225 190l201 -157l201 157l225 -190v-477h-143v444l-82 76l-201 -152l-201 152l-82 -76v-158z" />
    <glyph glyph-name="km_pho.sub" unicode="&#x17d2;&#x1797;" 
d="M-1065 -451v41q0 95 39 161.5t101 108t138.5 60.5t151.5 19q46 0 95.5 -9t97.5 -27.5t91 -46.5t75.5 -67t51.5 -88.5t19 -110.5v-327h-143v327q0 63 -29 106t-72 70t-93.5 38.5t-92.5 11.5q-47 0 -97.5 -13.5t-92.5 -41t-69.5 -70.5t-27.5 -101v-327h-82q-18 0 -45 12.5
t-52 37t-42.5 61.5t-17.5 85q0 24 8 41t20.5 28t28.5 16t31 5h8z" />
    <glyph glyph-name="km_mo.sub" unicode="&#x17d2;&#x1798;" 
d="M-635 -70h143v-245q61 -1 106 -17.5t75 -45.5t44.5 -68t14.5 -84q0 -48 -15.5 -86.5t-42.5 -65.5t-64 -41t-81 -14q-38 0 -71 13t-57 40.5t-38 70t-14 101.5v49q-41 -25 -82 -55t-84 -56t-88.5 -43.5t-93.5 -17.5q-52 0 -94.5 15.5t-72.5 44.5t-46 71t-16 96h133
q0 -104 96 -104q48 0 91.5 18t85.5 43.5t84 53.5t87 49v278zM-436 -606q32 0 46.5 27.5t14.5 78.5q0 18 -5.5 34.5t-17.5 29t-32 20.5t-49 8h-13v-118q0 -35 14 -57.5t42 -22.5z" />
    <glyph glyph-name="km_yo.sub" unicode="&#x17d2;&#x1799;" horiz-adv-x="866" 
d="M-172 -356v-13q0 -70 28 -117t70 -75.5t91.5 -40.5t93.5 -12q43 0 93.5 12.5t94 41.5t73 76t29.5 115v1188l-227 213v80l313 219l166 -155l70 49v-84l-127 -86l-137 129l-150 -105l236 -219v-1229q0 -78 -23.5 -136t-61.5 -98.5t-85.5 -66.5t-97 -41t-95.5 -20.5
t-80 -5.5q-37 0 -82.5 6t-92 22t-90 42.5t-77.5 67.5t-54.5 97.5t-20.5 132.5v299h82q18 0 45 -12.5t52 -37t42.5 -61.5t17.5 -85q0 -24 -8 -41t-20.5 -28t-28.5 -16t-31 -5h-8z" />
    <glyph glyph-name="km_ro.sub" unicode="&#x17d2;&#x179a;" horiz-adv-x="860" 
d="M451 -369q0 -70 27.5 -117t69.5 -75.5t91.5 -40.5t93.5 -12q43 0 94 12.5t94.5 41.5t73 76t29.5 115v299h143v-299q0 -78 -23.5 -136t-61 -98.5t-85.5 -66.5t-97.5 -41t-95 -20.5t-79.5 -5.5q-38 0 -83.5 6t-91.5 22t-90 42.5t-78 67.5t-54.5 97.5t-20.5 132.5v1188
l-227 213v80l313 219l166 -155l70 49v-84l-127 -86l-137 129l-150 -105l236 -219v-1229z" />
    <glyph glyph-name="km_lo.sub" unicode="&#x17d2;&#x179b;" 
d="M-901 -451h8q15 0 31 -5t28.5 -16t20.5 -28t8 -41q0 -48 -17.5 -85t-42.5 -61.5t-52 -37t-46 -12.5h-81v395q0 47 15 96.5t47 90.5t81.5 67.5t118.5 26.5q60 0 103 -24t73 -62.5t49.5 -88.5t32.5 -101.5t22 -101.5t18.5 -88.5t21 -62.5t30.5 -24q25 0 42.5 23.5
t28.5 63.5t17.5 93.5t9.5 114t3.5 124.5t0.5 125h144q0 -82 -3.5 -163.5t-14 -155.5t-28 -137.5t-45 -110.5t-67 -73.5t-92.5 -26.5t-88 24t-57 62.5t-34.5 88.5t-21.5 101.5t-18 101.5t-24 88.5t-39 62.5t-64 24q-32 0 -54.5 -14.5t-36.5 -37t-21 -50.5t-7 -56v-109z" />
    <glyph glyph-name="km_vo.sub" unicode="&#x17d2;&#x179c;" 
d="M-635 -737q-75 0 -138.5 15.5t-111.5 52t-79 97t-42 150.5q120 17 214.5 48t172.5 76t143.5 104.5t127.5 132.5h143v-99q0 -137 -33 -244t-90.5 -181t-136.5 -113t-170 -39zM-862 -512q10 -27 31 -46.5t48 -31.5t57.5 -18t57.5 -6q75 0 132.5 29t97.5 80t62.5 120
t27.5 149q-34 -41 -81 -85.5t-110 -84t-143 -68.5t-180 -38z" />
    <glyph glyph-name="km_sha.sub" unicode="&#x17d2;&#x179d;" 
d="M-205 -438q25 -2 54.5 -3t64.5 -1v-103h-58.5t-60.5 2v-194h-143v215q-59 12 -129 41v104q32 -11 61.5 -22.5t67.5 -20.5v10q0 63 -29 106t-72 70t-93.5 38.5t-92.5 11.5q-47 0 -97.5 -13.5t-92.5 -41t-69.5 -70.5t-27.5 -101v-159q28 51 77.5 78.5t105.5 27.5
q18 0 44 -6t46 -25v-110q-23 20 -46 25.5t-44 5.5q-29 0 -56 -12.5t-50.5 -35t-43 -52.5t-33.5 -64h-143v327q0 95 39 161.5t101 108t138.5 60.5t151.5 19q46 0 95.5 -9t97.5 -27.5t91 -46.5t75.5 -67t51.5 -88.5t19 -110.5v-28z" />
    <glyph glyph-name="km_ssa.sub" unicode="&#x17d2;&#x179e;" horiz-adv-x="866" 
d="M-205 -356v-260l303 159l303 -159v618q-38 -2 -82 -2h-98v102h98.5t81.5 2v715l-227 213v80l313 219l166 -155l70 49v-84l-127 -86l-137 129l-150 -105l236 -219v-735q40 11 82 29t96 49v-113q-51 -28 -93 -44.5t-85 -27.5v-755h-144l-303 157l-303 -157h-143v667h82
q18 0 45 -12.5t52 -37t42.5 -61.5t17.5 -85q0 -24 -8 -41t-20.5 -28t-28.5 -16t-31 -5h-8z" />
    <glyph glyph-name="km_sa.sub" unicode="&#x17d2;&#x179f;" horiz-adv-x="866" 
d="M-315 -356h-9q-15 0 -31 5t-28.5 16t-20.5 28t-8 41q0 48 18 85t43 61.5t52 37t45 12.5h82v-299q0 -70 28 -117t70 -75.5t91.5 -40.5t93.5 -12q43 0 93.5 12.5t94 41.5t73 76t29.5 115v371q-38 -2 -82 -2h-98v102h98.5t81.5 2v715l-227 213v80l313 219l166 -155l70 49
v-84l-127 -86l-137 129l-150 -105l236 -219v-735q40 11 82 29t96 49v-113q-51 -28 -93 -44.5t-85 -27.5v-387q0 -78 -23.5 -136t-61.5 -98.5t-85.5 -66.5t-97 -41t-95.5 -20.5t-80 -5.5q-37 0 -82.5 6t-92 22t-90 42.5t-77.5 67.5t-54.5 97.5t-20.5 132.5v13z" />
    <glyph glyph-name="km_ha.sub" unicode="&#x17d2;&#x17a0;" 
d="M-578 -481q0 -66 -22 -114.5t-58.5 -80t-83 -46.5t-94.5 -15t-94.5 15t-83 46.5t-58.5 80t-22 114.5v131l-112 127v51l190 111l101 -80l34 24v-63l-63 -39l-66 59l-63 -39l123 -137v-129q0 -47 10.5 -76t27 -45.5t36.5 -22t40 -5.5t40.5 5.5t37 22t27 45.5t10.5 76v148
q0 66 22 114t58.5 79.5t83 47t94.5 15.5t94.5 -15.5t83 -47t58.5 -79.5t22 -114v-420h-143v403q0 47 -10.5 76t-27 45.5t-37 22.5t-40.5 6t-40.5 -6t-37 -22.5t-27 -45.5t-10.5 -76v-147z" />
    <glyph glyph-name="km_la.sub" unicode="&#x17d2;&#x17a1;" horiz-adv-x="866" 
d="M-315 -348h-9q-15 0 -31 5t-28.5 16t-20.5 28t-8 41q0 48 18 85t43 62t52 37.5t45 12.5h82v-496l289 246l284 -246v1376l-227 213v80l313 219l166 -155l70 49v-84l-127 -86l-137 129l-150 -105l236 -219v-1597h-144l-286 256l-287 -256h-143v389z" />
    <glyph glyph-name="km_qa.sub" unicode="&#x17d2;&#x17a2;" 
d="M-348 -451v27h-430v-313h-82q-18 0 -45 12.5t-52 37t-43 61.5t-18 85q0 24 8 41t20.5 28t28.5 16t31 5h8v164l-112 66v51l188 109l101 -60l34 25v-64l-63 -39l-82 45l-62 -36l140 -82v-78h430v63l-113 66v51l189 109l100 -60l35 25v-64l-64 -39l-82 45l-61 -36l139 -82
v-465h-82q-18 0 -45 12.5t-52 37t-42.5 61.5t-17.5 85q0 24 8 41t20.5 28t28.5 16t31 5h8z" />
    <glyph glyph-name="uni17a3.sub" unicode="&#x17d2;&#x17a3;" 
d="M-348 -451v27h-430v-313h-82q-18 0 -45 12.5t-52 37t-43 61.5t-18 85q0 24 8 41t20.5 28t28.5 16t31 5h8v164l-112 66v51l188 109l101 -60l34 25v-64l-63 -39l-82 45l-62 -36l140 -82v-78h430v63l-113 66v51l189 109l100 -60l35 25v-64l-64 -39l-82 45l-61 -36l139 -82
v-465h-82q-18 0 -45 12.5t-52 37t-42.5 61.5t-17.5 85q0 24 8 41t20.5 28t28.5 16t31 5h8z" />
    <glyph glyph-name="uni17a4.sub" unicode="&#x17d2;&#x17a4;" 
d="M-573 -737q-19 0 -46 12.5t-52 37t-42.5 61.5t-17.5 85q0 24 8 41t20.5 28t28.5 16t31 5h8v48h-340v-334h-61q-18 0 -45 12.5t-52 37t-43 61.5t-18 85q0 24 8 41t20.5 28t28.5 16t31 5h8v164l-112 66v51l168 109l100 -60l35 25v-64l-64 -39l-82 45l-61 -36l139 -82v-58
h340v41l-113 68v51l224 109h43l346 -148v-528h-123v473l-279 127l-114 -53l139 -82v-465h-61z" />
    <glyph glyph-name="km_qi.sub" unicode="&#x17d2;&#x17a5;" 
d="M-844 -696q15 0 31 -5t28.5 -16t20.5 -28t8 -41q0 -48 -17.5 -85t-42.5 -62t-52 -37.5t-45 -12.5h-82v348q0 66 17 117.5t48 89.5q-8 50 -34 79t-78 40v49l235 240q25 -23 70 -53t97.5 -58t106.5 -47t99 -19q23 0 37.5 5t23 12.5t12 17.5t3.5 19q0 23 -30 41t-87 18v64
q45 0 87.5 -6t76.5 -20.5t54.5 -39.5t20.5 -64q0 -38 -17.5 -63t-44.5 -41t-59.5 -22.5t-62.5 -6.5q-60 0 -110 12t-94.5 32.5t-85.5 47.5t-83 56l-133 -148q29 -14 47 -33.5t27 -45.5q48 29 104 42t113 13q64 0 128.5 -19t116.5 -59t84 -102t32 -148v-348h-144v348
q0 56 -21 95t-53 63.5t-70.5 35.5t-72.5 11q-38 0 -76.5 -12t-69.5 -37.5t-51 -64t-20 -91.5v-61h8z" />
    <glyph glyph-name="km_qii.sub" unicode="&#x17d2;&#x17a6;" 
d="M-915 -868q0 -29 -14 -51t-34.5 -36t-43.5 -21t-40 -7h-43v176q0 50 21.5 86.5t55 60.5t74 36t77.5 12t77 -9t73.5 -28.5t55 -50t21.5 -74.5q0 -18 5 -36.5t18 -34.5t36 -26t58 -10t57.5 12t35 31.5t17.5 45.5t5 55v266l-138 149l215 125l74 -65v33q0 34 -11.5 57.5
t-29 37t-38 19.5t-38.5 6q-36 0 -62.5 -10.5t-43.5 -22.5q-20 -14 -33 -32l-61 61q12 13 28.5 29t40.5 30.5t55.5 24t73.5 9.5q25 0 56 -8.5t59 -27.5t47 -50t19 -76v-119l-64 -39l-65 59l-64 -38l123 -138v-280q0 -57 -19 -102.5t-53 -77.5t-81 -49t-103 -17
q-113 0 -170 49t-57 129q0 29 -13 48t-31.5 30t-39 15.5t-35.5 4.5t-34 -4t-37 -14.5t-31.5 -29.5t-16.5 -50q29 0 47.5 -14t18.5 -49zM-981 -356q12 0 24 -4t21.5 -12.5t16 -22t6.5 -31.5q0 -37 -13.5 -65t-33 -46.5t-40 -28t-34.5 -9.5h-56v319q0 50 21.5 86.5t55 60.5
t74 36t77.5 12t77 -12t73.5 -36t55 -60.5t21.5 -86.5v-319h-108v307q0 35 -13 57t-31.5 34t-39 16.5t-35.5 4.5t-35.5 -4.5t-39 -16.5t-31.5 -34t-13 -57v-88z" />
    <glyph glyph-name="km_qu.sub" unicode="&#x17d2;&#x17a7;" 
d="M-782 -297q0 -30 -15 -49.5t-36.5 -30.5t-45.5 -15.5t-43 -4.5h-24v135q0 49 26.5 86.5t70.5 63t99.5 38.5t114.5 13q67 0 123 -15.5t96 -43t62 -64.5t22 -80q0 -44 -18.5 -76t-48.5 -55t-69 -39.5t-79 -29t-79 -23.5t-69 -23.5t-48.5 -28.5t-18.5 -39q0 -18 9.5 -29.5
t22.5 -17.5t27.5 -8t24.5 -2q21 0 48 5.5t56 21t59.5 42.5t59.5 70l123 52v-293h-123v108q-22 -21 -49 -40.5t-58.5 -34.5t-67.5 -24t-77 -9q-48 0 -91.5 9t-76.5 27.5t-52 46.5t-19 66q0 40 21 67.5t55.5 47t78.5 33.5t90.5 26.5t90.5 24.5t78.5 29t55.5 40t21 56
q0 26 -19 45t-47 31t-59.5 18t-56.5 6q-21 0 -50.5 -3t-59 -11t-54.5 -21t-37 -34q23 0 39.5 -16t16.5 -48z" />
    <glyph glyph-name="km_quk.sub" unicode="&#x17d2;&#x17a8;" 
d="M-373 -244l-96 103l-156 -154l-157 148l-115 -113l-47 43l170 156l156 -152l153 152l135 -140zM-635 -410q-21 0 -50.5 -3t-59 -11t-54.5 -21t-37 -34q23 0 39.5 -16t16.5 -48q0 -30 -15 -49.5t-36.5 -30.5t-45.5 -15.5t-43 -4.5h-24v135q0 49 26.5 86.5t69.5 63
t98.5 38.5t114.5 13q67 0 123.5 -15.5t96.5 -43t62.5 -64.5t22.5 -80q0 -58 -32 -95.5t-79.5 -62.5t-103.5 -40.5t-103.5 -31t-79.5 -34.5t-32 -49q0 -18 9.5 -29.5t23 -18t27.5 -8.5t24 -2q22 0 48.5 5.5t56 21t59.5 43t59 70.5l123 51v-293h-123v109q-22 -22 -49 -41.5
t-58.5 -34.5t-67.5 -24t-77 -9q-48 0 -91.5 9t-76.5 27.5t-52 46.5t-19 66q0 40 21 67.5t55.5 47t78.5 33.5t90.5 26.5t90.5 24.5t78.5 29t55.5 40t21 56q0 26 -19 45t-47 31t-59.5 18t-56.5 6z" />
    <glyph glyph-name="km_quu.sub" unicode="&#x17d2;&#x17a9;" 
d="M-285 -444h123v-293h-123v293zM-637 -164q-21 0 -50.5 -3t-59 -11t-54.5 -21t-37 -34q23 0 39.5 -16t16.5 -48q0 -30 -15 -49.5t-36.5 -30.5t-45.5 -15.5t-43 -4.5h-24v135q0 49 26.5 86.5t70.5 63t99.5 38.5t114.5 13q67 0 123 -15.5t96 -43t62 -64.5t22 -80
q0 -44 -18.5 -76t-48.5 -55t-69 -39.5t-79 -29t-79 -23.5t-69 -23.5t-48.5 -28.5t-18.5 -39q0 -18 9.5 -29.5t22.5 -17.5t27.5 -8t24.5 -2q21 0 48 5.5t56 21t59.5 42.5t59.5 70l123 52v-293h-123v108q-22 -21 -49 -40.5t-58.5 -34.5t-67.5 -24t-77 -9q-48 0 -91.5 9
t-76.5 27.5t-52 46.5t-19 66q0 40 21 67.5t55.5 47t78.5 33.5t90.5 26.5t90.5 24.5t78.5 29t55.5 40t21 56q0 26 -19 45t-47 31t-59.5 18t-56.5 6z" />
    <glyph glyph-name="km_quuv.sub" unicode="&#x17d2;&#x17aa;" 
d="M-868 -373q45 32 107 49t128 17q67 0 123 -15.5t96 -43t62 -64.5t22 -80q0 -58 -32 -95.5t-79.5 -62.5t-103.5 -40.5t-103.5 -31t-79.5 -34.5t-32 -49q0 -18 9.5 -29.5t23 -18t27.5 -8.5t24 -2q22 0 48.5 5.5t56 21t59.5 43t59 70.5l123 51v-293h-123v109
q-22 -22 -49 -41.5t-58.5 -34.5t-67.5 -24t-77 -9q-48 0 -91.5 9t-76.5 27.5t-52 46.5t-19 66q0 40 21 67.5t55.5 47t78.5 33.5t90.5 26.5t90.5 24.5t78.5 29t55.5 40t21 56q0 26 -19 45t-47 31t-59.5 18t-56.5 6q-21 0 -50.5 -3t-59 -11t-54.5 -21t-37 -34q23 0 39.5 -16
t16.5 -48q0 -30 -15 -49.5t-36.5 -30.5t-45.5 -15.5t-43 -4.5h-24v145q0 36 -7 67.5t-21 56.5t-36 42t-53 23v49l236 240q25 -23 69.5 -53t97 -58t107 -47t98.5 -19q23 0 38 5t23.5 12.5t11.5 17.5t3 19q0 23 -30 41t-87 18v64q45 0 88 -6t76.5 -20.5t54.5 -39.5t21 -64
q0 -38 -17.5 -63t-44.5 -41t-59.5 -22.5t-62.5 -6.5q-60 0 -110 12t-94.5 32.5t-85.5 47.5t-83 56l-133 -148q59 -29 76 -90z" />
    <glyph glyph-name="km_ry.sub" unicode="&#x17d2;&#x17ab;" 
d="M-274 -238v-172q0 -86 -32 -148t-84 -101.5t-116.5 -58.5t-128.5 -19q-67 0 -131.5 18t-115.5 57.5t-82 101.5t-31 150v170l-103 60v51l168 109l101 -60l34 25v-64l-63 -39l-82 45l-61 -37l149 -88v-172q0 -53 20 -91.5t51 -63.5t69.5 -37t76.5 -12q34 0 72.5 11t70.5 35
t53 63t21 95v170l-102 60v51l168 109l100 -60l35 25v-64l-64 -39l-81 45l-62 -37zM-274 -713q0 -81 -19 -133.5t-48.5 -83t-66 -42t-71.5 -11.5q-42 0 -77.5 10.5t-67 26.5t-62 34.5t-62 34.5t-66 26.5t-75.5 10.5q-38 0 -61.5 -4.5t-44.5 -15.5v102q18 10 39 15.5t49 5.5
q41 0 73 -9t60 -23t53.5 -29.5t53 -29.5t59.5 -23t73 -9q22 0 43.5 5.5t37.5 21.5t26 45t10 75h144z" />
    <glyph glyph-name="km_ryy.sub" unicode="&#x17d2;&#x17ac;" 
d="M-275 -238v-172q0 -86 -32 -148t-83.5 -101.5t-116 -58.5t-128.5 -19q-67 0 -131.5 18t-115.5 57.5t-82.5 101.5t-31.5 150v170l-102 60v51l168 109l100 -60l35 25v-64l-63 -39l-82 45l-62 -37l150 -88v-172q0 -53 19.5 -91.5t51 -63.5t70 -37t76.5 -12q34 0 72.5 11
t70.5 35t53 63t21 95v170l-103 60v51l168 109l101 -60l35 25v-64l-64 -39l-82 45l-61 -37zM-275 -713q0 -51 -8 -89.5t-20 -67.5q17 -13 45 -13q21 0 49 14t59 58l12 -90q-19 -31 -39 -47.5t-38.5 -24t-34 -9t-25.5 -1.5q-26 0 -47.5 10.5t-38.5 26.5q-28 -20 -59 -28.5
t-60 -8.5q-42 0 -77 10.5t-67 26.5t-62 34.5t-61.5 34.5t-66 26.5t-75.5 10.5q-38 0 -61.5 -4.5t-45.5 -15.5v102q19 10 40 15.5t48 5.5q41 0 73 -9t60 -23t53.5 -29.5t53.5 -29.5t60 -23t73 -9q22 0 43.5 5.5t37.5 21.5t26 45t10 75h143z" />
    <glyph glyph-name="km_ly.sub" unicode="&#x17d2;&#x17ad;" 
d="M-918 -451h9q15 0 31 -5t28.5 -16t20.5 -28t8 -41q0 -48 -18 -85t-43 -61.5t-52 -37t-45 -12.5h-82v477l225 190l201 -157l201 157l225 -190v-453q0 -60 -9 -95.5t-20 -61.5q19 -13 45 -13q22 0 50 14t59 58l12 -90q-19 -31 -39 -47.5t-38.5 -24t-34 -9t-25.5 -1.5
q-26 0 -47.5 10.5t-38.5 26.5q-28 -20 -59 -28.5t-60 -8.5q-63 0 -120 16t-114 35t-118 35t-131 16q-38 0 -80 -6t-76 -14v102q23 6 65.5 13.5t90.5 7.5q59 0 110.5 -13t101.5 -28t102 -28t114 -13q22 0 43 5.5t37.5 21.5t26.5 45t10 75v420l-82 76l-201 -152l-201 152
l-82 -76v-158z" />
    <glyph glyph-name="km_lyy.sub" unicode="&#x17d2;&#x17ae;" 
d="M-918 -293v-158h9q15 0 31 -5t28.5 -16t20.5 -28t8 -41q0 -48 -18 -85t-43 -61.5t-52 -37t-45 -12.5h-82v477l225 190l201 -157l201 157l225 -190v-477q0 -73 -19.5 -120.5t-49.5 -75.5t-66 -39t-70 -11q-63 0 -120 16t-114 35t-118 35t-131 16q-38 0 -80 -6t-76 -14v102
q23 6 65.5 13.5t90.5 7.5q59 0 110.5 -13t101.5 -28t102 -28t114 -13q22 0 43 5.5t37.5 21.5t26.5 45t10 75v420l-82 76l-201 -152l-201 152z" />
    <glyph glyph-name="km_qe.sub" unicode="&#x17d2;&#x17af;" 
d="M-1020 -655h-8q-15 0 -31 5t-28.5 16t-20.5 28t-8 41q0 48 17.5 85t42.5 61.5t52 37t46 12.5h81v-493l242 160l242 -160v530q0 44 -25 69t-82 25q-32 0 -56.5 -5.5t-49 -14.5t-53 -18.5t-68.5 -18.5t-96 -14.5t-135 -5.5h-62v86q0 26 14.5 40t31.5 24t31.5 18t14.5 22
q0 1 -0.5 4.5t-5 7.5t-13.5 6.5t-26 2.5h-47v84h107q42 0 63 -20t21 -48q0 -33 -12.5 -50.5t-27.5 -28t-27.5 -18t-12.5 -20.5h47q61 0 112 16t98 34.5t94.5 34.5t102.5 16q45 0 83 -13.5t65 -40t42 -66t15 -91.5v-668h-143l-242 158l-242 -158h-143v328z" />
    <glyph glyph-name="km_qai.sub" unicode="&#x17d2;&#x17b0;" 
d="M-551 -723q61 0 100 8.5t61 24t30 36t8 44.5v57l-22.5 -10.5t-58.5 -27t-83 -37.5t-95.5 -42.5t-95 -42.5t-83.5 -37t-59.5 -26l-22.5 -10q0 -11 5 -27t17.5 -31t34.5 -26t57 -11q75 0 115.5 44.5t40.5 113.5h51zM-918 -328h9q31 0 49 -21t18 -69t-16 -85t-39 -61.5
t-48.5 -37t-43.5 -12.5h-72v354l225 190l201 -157l201 157l225 -190v-328q0 -74 -23 -118.5t-63 -68.5t-94.5 -32t-118.5 -8q-17 -56 -47.5 -89.5t-66 -51t-70.5 -22.5t-60 -5q-51 0 -93.5 16t-73.5 47.5t-48.5 77.5t-17.5 105q168 73 304 131q58 25 114 49t102 43.5
t76.5 32t36.5 14.5v174l-82 76l-201 -152l-201 152l-82 -76v-35z" />
    <glyph glyph-name="km_qoo.sub" unicode="&#x17d2;&#x17b1;" 
d="M-637 -410q-21 0 -50.5 -3t-59 -11t-54.5 -21t-37 -34q23 0 39.5 -16t16.5 -48q0 -30 -15 -49.5t-36.5 -30.5t-45.5 -15.5t-43 -4.5h-24v135q0 47 23 83t63 60l-86 80v60l237 164q52 0 96.5 -22t87.5 -48t88 -48t97 -22h8v-92h-35q-49 0 -95 19.5t-90.5 43t-88 43
t-88.5 19.5l-119 -82l82 -74q63 17 131 17q67 0 123 -15.5t96 -43t62 -64.5t22 -80q0 -58 -32 -95.5t-79.5 -62.5t-103.5 -40.5t-103.5 -31t-79.5 -34.5t-32 -49q0 -18 9.5 -29.5t22.5 -18t27.5 -8.5t24.5 -2q21 0 48 5.5t56 21t59.5 43t59.5 70.5l123 51v-293h-123v109
q-22 -22 -49 -41.5t-58.5 -34.5t-67.5 -24t-77 -9q-48 0 -91.5 9t-76.5 27.5t-52 46.5t-19 66q0 40 21 67.5t55.5 47t78.5 33.5t90.5 26.5t90.5 24.5t78.5 29t55.5 40t21 56q0 26 -19 45t-47 31t-59.5 18t-56.5 6z" />
    <glyph glyph-name="km_qoo.2.sub" unicode="&#x17d2;&#x17b2;" 
d="M-831 -512q0 -62 44.5 -97.5t151.5 -35.5q29 0 55.5 4t46.5 11t32 16.5t12 21.5q0 15 -13.5 23t-31.5 12t-35.5 5t-24.5 1h-113v84h107q14 0 33 3.5t36.5 12.5t29.5 24t12 38q0 31 -25.5 46t-56.5 15q-28 0 -46 -6.5t-18 -23.5q0 -25 33 -25v-51q-53 0 -85 22t-32 60
q0 23 14.5 39t37.5 26.5t51.5 15.5t56.5 5q39 0 73 -10t59.5 -28t40.5 -43.5t15 -55.5q0 -31 -18.5 -56t-65.5 -45q13 -2 28 -8.5t27.5 -18t20.5 -27.5t8 -36q0 -35 -22.5 -61.5t-61.5 -44.5t-90.5 -27.5t-109.5 -9.5q-146 0 -222.5 65t-76.5 180v320l211 111q34 0 70.5 -15
t73.5 -32.5t73 -32.5t71 -15h84v-82h-102q-33 0 -70 15t-74.5 32.5t-73 32.5t-65.5 15l-75 -43v-326z" />
    <glyph glyph-name="km_qau.sub" unicode="&#x17d2;&#x17b3;" 
d="M-635 -410q-21 0 -50.5 -3t-59 -11t-54.5 -21t-37 -34q23 0 39.5 -16t16.5 -48q0 -30 -15 -49.5t-36.5 -30.5t-45.5 -15.5t-43 -4.5h-24v135q0 50 26.5 87t69.5 63l-96 67v60l235 161l162 -92q10 53 38.5 82t62.5 42.5t66 15.5t50 2v-105q-15 0 -39.5 -1.5t-47.5 -11
t-39.5 -30.5t-16.5 -59l-74 -49l-186 98l-113 -78l90 -66q29 8 60 11.5t63 3.5q67 0 123 -15.5t96 -43t62 -64.5t22 -80q0 -58 -32 -95.5t-79.5 -62.5t-103.5 -40.5t-103.5 -31t-79.5 -34.5t-32 -49q0 -18 9.5 -29.5t23 -18t27.5 -8.5t24 -2q22 0 48.5 5.5t56 21t59.5 43
t59 70.5l123 51v-293h-123v109q-22 -22 -49 -41.5t-58.5 -34.5t-67.5 -24t-77 -9q-48 0 -91.5 9t-76.5 27.5t-52 46.5t-19 66q0 40 21 67.5t55.5 47t78.5 33.5t90.5 26.5t90.5 24.5t78.5 29t55.5 40t21 56q0 26 -19 45t-47 31t-59.5 18t-56.5 6z" />
    <glyph glyph-name=".notdef" horiz-adv-x="1024" 
d="M129 0v1638h768v-1638h-768zM256 129h512v1382h-512v-1382z" />
    <glyph glyph-name="uni0000" 
 />
    <glyph glyph-name="uni0000" 
 />
    <glyph glyph-name="uni000D" unicode="&#xd;" 
 />
    <glyph glyph-name="space" unicode=" " horiz-adv-x="614" 
 />
    <glyph glyph-name="exclam" unicode="!" horiz-adv-x="377" 
d="M297 1425v-585l-39 -480h-96l-39 478v587h174zM297 197v-197h-174v197h174z" />
    <glyph glyph-name="quotedbl" unicode="&#x22;" horiz-adv-x="623" 
d="M262 1425v-524h-139v524h139zM539 1425v-524h-136v524h136z" />
    <glyph glyph-name="numbersign" unicode="#" horiz-adv-x="1503" 
d="M852 473h-311l-88 -473h-111l84 473h-299l18 100h295l62 310h-303l22 100h297l82 451h113l-80 -451h315l78 451h117l-86 -451h352l-12 -63l-11 -37h-344l-55 -310h346l-12 -63l-10 -37h-342l-90 -473h-115zM930 883h-314l-61 -310h313z" />
    <glyph glyph-name="dollar" unicode="$" horiz-adv-x="1155" 
d="M655 1386q69 -7 132 -30.5t114 -65.5t87 -102.5t50 -140.5h-141q-59 177 -242 204v-491q50 -21 100 -43t95.5 -47.5t85 -55.5t68 -67t45 -83t16.5 -102q0 -95 -36.5 -164t-95 -115t-131.5 -71t-147 -32v-232h-137v236q-75 13 -141 51t-117.5 95t-86.5 131t-48 159h147
q10 -55 31 -103t52 -86.5t72 -66t91 -39.5v532q-69 30 -134.5 64t-116.5 79t-82 103.5t-31 136.5q0 71 28.5 131t78 105t116 73.5t141.5 36.5v150h137v-150zM920 358q0 41 -23 76t-60.5 65.5t-85 56t-96.5 46.5v-485q61 6 110 27t83.5 53.5t53 73.5t18.5 87zM299 1047
q0 -42 16.5 -76.5t46 -62.5t69.5 -51t87 -44v436q-51 -8 -91.5 -27t-69 -45.5t-43.5 -59.5t-15 -70z" />
    <glyph glyph-name="percent" unicode="%" horiz-adv-x="1729" 
d="M377 0l840 1366h149l-840 -1366h-149zM129 1049q0 70 25.5 131t70 106.5t104 71.5t128.5 26q68 0 128 -26t104.5 -71.5t70.5 -106.5t26 -131t-26 -131.5t-70.5 -107.5t-104.5 -72.5t-128 -26.5q-69 0 -128.5 26.5t-104 72.5t-70 107.5t-25.5 131.5zM254 1049
q0 -45 16 -84.5t43.5 -69t64.5 -47t79 -17.5t79.5 17.5t65 47t44 69t16.5 84.5q0 44 -16.5 83.5t-44 69t-65 47t-79.5 17.5t-79 -17.5t-64.5 -47t-43.5 -69t-16 -83.5zM973 319q0 70 25 131.5t69.5 107.5t104 72.5t128.5 26.5t128.5 -26.5t104 -72.5t70 -107.5t25.5 -131.5
t-25.5 -131.5t-70 -107t-104 -72t-128.5 -26.5t-128.5 26.5t-104 72t-69.5 107t-25 131.5zM1098 319q0 -44 16 -83.5t43 -69t64 -47t79 -17.5t79.5 17.5t65.5 47t44 69t16 83.5q0 45 -16 84.5t-44 69t-65.5 47t-79.5 17.5t-79 -17.5t-64 -47t-43 -69t-16 -84.5z" />
    <glyph glyph-name="ampersand" unicode="&#x26;" horiz-adv-x="1405" 
d="M1200 645q-9 -103 -38.5 -202.5t-80.5 -184.5q53 -59 117 -126t127 -132h-190q-38 38 -71 72.5t-65 74.5q-38 -41 -84 -75t-99.5 -59.5t-113 -39.5t-124.5 -14q-125 0 -211 35t-139 90.5t-77 124.5t-24 137q0 70 29 131t77 115.5t109.5 104.5t126.5 98
q-78 117 -120 214.5t-42 176.5q0 54 22 106t65 93t105 66.5t142 25.5q84 0 147 -27t105 -69.5t63 -95t21 -103.5q0 -63 -26.5 -119t-70 -107t-100 -98t-116.5 -92q63 -85 139.5 -180.5t179.5 -214.5q31 59 49.5 128t26.5 146h141zM575 104q100 0 182.5 40t145.5 112
q-102 115 -190.5 220.5t-163.5 205.5q-55 -40 -105 -80.5t-88.5 -82t-61 -85t-22.5 -90.5q0 -62 26 -107.5t69 -75t97 -43.5t111 -14zM451 1188q0 -53 32 -128t101 -183q51 37 96 74t78.5 74.5t53 76.5t19.5 80q0 40 -15 70t-41 49t-61 28.5t-75 9.5q-36 0 -70 -10t-60 -29
t-42 -47t-16 -65z" />
    <glyph glyph-name="quotesingle" unicode="'" horiz-adv-x="338" 
d="M258 1425v-524h-135v524h135z" />
    <glyph glyph-name="parenleft" unicode="(" horiz-adv-x="588" 
d="M549 1624q-125 -233 -182.5 -469.5t-57.5 -484.5q0 -246 57.5 -483t182.5 -468h-109q-79 102 -138.5 216t-99 234.5t-59.5 246.5t-20 254q0 127 19.5 253t59 247t99 235.5t139.5 218.5h109z" />
    <glyph glyph-name="parenright" unicode=")" horiz-adv-x="549" 
d="M147 1624q162 -210 240 -453.5t78 -500.5q0 -128 -19.5 -254.5t-59.5 -247t-99.5 -234t-139.5 -215.5h-110q129 228 187.5 465.5t58.5 485.5q0 247 -58.5 484.5t-187.5 469.5h110z" />
    <glyph glyph-name="asterisk" unicode="*" horiz-adv-x="979" 
d="M584 1466l-23 -303l279 119l55 -147l-309 -72q23 -26 50 -55.5t55 -59t55.5 -58t50.5 -52.5l-121 -93l-168 254l-174 -254l-121 93l213 225l-303 76l47 143l285 -121l-27 305h156z" />
    <glyph glyph-name="plus" unicode="+" horiz-adv-x="1247" 
d="M127 821h455v443h114v-443h459v-114h-459v-443h-114v443h-455v114z" />
    <glyph glyph-name="comma" unicode="," horiz-adv-x="416" 
d="M336 197v-248q0 -91 -46.5 -153t-121.5 -91l-51 70q33 13 52.5 30t30 38t14 47.5t3.5 58.5v51h-74v197h193z" />
    <glyph glyph-name="hyphen" unicode="-" horiz-adv-x="666" 
d="M582 645v-145h-457v145h457z" />
    <glyph glyph-name="period" unicode="." horiz-adv-x="395" 
d="M315 197v-197h-192v197h192z" />
    <glyph glyph-name="slash" unicode="/" horiz-adv-x="610" 
d="M139 -41h-139l477 1507h133z" />
    <glyph glyph-name="zero" unicode="0" horiz-adv-x="1147" 
d="M244 696q0 -153 25 -262t69 -179t102.5 -103t126.5 -33t127 33t103 103t69 179t25 262t-25 262.5t-69 180t-103 104t-127 33.5t-126.5 -33.5t-102.5 -104t-69 -180t-25 -262.5zM1042 696q0 -161 -30.5 -289.5t-90 -219t-148.5 -139t-206 -48.5t-205.5 48.5t-148 139
t-89.5 219t-30 289.5q0 160 30 289t89.5 220t148 139.5t205.5 48.5t206 -48.5t148.5 -139.5t90 -220t30.5 -289z" />
    <glyph glyph-name="one" unicode="1" horiz-adv-x="1147" 
d="M698 0v1120q-48 -68 -100 -115.5t-112 -77t-128 -42.5t-147 -13v146q82 0 150 18.5t122 49t94.5 70t67 81t40 82.5t13.5 74h144v-1393h-144z" />
    <glyph glyph-name="two" unicode="2" horiz-adv-x="1147" 
d="M115 975q10 95 48.5 172.5t100 132t144.5 84t184 29.5q105 0 184.5 -32.5t133.5 -86t81 -123t27 -143.5q0 -86 -31.5 -153t-83 -123t-118.5 -105t-138 -97q-64 -44 -121.5 -86t-105.5 -88t-84 -97.5t-57 -113.5h739v-145h-901v137q23 84 70.5 154t108 130t129.5 111.5
t134 96.5q58 40 113.5 81.5t98.5 85t69 90t26 97.5q0 72 -21.5 126.5t-58.5 91t-87 55t-107 18.5q-68 0 -125 -20.5t-98.5 -59t-66 -94t-28.5 -125.5h-159z" />
    <glyph glyph-name="three" unicode="3" horiz-adv-x="1147" 
d="M135 997q14 78 46 149t85.5 125.5t129.5 87t177 32.5q94 0 168.5 -26.5t126.5 -74t79.5 -112t27.5 -140.5q0 -102 -52 -181t-149 -124q59 -21 108 -53t84 -75.5t54.5 -100t19.5 -127.5q0 -98 -36.5 -172t-98.5 -124t-144 -75.5t-173 -25.5q-98 0 -179 29t-144 83.5
t-106 134t-65 181.5h158q16 -89 51.5 -148t82 -94.5t99 -50.5t103.5 -15q54 0 108 19.5t97 56t69.5 87.5t26.5 114q0 61 -22 113.5t-63.5 91.5t-100 61.5t-130.5 22.5h-90v133h90q70 0 118 19.5t78 51.5t43 73t13 83q0 57 -17.5 102.5t-50.5 77.5t-79.5 49t-104.5 17
q-65 0 -115 -24t-85.5 -62.5t-56.5 -88t-27 -100.5h-154z" />
    <glyph glyph-name="four" unicode="4" horiz-adv-x="1147" 
d="M711 0v344h-635v170l624 860h154v-911h203v-119h-203v-344h-143zM201 463h510v717z" />
    <glyph glyph-name="five" unicode="5" horiz-adv-x="1147" 
d="M135 655l92 719h736v-121h-621q-12 -112 -27 -218t-28 -220q42 33 87 51.5t86.5 27.5t75 11t52.5 2q97 0 180 -36.5t143.5 -99t94.5 -147t34 -180.5q0 -89 -29.5 -172.5t-90 -148.5t-152.5 -104t-217 -39q-83 0 -156.5 22.5t-133 67.5t-102.5 113t-65 159h156
q18 -58 49 -103t71 -76t87 -47t96 -16q69 0 130 26.5t107 73t72.5 109t26.5 135.5q0 75 -29 137t-76 106.5t-107.5 69.5t-123.5 25q-36 0 -74.5 -8.5t-75 -25t-68.5 -40t-56 -53.5h-144z" />
    <glyph glyph-name="six" unicode="6" horiz-adv-x="1147" 
d="M874 1063q-8 38 -30 76t-57 68t-81.5 48.5t-101.5 18.5q-70 0 -124 -27t-94 -73t-67.5 -106t-44.5 -126t-25 -134.5t-9 -129.5q31 61 76 102.5t94 66.5t96.5 35.5t85.5 10.5q101 0 182 -35.5t138 -98t87.5 -147.5t30.5 -184q0 -91 -30 -172t-86 -142.5t-137 -97.5
t-183 -36q-111 0 -201.5 41t-154.5 121t-99 199.5t-35 276.5q0 201 35 347t100 241t156.5 141t204.5 46q92 0 164.5 -27.5t124 -73.5t83 -105.5t42.5 -123.5h-140zM594 100q61 0 113.5 25.5t90.5 70t59.5 104.5t21.5 128q0 66 -20.5 126t-58.5 106t-91 73t-117 27
q-76 0 -132.5 -30.5t-93.5 -78t-55 -106t-18 -113.5q0 -71 25 -132t66.5 -105.5t96 -69.5t113.5 -25z" />
    <glyph glyph-name="seven" unicode="7" horiz-adv-x="1147" 
d="M307 0q24 169 68 332t112.5 320t162.5 307t218 294h-776v121h950v-114q-110 -138 -203 -274.5t-167 -286t-127 -320.5t-82 -379h-156z" />
    <glyph glyph-name="eight" unicode="8" horiz-adv-x="1147" 
d="M109 385q0 54 16.5 105.5t45.5 96.5t70 82t89 64q-43 25 -78 57t-59.5 70.5t-38 81.5t-13.5 90q0 75 33.5 140t91 114t135 77t164.5 28q88 0 166 -28t135.5 -77t91 -114t33.5 -140q0 -46 -13.5 -89.5t-38.5 -81.5t-59.5 -70.5t-76.5 -57.5q50 -27 91 -64t70.5 -82
t45.5 -96.5t16 -105.5q0 -84 -36 -158t-98.5 -129t-146.5 -86.5t-180 -31.5q-95 0 -178.5 31.5t-145 86.5t-97 129t-35.5 158zM258 385q0 -59 24 -111t65.5 -90.5t97.5 -61t120 -22.5t120.5 22.5t98.5 61t66 90.5t24 111q0 60 -24 112.5t-66 91t-98.5 61t-120.5 22.5
t-120 -22.5t-97.5 -61t-65.5 -91t-24 -112.5zM293 1032q0 -49 21.5 -92.5t58.5 -76t86.5 -51.5t105.5 -19q57 0 107.5 19t88 51.5t59.5 76t22 92.5t-22 92.5t-59.5 76.5t-88 52t-107.5 19q-56 0 -105.5 -19t-86.5 -52t-58.5 -76.5t-21.5 -92.5z" />
    <glyph glyph-name="nine" unicode="9" horiz-adv-x="1147" 
d="M258 311q8 -38 30.5 -76t57.5 -68t81.5 -48.5t102.5 -18.5q70 0 124 27t93.5 73t66.5 106t44 126t24.5 133.5t8.5 128.5q-32 -59 -77 -100t-93.5 -66.5t-95.5 -37t-84 -11.5q-102 0 -183 35.5t-137.5 98t-86.5 148t-30 185.5q0 90 29.5 171t86 142.5t137.5 97.5t184 36
q111 0 201.5 -40.5t154.5 -120.5t98.5 -199.5t34.5 -276.5q0 -201 -35 -347t-99.5 -241.5t-156 -141.5t-204.5 -46q-92 0 -164.5 28t-125 74t-83.5 105.5t-41 123.5h137zM541 1274q-62 0 -115 -25.5t-91 -70t-59.5 -104.5t-21.5 -128q0 -67 20.5 -127t58.5 -105.5
t90.5 -72.5t117.5 -27q76 0 133 30.5t94 78t55.5 105.5t18.5 114q0 72 -25 132.5t-66.5 105t-96 69.5t-113.5 25z" />
    <glyph glyph-name="colon" unicode=":" horiz-adv-x="395" 
d="M315 1018v-199h-192v199h192zM315 197v-197h-192v197h192z" />
    <glyph glyph-name="semicolon" unicode=";" horiz-adv-x="416" 
d="M336 1018v-199h-193v199h193zM336 197v-248q0 -91 -46.5 -153t-121.5 -91l-51 70q33 13 52.5 30t30 38t14 47.5t3.5 58.5v51h-74v197h193z" />
    <glyph glyph-name="less" unicode="&#x3c;" horiz-adv-x="1165" 
d="M127 623l946 409v-133l-811 -332q204 -81 406.5 -164.5t404.5 -164.5v-136l-946 410v111z" />
    <glyph glyph-name="equal" unicode="=" horiz-adv-x="1247" 
d="M1155 961v-113h-1028v113h1028zM1155 575v-114h-1028v114h1028z" />
    <glyph glyph-name="greater" unicode="&#x3e;" horiz-adv-x="1165" 
d="M127 102v134l813 327l-813 336v133l946 -409v-111z" />
    <glyph glyph-name="question" unicode="?" horiz-adv-x="1034" 
d="M446 412v98q0 63 26 113.5t65.5 94.5t85 85t85 85t65.5 94.5t26 113.5q0 54 -15.5 101t-47 82t-80 55t-113.5 20q-60 0 -109.5 -24t-86 -67.5t-58 -104.5t-25.5 -134h-139q4 100 36 183.5t87.5 142.5t130.5 92t164 33q109 0 185.5 -32.5t124.5 -86t69.5 -121.5t21.5 -139
q0 -66 -24 -119.5t-59.5 -99.5t-77 -88t-77 -86t-59.5 -92.5t-24 -108.5v-90h-177zM623 180v-180h-177v180h177z" />
    <glyph glyph-name="at" unicode="@" horiz-adv-x="1612" 
d="M1116 918h125l-160 -556q-5 -17 -7.5 -32t-2.5 -27q0 -51 41 -51q16 0 44 6.5t60.5 23.5t66 46.5t60.5 76t44.5 112t17.5 153.5q0 108 -43.5 198t-115.5 154.5t-166 100.5t-195 36q-132 0 -246.5 -48.5t-199 -134t-133 -203t-48.5 -255.5q0 -131 50 -238t133 -183
t191 -117t224 -41q78 0 148 16.5t129 47t107.5 73.5t84.5 96h125q-35 -89 -99 -155.5t-147 -110t-180.5 -65t-198.5 -21.5q-89 0 -175 23t-163 66t-141.5 104.5t-112 138.5t-74 168t-26.5 192q0 118 28 220.5t78 187t119.5 151t153.5 112t179 69.5t196 24q124 0 239 -44
t204 -123t142.5 -188.5t53.5 -240.5q0 -134 -40.5 -236t-106.5 -171t-151 -104.5t-175 -35.5q-27 0 -48.5 9t-37 25t-24.5 37t-11 44q-44 -62 -96.5 -88.5t-124.5 -26.5q-65 0 -117 25.5t-88.5 67.5t-56 95.5t-19.5 108.5q0 90 31.5 182t88.5 167t136.5 122t175.5 47
q47 0 83.5 -16.5t63 -39.5t43 -48t23.5 -43zM979 457q17 54 26.5 88t14 55.5t5.5 33t1 19.5q0 39 -12.5 71t-34.5 55t-51.5 35.5t-63.5 12.5q-37 0 -74 -17t-70.5 -46t-62 -67t-49.5 -80t-33 -85.5t-12 -82.5q0 -36 9 -72t28.5 -64.5t50 -46.5t74.5 -18q39 0 77.5 14
t72.5 40.5t61 65.5t43 89z" />
    <glyph glyph-name="A" unicode="A" horiz-adv-x="1251" 
d="M727 1417l516 -1417h-160l-157 434h-609l-157 -434h-162l522 1417h207zM621 1278l-254 -711h507z" />
    <glyph glyph-name="B" unicode="B" horiz-adv-x="1241" 
d="M125 1417h551q92 0 165 -26.5t123.5 -71.5t77.5 -105.5t27 -128.5q0 -102 -51.5 -188t-159.5 -143q81 -23 137.5 -60t91.5 -83t50.5 -100t15.5 -112q0 -82 -34 -154.5t-91 -127t-131.5 -86t-155.5 -31.5h-616v1417zM276 821h365q64 0 117 19.5t91 52.5t59.5 77.5
t21.5 94.5q0 46 -15.5 85.5t-47.5 68t-81.5 45t-117.5 16.5h-392v-459zM276 137h402q57 0 114 16t103 49t75 84t29 120q0 57 -25.5 108.5t-74 90t-118.5 61t-158 22.5h-347v-551z" />
    <glyph glyph-name="C" unicode="C" horiz-adv-x="1446" 
d="M279 727q0 -162 42 -281.5t110 -198t155 -117t176 -38.5q93 0 168 33.5t130.5 88.5t91 126t50.5 145h154q-21 -110 -69.5 -205.5t-123.5 -167t-175.5 -112.5t-225.5 -41q-145 0 -262.5 52.5t-200 151.5t-127.5 242t-45 324q0 93 19 183.5t56 171.5t91.5 149.5
t124.5 118.5t156 78t186 28q127 0 226 -33.5t173 -93t123.5 -142t77.5 -179.5h-160q-56 159 -163 237t-277 78q-106 0 -194.5 -48.5t-152 -130.5t-99 -190.5t-35.5 -228.5z" />
    <glyph glyph-name="D" unicode="D" horiz-adv-x="1352" 
d="M127 1417h526q141 0 254 -56t192.5 -152t122 -224.5t42.5 -273.5q0 -151 -45 -281t-126 -225.5t-193 -150t-247 -54.5h-526v1417zM276 137h316q112 0 207 38.5t164 112t108 180t39 241.5q0 147 -39 255t-108.5 178t-164.5 104t-206 34h-316v-1143z" />
    <glyph glyph-name="E" unicode="E" horiz-adv-x="1194" 
d="M1071 1417v-137h-795v-479h748v-137h-748v-527h830v-137h-981v1417h946z" />
    <glyph glyph-name="F" unicode="F" horiz-adv-x="1135" 
d="M1049 1417v-137h-773v-479h672v-137h-672v-664h-151v1417h924z" />
    <glyph glyph-name="G" unicode="G" horiz-adv-x="1466" 
d="M279 711q0 -146 39 -260.5t105.5 -193t155 -120t187.5 -41.5q58 0 114.5 20t107.5 55t95 83.5t76.5 105.5t52 120t21.5 128h-440v133h583v-741h-92l-45 252q-35 -55 -88 -107t-115 -92.5t-130.5 -65t-135.5 -24.5q-148 0 -267 57.5t-202.5 158t-128.5 237.5t-45 295
q0 92 19 183.5t56 174.5t91.5 154t124.5 123.5t156 82t186 29.5q127 0 226 -33.5t173 -93t123.5 -142t77.5 -179.5h-160q-56 159 -163 237t-277 78q-106 0 -194.5 -49.5t-152 -133.5t-99 -195.5t-35.5 -235.5z" />
    <glyph glyph-name="H" unicode="H" horiz-adv-x="1286" 
d="M276 1417v-616h771v616h151v-1417h-151v668h-771v-668h-151v1417h151z" />
    <glyph glyph-name="I" unicode="I" horiz-adv-x="518" 
d="M352 1417v-1417h-151v1417h151z" />
    <glyph glyph-name="J" unicode="J" horiz-adv-x="983" 
d="M899 1417v-1046q0 -110 -31.5 -188t-84.5 -128t-124 -73t-149 -23q-75 0 -144.5 23.5t-123 70.5t-85.5 116t-32 161v110h151v-92q0 -66 21.5 -114.5t55.5 -80t76.5 -46.5t84.5 -15q34 0 74.5 13t76 43t59.5 80t24 124v1065h151z" />
    <glyph glyph-name="K" unicode="K" horiz-adv-x="1309" 
d="M276 1417v-725l723 725h199l-561 -557l594 -860h-191l-508 752l-256 -252v-500h-151v1417h151z" />
    <glyph glyph-name="L" unicode="L" horiz-adv-x="1075" 
d="M276 1417v-1280h713v-137h-864v1417h151z" />
    <glyph glyph-name="M" unicode="M" horiz-adv-x="1518" 
d="M322 1417l450 -1208l459 1208h196v-1417h-151v1163l-426 -1163h-137l-434 1163v-1163h-152v1417h195z" />
    <glyph glyph-name="N" unicode="N" horiz-adv-x="1288" 
d="M328 1417l721 -1224v1224h151v-1417h-203l-721 1225v-1225h-151v1417h203z" />
    <glyph glyph-name="O" unicode="O" horiz-adv-x="1489" 
d="M1399 707q0 -164 -42.5 -300.5t-123.5 -235t-199.5 -153.5t-271.5 -55q-152 0 -270.5 55t-199.5 153.5t-123 235t-42 300.5q0 163 42 300t123 235t199.5 153t270.5 55q153 0 271.5 -55t199.5 -153t123.5 -235t42.5 -300zM1247 707q0 144 -37.5 257t-103 191.5t-154 120
t-190.5 41.5t-190.5 -41.5t-153.5 -120t-102 -191.5t-37 -257t37 -257t102 -192t153.5 -120.5t190.5 -41.5t190.5 41.5t154 120.5t103 192t37.5 257z" />
    <glyph glyph-name="P" unicode="P" horiz-adv-x="1176" 
d="M125 1417h537q103 0 183 -36t134.5 -93.5t82.5 -129.5t28 -144q0 -78 -28.5 -151t-83 -129.5t-134 -91t-182.5 -34.5h-386v-608h-151v1417zM276 741h386q55 0 105 21.5t88 58.5t60.5 87t22.5 108q0 57 -21 105t-58 83.5t-87.5 55.5t-109.5 20h-386v-539z" />
    <glyph glyph-name="Q" unicode="Q" horiz-adv-x="1513" 
d="M1399 707q0 -166 -45.5 -304.5t-128.5 -238.5l205 -203l-95 -92l-207 205q-74 -54 -165.5 -82.5t-200.5 -28.5q-152 0 -270.5 55t-199.5 153.5t-123 235t-42 300.5q0 163 42 300t123 235t199.5 153t270.5 55q153 0 271.5 -55t199.5 -153t123.5 -235t42.5 -300zM1247 707
q0 144 -37.5 257t-102.5 191.5t-153.5 120t-191.5 41.5q-102 0 -190.5 -41.5t-153.5 -120t-102 -191.5t-37 -257t37 -257t102 -192t153.5 -120.5t190.5 -41.5q72 0 138 21t122 61l-145 146l94 96l147 -150q59 79 94 189t35 248z" />
    <glyph glyph-name="R" unicode="R" horiz-adv-x="1241" 
d="M1133 1014q0 -53 -12.5 -103.5t-37.5 -95.5t-62.5 -83.5t-86.5 -65.5q55 -14 90 -42.5t55 -66.5t27.5 -83t7.5 -91v-215q0 -47 12.5 -90t32.5 -78h-164q-10 16 -16 37t-9 43t-4 43t-1 37v225q0 41 -14 81t-45 71.5t-80.5 51t-120.5 19.5h-429v-608h-151v1417h580
q103 0 183 -36t134.5 -93.5t82.5 -129.5t28 -144zM276 741h429q56 0 106 21.5t88 58.5t60 87t22 108q0 57 -21 105t-57.5 83.5t-87 55.5t-110.5 20h-429v-539z" />
    <glyph glyph-name="S" unicode="S" horiz-adv-x="1253" 
d="M281 442q5 -76 34.5 -139.5t78 -110t115 -72.5t146.5 -26q71 0 136 15.5t114.5 49.5t79 88t29.5 132q0 63 -32 107t-84 76.5t-118.5 55.5t-134.5 44q-85 25 -170.5 56t-154 79t-111.5 119.5t-43 177.5q0 88 34.5 155.5t97 113.5t149 69.5t190.5 23.5q92 0 163 -18.5
t124.5 -50t90 -73t60 -88.5t35 -96.5t14.5 -95.5h-155q-6 71 -34 125t-72.5 90.5t-102.5 55t-123 18.5q-59 0 -116.5 -12t-102.5 -39.5t-73 -71t-28 -106.5q0 -65 31.5 -110.5t84 -78t120 -56.5t139.5 -46q86 -26 171 -57t152 -78t108.5 -116.5t41.5 -172.5
q0 -104 -38 -182.5t-106 -131.5t-161.5 -79.5t-204.5 -26.5q-100 0 -194 33.5t-167.5 96.5t-119.5 152.5t-49 200.5h156z" />
    <glyph glyph-name="T" unicode="T" horiz-adv-x="1303" 
d="M1214 1417v-137h-469v-1280h-151v1280h-469v137h1089z" />
    <glyph glyph-name="U" unicode="U" horiz-adv-x="1264" 
d="M276 1417v-954q0 -87 32 -156t83.5 -116.5t116 -73t129.5 -25.5q70 0 139 23.5t124 69.5t89.5 114.5t34.5 159.5v958h152v-948q0 -124 -48 -219t-124.5 -159.5t-172.5 -98t-192 -33.5q-92 0 -183.5 33t-165 97.5t-119.5 160.5t-46 223v944h151z" />
    <glyph glyph-name="V" unicode="V" horiz-adv-x="1151" 
d="M571 197l406 1220h166l-473 -1417h-189l-481 1417h166z" />
    <glyph glyph-name="W" unicode="W" horiz-adv-x="1741" 
d="M864 1180l-348 -1180h-156l-358 1417h158l282 -1147l351 1147h143l346 -1136q69 284 143.5 568t143.5 568h157l-358 -1417h-156z" />
    <glyph glyph-name="X" unicode="X" horiz-adv-x="1120" 
d="M641 709q113 -174 227.5 -355t227.5 -354h-172l-367 578l-369 -578h-172l455 711l-451 706h168l367 -575l369 575h172z" />
    <glyph glyph-name="Y" unicode="Y" horiz-adv-x="1167" 
d="M584 702l405 715h174l-508 -848v-569h-151v569l-508 848h174z" />
    <glyph glyph-name="Z" unicode="Z" horiz-adv-x="1280" 
d="M125 150l903 1130h-903v137h1067v-176l-889 -1104h889v-137h-1067v150z" />
    <glyph glyph-name="bracketleft" unicode="[" horiz-adv-x="459" 
d="M463 1577v-98h-203v-1665h203v-101h-340v1864h340z" />
    <glyph glyph-name="backslash" unicode="\" horiz-adv-x="590" 
d="M113 1468l477 -1509h-119l-471 1509h113z" />
    <glyph glyph-name="bracketright" unicode="]" horiz-adv-x="416" 
d="M336 -287h-342v101h203v1665h-203v98h342v-1864z" />
    <glyph glyph-name="asciicircum" unicode="^" horiz-adv-x="899" 
d="M545 1434l350 -510h-123l-328 422l-327 -422h-121l346 510h203z" />
    <glyph glyph-name="underscore" unicode="_" horiz-adv-x="1198" 
d="M1106 -303v-117h-979v117h979z" />
    <glyph glyph-name="grave" unicode="`" horiz-adv-x="410" 
d="M123 934v256q0 105 55.5 172.5t151.5 89.5v-113q-29 -9 -46.5 -22.5t-28 -32t-14 -42t-3.5 -52.5v-27h92v-229h-207z" />
    <glyph glyph-name="a" unicode="a" horiz-adv-x="1157" 
d="M154 745q4 75 41 130t93.5 91t125.5 53t137 17q75 0 146 -16.5t126 -52.5t88 -93.5t33 -138.5v-536q0 -16 6 -32t16 -28.5t23.5 -20t28.5 -7.5q11 0 22.5 2.5t26.5 7.5v-123q-32 -9 -54.5 -13.5t-49.5 -4.5q-65 0 -107.5 48t-48.5 148q-48 -63 -95 -101.5t-93.5 -59.5
t-94 -28t-96.5 -7q-63 0 -118 20t-95.5 57.5t-64 90.5t-23.5 118t28.5 111.5t75.5 79.5t107 56t122 41t122 34t107 36t75.5 46.5t28.5 64.5q0 89 -65 128.5t-181 39.5q-45 0 -85.5 -9t-71.5 -28t-52 -49t-27 -72h-157zM793 575q-31 -33 -81.5 -55t-108 -39.5t-116 -33.5
t-105.5 -38.5t-76.5 -54.5t-29.5 -80q0 -44 15 -74.5t40 -50.5t56.5 -29t63.5 -9q94 0 183.5 56.5t158.5 174.5v233z" />
    <glyph glyph-name="b" unicode="b" horiz-adv-x="1073" 
d="M125 1425h151v-555q26 36 60.5 66.5t72.5 52.5t77.5 34.5t76.5 12.5q105 0 183.5 -41.5t131 -113.5t79 -168.5t26.5 -206.5t-27 -206.5t-80.5 -168t-132.5 -113t-184 -41.5q-40 0 -79.5 11t-76.5 33.5t-69.5 55.5t-57.5 77v-154h-151v1425zM276 506q0 -82 18.5 -154
t54 -125.5t87 -84.5t117.5 -31q67 0 119 31t88 84.5t55 125.5t19 154t-19 154.5t-55 126.5t-88 85t-119 31q-65 0 -115.5 -30t-85.5 -81.5t-54.5 -121t-21.5 -148.5v-16z" />
    <glyph glyph-name="c" unicode="c" horiz-adv-x="1075" 
d="M825 705q-15 54 -38 92t-54 61.5t-71 34t-89 10.5q-71 0 -126 -30.5t-93 -82.5t-58 -120.5t-20 -143.5q0 -78 20 -153t58 -133t92.5 -93.5t122.5 -35.5q55 0 97.5 19.5t74 53.5t52 78.5t30.5 95.5h164q-11 -89 -45 -159.5t-88 -120t-127.5 -75.5t-163.5 -26
q-76 0 -137.5 22.5t-110 61.5t-84 92t-58.5 114t-34.5 127t-11.5 132q0 108 31.5 201t90 161.5t141.5 108t185 39.5q89 0 159 -25t121 -69.5t83 -105t47 -131.5h-160z" />
    <glyph glyph-name="d" unicode="d" horiz-adv-x="1073" 
d="M834 522q-2 79 -21.5 148.5t-55 121t-86.5 81.5t-116 30q-66 0 -118 -31t-87.5 -85t-54.5 -126.5t-19 -154.5t19 -154t54.5 -125.5t87.5 -84.5t118 -31q67 0 119 31t87.5 84.5t54 125.5t18.5 154v16zM983 0h-149v154q-53 -88 -129 -132.5t-156 -44.5q-104 0 -183 41.5
t-132.5 113t-81 168t-27.5 206.5t26.5 206.5t79.5 168.5t131.5 113.5t182.5 41.5q37 0 76.5 -12.5t77.5 -34.5t73 -52.5t62 -66.5v555h149v-1425z" />
    <glyph glyph-name="e" unicode="e" horiz-adv-x="1133" 
d="M285 481q1 -71 25 -138t65.5 -118.5t97.5 -82.5t121 -31q220 0 291 204h137q-17 -80 -58 -142.5t-98.5 -105t-127 -65t-144.5 -22.5q-107 0 -193.5 44t-147 118.5t-93.5 173t-33 208.5q0 102 32.5 195t93 163.5t146.5 112t193 41.5q103 0 186.5 -37.5t142 -103.5t90 -157
t31.5 -197v-60h-757zM887 598q-2 64 -23.5 120t-61 97t-95 64.5t-125.5 23.5q-63 0 -116.5 -25t-93.5 -67.5t-63 -97.5t-24 -115h602z" />
    <glyph glyph-name="f" unicode="f" horiz-adv-x="680" 
d="M252 1018v250q0 43 15 79t43 62.5t68 41.5t91 15q26 0 61 -10t66 -29v-118q-25 11 -46 16.5t-32 5.5q-51 0 -83 -22t-32 -70v-221h179v-133h-179v-885h-151v885h-174v133h174z" />
    <glyph glyph-name="g" unicode="g" horiz-adv-x="1100" 
d="M1010 -25q0 -105 -36 -185t-96 -134t-137.5 -81.5t-160.5 -27.5q-72 0 -135 18t-116 56t-94 96.5t-69 139.5h151q42 -93 106 -134.5t157 -41.5q57 0 107.5 21.5t88.5 59.5t60 90.5t22 114.5v178q-53 -83 -128.5 -125.5t-154.5 -42.5q-104 0 -186.5 42t-141 114.5
t-89.5 169.5t-31 207t31 206t88 167t137 112t178 41q34 0 72.5 -7.5t77.5 -26t76.5 -50.5t70.5 -80v146h152v-1043zM858 522q-2 79 -21 148.5t-54 121t-86 81.5t-115 30q-66 0 -122 -30.5t-97 -84t-64 -125t-23 -153.5t23 -154.5t64 -127t97 -86t122 -31.5t117.5 31
t86.5 84.5t53.5 125.5t18.5 154v16z" />
    <glyph glyph-name="h" unicode="h" horiz-adv-x="1032" 
d="M276 1425v-551q31 46 69 77t80.5 50t89 27t95.5 8q73 0 134 -23t105 -64t68.5 -97t24.5 -121v-731h-149v705q0 54 -18 91.5t-48.5 61t-70 34.5t-81.5 11q-53 0 -106.5 -22t-96 -60.5t-69.5 -90.5t-27 -112v-618h-151v1425h151z" />
    <glyph glyph-name="i" unicode="i" horiz-adv-x="434" 
d="M313 1425v-176h-149v176h149zM313 1018v-1018h-149v1018h149z" />
    <glyph glyph-name="j" unicode="j" horiz-adv-x="352" 
d="M272 1425v-176h-151v176h151zM272 1018v-1206q0 -64 -17.5 -112t-49 -80t-74 -48t-92.5 -16q-20 0 -41 3.5t-41 14.5v131q23 -11 34.5 -13.5t20.5 -2.5q29 0 50 12t34 32.5t19 48t6 58.5v1178h151z" />
    <glyph glyph-name="k" unicode="k" horiz-adv-x="1032" 
d="M569 643l381 -643h-176l-311 535l-187 -187v-348h-151v1425h151v-878l482 471h184z" />
    <glyph glyph-name="l" unicode="l" horiz-adv-x="434" 
d="M313 1425v-1425h-149v1425h149z" />
    <glyph glyph-name="m" unicode="m" horiz-adv-x="1616" 
d="M129 1018h150v-160q32 48 71.5 81.5t81.5 55t84.5 31.5t81.5 10q38 0 74.5 -10t70.5 -32t65.5 -57.5t59.5 -86.5q29 50 68 85.5t83 58.5t90 33.5t89 10.5q70 0 128.5 -23.5t101 -65t66.5 -98t24 -122.5v-729h-150v686q0 64 -18 105.5t-47 66.5t-64.5 35t-71.5 10
q-47 0 -94.5 -21t-85.5 -58t-62 -87.5t-24 -109.5v-627h-149v686q0 64 -18.5 105.5t-46.5 66.5t-61.5 35t-64.5 10q-59 0 -110.5 -27.5t-89.5 -70t-60 -93t-22 -96.5v-616h-150v1018z" />
    <glyph glyph-name="n" unicode="n" horiz-adv-x="1030" 
d="M125 1018h151v-154q79 91 171 131.5t188 40.5q72 0 128.5 -21t96 -60.5t60 -96t20.5 -127.5v-731h-149v713q0 52 -12.5 88.5t-36.5 59t-58.5 32.5t-77.5 10q-69 0 -129 -24.5t-105 -65t-70.5 -93t-25.5 -108.5v-612h-151v1018z" />
    <glyph glyph-name="o" unicode="o" horiz-adv-x="1143" 
d="M127 508q0 109 30.5 205t89 168t144.5 113.5t197 41.5t198 -41.5t146 -113.5t90 -168t31 -205t-31 -205t-90 -167t-146 -112.5t-198 -41.5t-197 41.5t-144.5 112.5t-89 167t-30.5 205zM276 508q0 -81 21.5 -153t62 -125t98.5 -84t130 -31t130 31t98.5 84t62.5 125t22 153
t-22 153t-62.5 126t-98.5 85t-130 31t-130 -31t-98.5 -85t-62 -126t-21.5 -153z" />
    <glyph glyph-name="p" unicode="p" horiz-adv-x="1106" 
d="M127 1018h149v-154q26 42 62 75t76.5 55.5t83 34t82.5 11.5q103 0 184.5 -41.5t137 -113t85 -167.5t29.5 -206t-28.5 -206.5t-84 -168.5t-136 -113.5t-183.5 -41.5q-39 0 -82 11t-84 32.5t-77.5 54t-64.5 74.5v-572h-149v1436zM276 496q2 -79 24.5 -148.5t61.5 -121
t92.5 -81.5t118.5 -30q66 0 120 31t92 85t58.5 126.5t20.5 154.5t-20.5 154t-58.5 125.5t-92 84.5t-120 31t-120.5 -31t-94 -84.5t-61 -125.5t-21.5 -154v-16z" />
    <glyph glyph-name="q" unicode="q" horiz-adv-x="1106" 
d="M864 512q0 82 -21.5 154t-60.5 125.5t-93.5 84.5t-121.5 31q-66 0 -119.5 -31t-92 -84.5t-59 -125.5t-20.5 -154t20.5 -154.5t59 -126.5t92 -85t119.5 -31q65 0 119 30t93 81.5t61 121t24 148.5v16zM1016 -418h-152v572q-27 -42 -64 -74.5t-77.5 -54t-83.5 -32.5t-82 -11
q-104 0 -184 41.5t-134.5 113.5t-83 168.5t-28.5 206.5t29 206t84.5 167.5t136 113t184.5 41.5q40 0 82.5 -11.5t83 -34t76 -55.5t61.5 -75v154h152v-1436z" />
    <glyph glyph-name="r" unicode="r" horiz-adv-x="635" 
d="M125 1018h149l-6 -156q47 85 111.5 129.5t150.5 44.5q16 0 35.5 -3t34.5 -9v-154q-48 17 -74 17q-60 0 -106.5 -22.5t-79 -60t-49.5 -87t-17 -103.5v-614h-149v1018z" />
    <glyph glyph-name="s" unicode="s" horiz-adv-x="1010" 
d="M281 315q1 -56 19.5 -95t49.5 -63t73.5 -35t92.5 -11q41 0 85.5 7.5t82 25.5t62 49t24.5 79q0 43 -26 74t-69 54.5t-97.5 42t-111.5 39t-111.5 44.5t-97.5 57.5t-69 79t-26 109.5q0 67 29.5 117t78.5 82.5t113 48.5t133 16q78 0 145.5 -16.5t117.5 -50.5t79.5 -86.5
t32.5 -124.5q-19 0 -42 1t-38 1h-72q-5 41 -24.5 68.5t-49 44t-68 23.5t-81.5 7q-99 0 -151 -36.5t-52 -96.5q0 -40 26 -69.5t69 -52.5t97.5 -43t112 -40.5t112 -44.5t97.5 -56t69 -74.5t26 -100.5q0 -83 -33 -141.5t-88.5 -96t-129.5 -54.5t-155 -17q-78 0 -148 20.5
t-123 62.5t-85 105t-35 147h156z" />
    <glyph glyph-name="t" unicode="t" horiz-adv-x="623" 
d="M356 1321v-303h158v-129h-158v-660q0 -34 8.5 -56.5t23.5 -36t35.5 -19.5t45.5 -6q15 0 31.5 1.5t38.5 6.5v-123q-28 -8 -61.5 -12t-67.5 -4q-41 0 -78 10.5t-65.5 34t-45 60.5t-16.5 91v713h-158v129h158v303h151z" />
    <glyph glyph-name="u" unicode="u" horiz-adv-x="1030" 
d="M940 18h-149v154q-79 -91 -171.5 -131.5t-189.5 -40.5q-71 0 -127.5 21t-96 61t-60.5 96t-21 127v731h151v-712q0 -53 12.5 -89t36.5 -59t58.5 -33t77.5 -10q68 0 128 24.5t105 65t71 93t26 108.5v612h149v-1018z" />
    <glyph glyph-name="v" unicode="v" horiz-adv-x="922" 
d="M453 178l301 840h159l-374 -1018h-164l-377 1018h162z" />
    <glyph glyph-name="w" unicode="w" horiz-adv-x="1391" 
d="M688 848l-235 -848h-158l-293 1018h154l219 -832l229 832h168l223 -832l226 832h153l-291 -1018h-159z" />
    <glyph glyph-name="x" unicode="x" horiz-adv-x="926" 
d="M549 508l352 -508h-182l-260 377l-262 -377h-183l355 508l-353 510h181l262 -377l260 377h182z" />
    <glyph glyph-name="y" unicode="y" horiz-adv-x="905" 
d="M451 188l286 830h158l-438 -1243q-21 -60 -49 -101.5t-59 -68t-63.5 -38t-62.5 -11.5q-28 0 -54.5 3.5t-55.5 14.5v131q15 -6 40 -13t50 -7q27 0 47.5 16.5t36.5 40.5t27 50.5t18 47.5l47 148l-381 1030h164z" />
    <glyph glyph-name="z" unicode="z" horiz-adv-x="1030" 
d="M940 1018v-144l-618 -737h618v-137h-815v131l610 741h-610v146h815z" />
    <glyph glyph-name="braceleft" unicode="{" horiz-adv-x="621" 
d="M457 844q0 -34 -13 -68.5t-36 -64t-55 -50.5t-70 -28q37 -9 68.5 -30t55 -49.5t37 -62t13.5 -65.5v-504q0 -49 31.5 -70.5t82.5 -21.5q11 0 32 5.5t46 14.5v-116q-31 -19 -66.5 -29t-60.5 -10q-51 0 -91 15t-68 41.5t-43 63t-15 79.5v475q0 29 -4.5 63.5t-19 64.5t-41 50
t-70.5 20h-45v133h45q44 0 70.5 20.5t41 50.5t19 64.5t4.5 63.5v477q0 42 15 78.5t43 63.5t68 42t91 15q25 0 60.5 -10t66.5 -29v-119q-25 11 -46 17t-32 6q-51 0 -82.5 -22t-31.5 -70v-504v0z" />
    <glyph glyph-name="bar" unicode="|" horiz-adv-x="371" 
d="M250 1624v-1905h-121v1905h121z" />
    <glyph glyph-name="braceright" unicode="}" horiz-adv-x="584" 
d="M168 426q0 32 13 65.5t36 62t54.5 49.5t68.5 30q-38 7 -69.5 28t-54 50.5t-35.5 64t-13 68.5v504q0 48 -32 70t-83 22q-11 0 -32 -6t-46 -17v119q31 19 66 29t61 10q51 0 91.5 -15t68 -42t42.5 -63.5t15 -78.5v-477q0 -29 5 -63.5t19.5 -64.5t41 -50.5t70.5 -20.5h45
v-133h-45q-44 0 -70.5 -20t-41 -50t-19.5 -64.5t-5 -63.5v-475q0 -43 -15 -79.5t-42.5 -63t-68 -41.5t-91.5 -15q-26 0 -61 10t-66 29v116q25 -9 46 -14.5t32 -5.5q51 0 83 21.5t32 70.5v504v0z" />
    <glyph glyph-name="asciitilde" unicode="~" horiz-adv-x="1266" 
d="M1198 831q-3 -101 -28 -180t-68 -133.5t-101.5 -83t-128.5 -28.5q-53 0 -92 15t-69 39t-53.5 54.5t-45.5 60.5q-21 33 -43 63t-47.5 53t-56.5 36.5t-70 13.5q-57 0 -97.5 -29.5t-67 -74.5t-40 -98t-14.5 -101h-115q2 85 23.5 163.5t63 138.5t103.5 96t144 36
q67 0 116 -18t85.5 -46.5t64 -64.5t52.5 -71q21 -30 40 -54.5t39 -42t43 -27t52 -9.5q37 0 71 22t60.5 61t43 92.5t19.5 116.5h117z" />
    <glyph glyph-name="NBSPACE" unicode="&#xa0;" horiz-adv-x="825" 
 />
    <glyph glyph-name="copyright" unicode="&#xa9;" horiz-adv-x="1579" 
d="M129 659q0 140 53 263t145 215t215 145t263 53t263 -53t215 -145t145 -215t53 -263q0 -94 -24 -180.5t-68 -161.5t-106 -137t-137 -106t-161.5 -68t-179.5 -24t-179.5 24t-161.5 68t-137 106t-106 137t-68 162t-24 180zM223 659q0 -120 45.5 -226.5t124.5 -185.5
t185 -125t227 -46q120 0 226 46t185 125t124.5 185.5t45.5 226.5t-45.5 226t-124.5 185t-185 125t-226 46q-121 0 -227 -46t-185 -125t-124.5 -185t-45.5 -226zM555 657q0 -68 16 -123t48 -94t81 -60.5t115 -21.5q75 0 127 40t84 106l88 -31q-20 -45 -48.5 -83.5t-66 -66.5
t-83.5 -43.5t-101 -15.5q-85 0 -151.5 28.5t-112 80.5t-69 124.5t-23.5 159.5t23.5 159t69 124t112 80.5t151.5 28.5q55 0 101 -15.5t83.5 -43t66 -66t48.5 -84.5l-88 -31q-32 66 -84 105.5t-127 39.5q-66 0 -115 -22t-81 -61.5t-48 -94t-16 -119.5z" />
    <glyph glyph-name="onequarter" unicode="&#xbc;" horiz-adv-x="1675" 
d="M420 618v627q-23 -37 -53 -61t-66.5 -38.5t-79.5 -20t-92 -5.5v103q75 0 128.5 25t89 60.5t53.5 74t22 65.5h133v-830h-135zM686 -39h-139l469 1487h135zM1315 0v195h-381v129l387 493h129v-512h127v-110h-127v-195h-135zM1069 305h246v320z" />
    <glyph glyph-name="onehalf" unicode="&#xbd;" horiz-adv-x="1665" 
d="M621 -39h-140l471 1487h135zM963 516q0 72 20 129t59.5 97t97.5 61.5t134 21.5q70 0 124.5 -21.5t92 -57.5t57 -82.5t19.5 -96.5q0 -40 -13.5 -72.5t-35.5 -60t-50.5 -50t-58.5 -42.5q-19 -14 -48 -29l-58 -30q-15 -9 -34 -18.5t-38.5 -20.5t-38.5 -23.5t-35 -25.5
q-17 -13 -28 -26t-19 -30h457v-139h-639q8 90 36.5 152.5t76 110t113.5 85.5t149 80q21 11 40 27.5t33.5 36t22.5 41.5t8 45q0 34 -11.5 56t-31.5 35.5t-47.5 19t-59.5 5.5q-81 0 -121 -49.5t-40 -128.5h-133zM420 618v627q-23 -37 -53 -61t-66.5 -38.5t-79.5 -20t-92 -5.5
v103q75 0 128.5 25t89 60.5t53.5 74t22 65.5h133v-830h-135z" />
    <glyph glyph-name="threequarters" unicode="&#xbe;" horiz-adv-x="1686" 
d="M158 1178q7 63 26.5 113t55.5 85t89 53.5t126 18.5q63 0 114.5 -16t87.5 -45.5t56 -70.5t20 -91q0 -60 -27.5 -101.5t-76.5 -66.5q28 -12 54 -29t46 -41.5t31.5 -57.5t11.5 -75q0 -61 -25.5 -107t-68.5 -77.5t-101 -47.5t-122 -16q-81 0 -137.5 18.5t-95 54.5t-61 89
t-34.5 123h147q9 -48 24.5 -78t38 -47t52.5 -23t68 -6q34 0 64.5 6.5t53.5 20.5t36.5 36t13.5 54q0 59 -45 95t-123 36h-84v123h82q36 0 61 9.5t40.5 25.5t22.5 36t7 40q0 52 -36.5 74t-96.5 22q-76 0 -110.5 -36t-45.5 -101h-139zM727 -39h-139l471 1487h135zM1325 0v195
h-381v129l387 493h129v-512h127v-110h-127v-195h-135zM1079 305h246v320z" />
    <glyph glyph-name="km_ka" unicode="&#x1780;" horiz-adv-x="1229" 
d="M307 0h-143v483q0 110 39.5 199t111.5 147l-215 203v80l320 219l180 -168l242 168l166 -155l69 49v-84l-127 -86l-137 129l-244 -168l-180 168l-151 -105l194 -184q37 12 77 19.5t85 7.5q97 0 176 -33t135.5 -91.5t87.5 -139t31 -175.5v-483h-143v512q0 57 -18.5 109
t-54.5 91.5t-90 63t-124 23.5q-71 0 -124.5 -23.5t-89.5 -63t-54.5 -91.5t-18.5 -109v-512z" />
    <glyph glyph-name="km_kha" unicode="&#x1781;" horiz-adv-x="1229" 
d="M164 299q0 74 31 127t81 92t114.5 68t132 55.5t132 54t114.5 64.5t81 87t31 120q0 51 -20 95t-57.5 76.5t-90.5 51t-119 18.5q-71 0 -124.5 -22t-89.5 -60t-54.5 -89t-18.5 -109v-174q18 2 36 9.5t32 18.5t22.5 23.5t8.5 25.5q0 12 -4 19t-10 10t-13 3.5t-12 0.5h-23v123
h62q22 0 42.5 -8.5t36 -24.5t24.5 -39.5t9 -54.5q0 -59 -29 -104.5t-71.5 -76.5t-91 -47t-86.5 -16h-76v314q0 90 33.5 164t92.5 126.5t139.5 81.5t174.5 29t171.5 -28t133 -77.5t85.5 -116t30 -142.5q0 -85 -31 -146t-81 -106t-114.5 -78t-132 -60t-132 -53.5t-114.5 -58.5
t-81 -74.5t-31 -101.5q0 -31 13 -64t43 -60.5t80.5 -45t125.5 -17.5t133.5 22.5t98 61t60 90.5t20.5 111v74l143 98v-178q0 -91 -33.5 -165t-93.5 -126.5t-143.5 -81t-184.5 -28.5t-176.5 23.5t-126.5 66t-76.5 101t-25.5 128.5z" />
    <glyph glyph-name="km_ko" unicode="&#x1782;" horiz-adv-x="1229" 
d="M307 207q11 27 33.5 69t56.5 82t77.5 68.5t96.5 28.5q35 0 54 -6.5t30 -12.5v-139q-12 6 -27 11t-38 5q-43 0 -79 -19t-65.5 -48.5t-53 -66t-40.5 -71.5t-28 -64t-17 -44h-143v483q0 110 39.5 199t111.5 147l-215 203v80l320 219l180 -168l242 168l166 -155l69 49v-84
l-127 -86l-137 129l-244 -168l-180 168l-151 -105l194 -184q37 12 77 19.5t85 7.5q97 0 176 -33t135.5 -91.5t87.5 -139t31 -175.5v-483h-143v512q0 57 -18.5 109t-54.5 91.5t-90 63t-124 23.5q-71 0 -124.5 -23.5t-89.5 -63t-54.5 -91.5t-18.5 -109v-305z" />
    <glyph glyph-name="km_kho" unicode="&#x1783;" horiz-adv-x="1946" 
d="M1597 819l-227 213v80l313 219l166 -155l70 49v-84l-127 -86l-137 129l-150 -105l236 -219v-442q0 -95 -31 -175.5t-87.5 -139t-135.5 -91t-176 -32.5q-121 0 -212 48.5t-147 133.5q-55 -85 -147 -133.5t-211 -48.5q-97 0 -176 32.5t-135.5 91t-87.5 139t-31 175.5v756
q-25 -13 -46.5 -32.5t-37.5 -43t-25.5 -49.5t-9.5 -52q0 -21 9.5 -32t23 -16t27 -6t22.5 -1v-123h-43q-26 0 -53 9.5t-49 28t-36 47t-14 67.5q0 67 30 128.5t76 108.5t102 75t108 28h59v-922q0 -57 18.5 -108.5t54.5 -91.5t89.5 -63.5t124.5 -23.5q70 0 124 23.5t90 63.5
t54.5 91.5t18.5 108.5v430l-228 213v80l314 219l166 -155l69 49v-84l-127 -86l-137 129l-150 -105l236 -219v-471q0 -57 18.5 -108.5t54.5 -91.5t89.5 -63.5t124.5 -23.5q70 0 123.5 23.5t89.5 63.5t54.5 91.5t18.5 108.5v430z" />
    <glyph glyph-name="km_ngo" unicode="&#x1784;" horiz-adv-x="1229" 
d="M1024 0h-143l-287 256l-287 -256h-143v633q-56 -25 -87.5 -61t-31.5 -89q0 -21 9.5 -32t23 -16t27 -6t22.5 -1v-123h-43q-26 0 -53 9.5t-49 28t-36 47t-14 67.5q0 44 15 84.5t40.5 75t58 62t67.5 47t70 30t65 10.5h59v-586l289 246l285 -246v617q-70 20 -125.5 42.5
t-100.5 45.5q-60 -26 -124 -40t-119 -14q-81 0 -130 26t-75.5 68t-34.5 95.5t-8 109.5q0 45 -1.5 82.5t-9 63.5t-25 40.5t-48.5 14.5v103q56 0 98.5 -10.5t71 -38.5t43 -76t14.5 -123q0 -47 2 -88.5t14 -73t38.5 -50t74.5 -18.5q43 0 94 15q-40 38 -56.5 79.5t-16.5 88.5
q0 55 21 92t52.5 59t68 31.5t67.5 9.5q62 0 103.5 -20t66 -49.5t35 -62t10.5 -56.5q0 -59 -31 -108t-82 -87q99 -39 256 -76v-872zM758 1133q0 12 -4.5 25t-15 24.5t-28 18.5t-44.5 7q-34 0 -60 -18t-26 -60q0 -30 16 -59t51 -57q47 25 79 54.5t32 64.5z" />
    <glyph glyph-name="km_ca" unicode="&#x1785;" horiz-adv-x="1229" 
d="M375 1184l-152 -105l84 -80v-610q0 -57 18.5 -108.5t54.5 -91.5t89.5 -63.5t124.5 -23.5q70 0 124 23.5t90 63.5t54.5 91.5t18.5 108.5v399q-56 -24 -87.5 -60t-31.5 -89q0 -21 9.5 -32t23 -16t27 -6t22.5 -1v-123h-43q-26 0 -53 9t-49 28t-36 47.5t-14 66.5q0 45 15 85
t40.5 74.5t58 62.5t67.5 47.5t70 30t65 10.5h59v-504q0 -95 -31 -175.5t-87.5 -139t-135.5 -91t-176 -32.5t-176 32.5t-135.5 91t-87.5 139t-31 175.5v543l-78 71v80l320 219l180 -168l241 168l166 -155l70 49v-84l-127 -86l-137 129l-244 -168z" />
    <glyph glyph-name="km_cha" unicode="&#x1786;" horiz-adv-x="1229" 
d="M375 1184l-152 -105l84 -80v-530q38 -26 72 -63.5t66 -78t63 -81t64.5 -72.5t69.5 -52t79 -20q46 0 77 20.5t49.5 51t26 67.5t7.5 70v477q-56 -24 -87.5 -60t-31.5 -89q0 -21 9.5 -32t23 -16t27 -6t22.5 -1v-123h-43q-26 0 -53 9t-49 28t-36 47.5t-14 66.5q0 45 15 85
t40.5 74.5t58 62.5t67.5 47.5t70 30t65 10.5h59v-611q0 -78 -23 -139.5t-63.5 -104t-96 -65t-120.5 -22.5q-57 0 -102.5 16t-82.5 42.5t-67.5 61t-58 71t-52.5 72.5t-51 66v-309h-59q-45 0 -94.5 21.5t-91 61.5t-68.5 96t-27 124q0 40 12 76.5t36 65t61 46t88 19.5v451
l-78 71v80l320 219l180 -168l241 168l166 -155l70 49v-84l-127 -86l-137 129l-244 -168zM80 295q0 -9 1.5 -25t9 -36t24.5 -43t49 -48v246q-34 0 -59 -24.5t-25 -69.5z" />
    <glyph glyph-name="km_co" unicode="&#x1787;" horiz-adv-x="1229" 
d="M377 1184l-154 -107l84 -78v-819l289 246l285 -246v617h143v-797h-143l-287 256l-287 -256h-143v958l-74 72v80l320 221l274 -289q66 0 109.5 16t70 42.5t37 61.5t10.5 73q0 14 -3.5 30.5t-12.5 31t-25.5 24.5t-42.5 10v103q60 0 103 -15.5t71 -43t41 -65t13 -81.5
q0 -55 -18.5 -110t-67 -99.5t-133 -72t-215.5 -27.5z" />
    <glyph glyph-name="km_cho" unicode="&#x1788;" horiz-adv-x="2662" 
d="M1024 389q0 -57 18.5 -108.5t54.5 -91.5t89.5 -63.5t124.5 -23.5q70 0 123.5 23.5t89.5 63.5t54.5 91.5t18.5 108.5v430l-227 213v80l313 219l166 -155l70 49v-84l-127 -86l-137 129l-150 -105l236 -219v-471q0 -57 18.5 -108.5t54.5 -91.5t89.5 -63.5t124.5 -23.5
q70 0 123.5 23.5t89.5 63.5t54.5 91.5t18.5 108.5v430l-227 213v80l313 219l166 -155l70 49v-84l-127 -86l-137 129l-150 -105l236 -219v-442q0 -95 -31 -175.5t-87.5 -139t-135.5 -91t-176 -32.5q-121 0 -212 48.5t-147 133.5q-56 -85 -148 -133.5t-210 -48.5
q-97 0 -176 32.5t-135.5 91t-87.5 139t-31 175.5v504q0 57 -18.5 108.5t-54.5 91t-90 63t-124 23.5q-71 0 -124.5 -23.5t-89.5 -63t-54.5 -91t-18.5 -108.5v-789q56 25 87.5 61t31.5 89q0 21 -9.5 32t-23 16t-27 6t-22.5 1v123h43q26 0 53 -9.5t49 -28t36 -47t14 -67.5
q0 -45 -15 -85t-40.5 -74.5t-58 -62t-67.5 -47t-70 -30t-65 -10.5h-59v893q0 95 31 175.5t87.5 139t135.5 91t176 32.5t176 -32.5t135.5 -91t87.5 -139t31 -175.5v-504z" />
    <glyph glyph-name="km_nyo" unicode="&#x1789;" horiz-adv-x="1946" 
d="M1024 1147l289 184l428 -287v-1044h-144v975l-315 205l-258 -160v-1020h-143v1108l-82 76l-244 -168l-180 168l-152 -105l84 -80v-866q56 25 87.5 61t31.5 89q0 21 -9.5 32t-23 16t-27 6t-22.5 1v123h43q26 0 53 -9.5t49 -28t36 -47t14 -67.5q0 -45 -15 -85t-40.5 -74.5
t-58 -62t-67.5 -47t-70 -30t-65 -10.5h-59v961l-78 71v80l320 219l180 -168l241 168zM1384 -600q-95 0 -178 27.5t-158.5 68.5t-144.5 88.5t-135 88.5t-131 68.5t-131 27.5q-39 0 -76.5 -14.5t-72 -36t-64 -46.5t-51.5 -45l-78 86q24 21 60.5 47t82.5 49t101.5 38.5
t117.5 15.5q80 0 159 -28t155.5 -69.5t151 -90t146 -90t140.5 -69.5t135 -28q52 0 87.5 13.5t57 35t30.5 48.5t9 53q0 18 -2.5 36.5t-11 34t-24.5 27t-43 16.5v111q60 0 102.5 -15t69.5 -42t40 -64t13 -80q0 -51 -22 -98.5t-66 -84t-111 -58t-158 -21.5z" />
    <glyph glyph-name="km_da" unicode="&#x178a;" horiz-adv-x="1229" 
d="M598 967q72 0 125.5 17t88.5 44.5t52 62.5t17 72q0 63 -37.5 94.5t-100.5 42.5l29 93q63 -6 110 -28t78.5 -54t47.5 -70t16 -76q0 -72 -31.5 -131t-88.5 -101.5t-135.5 -65.5t-172.5 -23q-48 0 -98 6.5t-98 20.5t-91 35.5t-75 50.5t-51 66.5t-19 84.5q0 35 13.5 62
t35.5 45.5t50 28t56 9.5q48 0 96 -17.5t111 -61.5l-43 -72q-19 12 -39 23q-17 9 -38.5 16.5t-43.5 7.5q-27 0 -41 -14.5t-14 -34.5q0 -34 26 -59t67.5 -41.5t93.5 -24.5t104 -8zM881 784h143v-784h-143l-287 256l-287 -256h-143v784h143v-604l289 246l285 -246v604z" />
    <glyph glyph-name="km_ttha" unicode="&#x178b;" horiz-adv-x="1229" 
d="M881 766l-228 213v80l219 219q5 -14 13 -33t20 -36.5t29.5 -29.5t40.5 -12q11 0 24 6.5t24 21t18.5 37.5t7.5 56q0 25 -6.5 51t-19 47t-32 34.5t-45.5 13.5v102q59 0 99 -27t64 -66.5t34 -84t10 -78.5q0 -54 -14 -98t-37.5 -74.5t-53.5 -47t-61 -16.5q-32 0 -54.5 9.5
t-37 21.5t-21.5 23t-8 14l-78 -86l236 -219v-389q0 -95 -31 -175.5t-87.5 -139t-135.5 -91t-176 -32.5t-176 32.5t-135.5 91t-87.5 139t-31 175.5v760q-56 -25 -87.5 -61t-31.5 -89q0 -21 9.5 -32t23 -16t27 -6t22.5 -1v-123h-43q-26 0 -53 9t-49 28t-36 47.5t-14 66.5
q0 45 15 85t40.5 74.5t58 62.5t67.5 47.5t70 30t65 10.5h59v-922q0 -57 18.5 -108.5t54.5 -91.5t89.5 -63.5t124.5 -23.5q70 0 124 23.5t90 63.5t54.5 91.5t18.5 108.5v377z" />
    <glyph glyph-name="km_do" unicode="&#x178c;" horiz-adv-x="1229" 
d="M1024 614v-512q0 -92 -47 -144t-125 -52h-35v123q18 2 32 15q12 11 22 36t10 72v94q-39 -59 -86 -107.5t-99 -84t-109 -55t-116 -19.5q-76 0 -133.5 20.5t-96 57t-58 87t-19.5 109.5q0 74 31 129t81 97t114.5 75t132 63.5t132 62.5t114.5 72t81 92t31 122v129l-70 88
l-223 -168l-160 168l-121 -99v-331q18 2 36 9.5t32 18.5t22.5 23.5t8.5 25.5q0 12 -4 19t-10 10t-13 3.5t-12 0.5h-23v123h62q22 0 42.5 -8.5t36 -24.5t24.5 -39.5t9 -54.5q0 -59 -29 -104.5t-71.5 -76.5t-91 -47t-86.5 -16h-76v494l295 221l159 -168l222 168l184 -192v-172
q0 -85 -31 -148t-81 -110.5t-114.5 -83.5t-132 -67.5t-132 -61t-114.5 -64.5t-81 -79t-31 -103q0 -21 7.5 -47t26.5 -48.5t51.5 -37.5t82.5 -15t97 20.5t89 54t78.5 77t64.5 89.5t48 91t29 82z" />
    <glyph glyph-name="km_ttho" unicode="&#x178d;" horiz-adv-x="1946" 
d="M1741 311q0 -78 -23 -139.5t-63.5 -104t-96 -65t-120.5 -22.5q-57 0 -102.5 16t-83 42.5t-68 61t-57.5 71t-52 72.5t-51 66v-309h-59q-45 0 -94.5 21.5t-91 61.5t-68.5 96t-27 124q0 40 11.5 76.5t36 65t61.5 46t88 19.5v598l-82 76l-244 -168l-180 168l-152 -105l84 -80
v-866q56 25 87.5 61t31.5 89q0 21 -9.5 32t-23 16t-27 6t-22.5 1v123h43q26 0 53 -9.5t49 -28t36 -47t14 -67.5q0 -45 -15 -85t-40.5 -74.5t-58 -62t-67.5 -47t-70 -30t-65 -10.5h-59v961l-78 71v80l320 219l180 -168l241 168l197 -184v-678q38 -26 72 -63.5t66 -78t63 -81
t64.5 -72.5t69.5 -52t79 -20q46 0 76.5 20.5t49 51t26 67.5t7.5 70v508l-227 213v80l313 219l166 -155l70 49v-84l-127 -86l-137 129l-150 -105l236 -219v-549zM797 295q0 -9 1.5 -25t9 -36t24.5 -43t49 -48v246q-34 0 -59 -24.5t-25 -69.5z" />
    <glyph glyph-name="km_nna" unicode="&#x178e;" horiz-adv-x="2662" 
d="M307 133q56 25 87.5 61t31.5 89q0 21 -9.5 32t-23 16t-27 6t-22.5 1v123h43q26 0 53 -9.5t49 -28t36 -47t14 -67.5q0 -45 -15 -85t-40.5 -74.5t-58 -62t-67.5 -47t-70 -30t-65 -10.5h-59v893q0 95 31 175.5t87.5 139t135.5 91t176 32.5t176 -32.5t135.5 -91t87.5 -139
t31 -175.5v-713l289 246l284 -246v713q0 95 31 175.5t87.5 139t136 91t176.5 32.5t176 -32.5t135.5 -91t87.5 -139t31 -175.5v-893h-144v922q0 57 -18.5 108.5t-54.5 91t-89.5 63t-123.5 23.5q-71 0 -124.5 -23.5t-89.5 -63t-54.5 -91t-18.5 -108.5v-922h-144l-286 256
l-287 -256h-143v922q0 57 -18.5 108.5t-54.5 91t-90 63t-124 23.5q-71 0 -124.5 -23.5t-89.5 -63t-54.5 -91t-18.5 -108.5v-789z" />
    <glyph glyph-name="km_ta" unicode="&#x178f;" horiz-adv-x="1229" 
d="M307 133q56 25 87.5 61t31.5 89q0 21 -9.5 32t-23 16t-27 6t-22.5 1v123h43q26 0 53 -9.5t49 -28t36 -47t14 -67.5q0 -45 -15 -85t-40.5 -74.5t-58 -62t-67.5 -47t-70 -30t-65 -10.5h-59v483q0 110 39.5 199t111.5 147l-215 203v80l320 219l180 -168l242 168l166 -155
l69 49v-84l-127 -86l-137 129l-244 -168l-180 168l-151 -105l194 -184q37 12 77 19.5t85 7.5q97 0 176 -33t135.5 -91.5t87.5 -139t31 -175.5v-483h-143v512q0 57 -18.5 109t-54.5 91.5t-90 63t-124 23.5q-71 0 -124.5 -23.5t-89.5 -63t-54.5 -91.5t-18.5 -109v-379z" />
    <glyph glyph-name="km_tha" unicode="&#x1790;" horiz-adv-x="1229" 
d="M307 999v-610q0 -57 18.5 -108.5t54.5 -91.5t89.5 -63.5t124.5 -23.5q70 0 124 23.5t90 63.5t54.5 91.5t18.5 108.5v318q-56 -25 -87.5 -61t-31.5 -89q0 -21 9.5 -32t23 -16t27 -6t22.5 -1v-123h-43q-26 0 -53 9t-49 28t-36 47.5t-14 66.5q0 45 15 85t40.5 74.5t58 62.5
t67.5 47.5t70 30t65 10.5h59v-422q0 -95 -31 -175.5t-87.5 -139t-135.5 -91t-176 -32.5t-176 32.5t-135.5 91t-87.5 139t-31 175.5v540l-74 72v80l320 221l274 -289q66 0 109.5 16t70 42.5t37 61.5t10.5 73q0 14 -3.5 30.5t-12.5 31t-25.5 24.5t-42.5 10v103q60 0 103 -15.5
t71 -43t41 -65t13 -81.5q0 -55 -18.5 -110t-67 -99.5t-133 -72t-215.5 -27.5l-244 264l-154 -107z" />
    <glyph glyph-name="km_to" unicode="&#x1791;" horiz-adv-x="1274" 
d="M881 672q-24 0 -39.5 -6t-24.5 -15.5t-12.5 -22.5t-3.5 -28h110q45 0 45 33q0 17 -16 28t-59 11zM307 907q0 -82 31 -140.5t80 -95.5t108 -54t115 -17h16q5 98 65.5 144.5t158.5 46.5q44 0 79 -13t59 -34.5t37 -49t13 -55.5q0 -45 -14 -75.5t-38 -50t-56.5 -28
t-69.5 -8.5h-90v-219q0 -59 -11.5 -109.5t-39.5 -88t-75.5 -59t-119.5 -21.5q-51 0 -96 12t-78.5 38t-53.5 67t-20 100v155h144v-137q0 -34 10 -56t25 -34.5t33.5 -17.5t35.5 -5q33 0 53 13.5t31 35t14.5 48.5t3.5 53v225h-16q-87 0 -172 26t-153 80.5t-110 138.5t-42 200
q0 91 39 166.5t105 129.5t153 83.5t184 29.5t168 -21.5t118 -57.5t70 -83t23 -98q0 -93 -59 -141.5t-164 -48.5v90q9 0 22.5 4.5t26.5 15t22 29t9 47.5q0 20 -9.5 44.5t-32.5 46t-62.5 36t-100.5 14.5q-90 0 -159 -25t-115.5 -67t-70.5 -96.5t-24 -112.5z" />
    <glyph glyph-name="km_tho" unicode="&#x1792;" horiz-adv-x="1229" 
d="M375 1184l-152 -105l84 -80v-819l289 246l285 -246v592q-56 -25 -87.5 -61t-31.5 -88q0 -21 9.5 -32.5t23 -16.5t27 -6t22.5 -1v-123h-43q-26 0 -53 9.5t-49 28.5t-36 47.5t-14 66.5q0 44 15 84.5t40.5 75t58 62t67.5 47t70 30t65 10.5h59v-905h-143l-287 256l-287 -256
h-143v958l-78 74v80l320 219l180 -168l241 168l166 -155l70 49v-84l-127 -86l-137 129l-244 -168z" />
    <glyph glyph-name="km_no" unicode="&#x1793;" horiz-adv-x="1229" 
d="M307 967q0 -70 31 -122t81 -92t114.5 -72t132 -62.5t132 -63.5t114.5 -75t81 -97t31 -129q0 -59 -19.5 -109.5t-58 -87t-96 -57t-133.5 -20.5q-59 0 -116 19.5t-109 55t-99 84t-86 107.5v-94q0 -47 10 -72t22 -36q14 -13 32 -15v-123h-35q-79 0 -125.5 52t-46.5 144v512
l143 -98q9 -37 29 -82t48 -91t64.5 -89.5t78.5 -77t89 -54t97 -20.5t82.5 15t51.5 37.5t26.5 48.5t7.5 47q0 59 -31 103t-81 79t-114.5 64.5t-132 61t-132 67.5t-114.5 83.5t-81 110.5t-31 148q0 76 30 142.5t85.5 116t132.5 77.5t172 28q94 0 174.5 -29t139.5 -81.5
t92.5 -126.5t33.5 -164v-314h-76q-38 0 -86.5 16t-91 47t-71.5 76.5t-29 104.5q0 31 9 54.5t24.5 39.5t36 24.5t42.5 8.5h62v-123h-23q-5 0 -12 -0.5t-13 -3.5t-10 -10t-4 -19q0 -13 8.5 -25.5t22.5 -23.5t31.5 -18.5t36.5 -9.5v174q0 58 -18.5 109t-54.5 89t-90 60t-124 22
q-66 0 -119 -18.5t-90.5 -51t-57.5 -76.5t-20 -95z" />
    <glyph glyph-name="km_ba" unicode="&#x1794;" horiz-adv-x="1229" 
d="M164 819l-227 213v80l313 219l166 -155l69 49v-84l-127 -86l-137 129l-149 -105l235 -219v-471q0 -57 18.5 -108.5t54.5 -91.5t89.5 -63.5t124.5 -23.5q70 0 124 23.5t90 63.5t54.5 91.5t18.5 108.5v430l-228 213v80l314 219l166 -155l69 49v-84l-127 -86l-137 129
l-150 -105l236 -219v-442q0 -95 -31 -175.5t-87.5 -139t-135.5 -91t-176 -32.5t-176 32.5t-135.5 91t-87.5 139t-31 175.5v401z" />
    <glyph glyph-name="km_pha" unicode="&#x1795;" horiz-adv-x="1229" 
d="M881 772q-56 -25 -87.5 -61t-31.5 -88q0 -21 9.5 -32.5t23 -16.5t27 -6t22.5 -1v-123h-43q-26 0 -53 9.5t-49 28.5t-36 47.5t-14 66.5q0 44 15 84.5t40.5 75t58 62t67.5 47t70 30t65 10.5h59v-905h-143l-287 256l-287 -256h-143v958l-74 72v80l320 221l274 -289
q66 0 109.5 16t70 42.5t37 61.5t10.5 73q0 14 -3.5 30.5t-12.5 31t-25.5 24.5t-42.5 10v103q60 0 103 -15.5t71 -43t41 -65t13 -81.5q0 -55 -18.5 -110t-67 -99.5t-133 -72t-215.5 -27.5l-244 264l-154 -107l84 -78v-819l289 246l285 -246v592z" />
    <glyph glyph-name="km_po" unicode="&#x1796;" horiz-adv-x="1229" 
d="M1024 1147v-1147h-143v1108l-82 76l-244 -168l-180 168l-152 -105l84 -80v-866q56 25 87.5 61t31.5 89q0 21 -9.5 32t-23 16t-27 6t-22.5 1v123h43q26 0 53 -9.5t49 -28t36 -47t14 -67.5q0 -45 -15 -85t-40.5 -74.5t-58 -62t-67.5 -47t-70 -30t-65 -10.5h-59v961l-78 71
v80l320 219l180 -168l241 168z" />
    <glyph glyph-name="km_pho" unicode="&#x1797;" horiz-adv-x="1229" 
d="M164 483q0 110 39.5 199t111.5 147l-215 203v80l320 219l180 -168l242 168l166 -155l69 49v-84l-127 -86l-137 129l-244 -168l-180 168l-151 -105l194 -184q37 12 77 19.5t85 7.5q97 0 176 -33t135.5 -91.5t87.5 -139t31 -175.5v-483h-143v512q0 57 -18.5 109t-54.5 91.5
t-90 63t-124 23.5q-71 0 -124.5 -23.5t-89.5 -63t-54.5 -91.5t-18.5 -109v-512h-59q-30 0 -65 10.5t-70 30t-67.5 47t-58 62t-40.5 75t-15 84.5q0 39 14 67.5t36 47t49 28t53 9.5h43v-123q-9 0 -22.5 -1t-27 -6t-23 -16t-9.5 -32q0 -53 31.5 -89t87.5 -61v350z" />
    <glyph glyph-name="km_mo" unicode="&#x1798;" horiz-adv-x="1229" 
d="M164 819l-227 213v80l313 219l166 -155l69 49v-84l-127 -86l-137 129l-149 -105l235 -219v-172h574v131l-228 213v80l314 219l166 -155l69 49v-84l-127 -86l-137 129l-150 -105l236 -219v-442q0 -95 -31 -175.5t-87.5 -139t-135.5 -91t-176 -32.5t-176 32.5t-135.5 91
t-87.5 139t-31 175.5v401zM594 102q70 0 124 23.5t90 63.5t54.5 91.5t18.5 108.5v176h-574v-176q0 -57 18.5 -108.5t54.5 -91.5t89.5 -63.5t124.5 -23.5z" />
    <glyph glyph-name="km_yo" unicode="&#x1799;" horiz-adv-x="1946" 
d="M307 389q0 -57 18.5 -108.5t54.5 -91.5t89.5 -63.5t124.5 -23.5q70 0 124 23.5t90 63.5t54.5 91.5t18.5 108.5v430l-228 213v80l314 219l166 -155l69 49v-84l-127 -86l-137 129l-150 -105l236 -219v-471q0 -57 18.5 -108.5t54.5 -91.5t89.5 -63.5t124.5 -23.5
q70 0 123.5 23.5t89.5 63.5t54.5 91.5t18.5 108.5v430l-227 213v80l313 219l166 -155l70 49v-84l-127 -86l-137 129l-150 -105l236 -219v-442q0 -95 -31 -175.5t-87.5 -139t-135.5 -91t-176 -32.5q-121 0 -212 48.5t-147 133.5q-55 -85 -147 -133.5t-211 -48.5
q-97 0 -176 32.5t-135.5 91t-87.5 139t-31 175.5v893h59q52 0 108 -28t102 -75t76 -108.5t30 -128.5q0 -39 -14 -67.5t-36 -47t-49 -28t-53 -9.5h-43v123q9 0 22.5 1t27 6t23 16t9.5 32q0 26 -9.5 52t-25.5 49.5t-37.5 43t-46.5 32.5v-785z" />
    <glyph glyph-name="km_ro" unicode="&#x179a;" horiz-adv-x="717" 
d="M369 819l-228 213v80l314 219l166 -155l69 49v-84l-127 -86l-137 129l-150 -105l236 -219v-860h-59q-30 0 -65 10.5t-70 30t-67.5 47t-58 62t-40.5 75t-15 84.5q0 39 14 67.5t36 47t49 28t53 9.5h43v-123q-9 0 -22.5 -1t-27 -6t-23 -16t-9.5 -32q0 -53 31.5 -89t87.5 -61
v686z" />
    <glyph glyph-name="km_lo" unicode="&#x179b;" horiz-adv-x="1946" 
d="M1741 418q0 -95 -31 -175.5t-87.5 -139t-135.5 -91t-176 -32.5t-176 32.5t-135.5 91t-87.5 139t-31 175.5v504q0 57 -18.5 108.5t-54.5 91t-90 63t-124 23.5q-71 0 -124.5 -23.5t-89.5 -63t-54.5 -91t-18.5 -108.5v-789q56 25 87.5 61t31.5 89q0 21 -9.5 32t-23 16t-27 6
t-22.5 1v123h43q26 0 53 -9.5t49 -28t36 -47t14 -67.5q0 -45 -15 -85t-40.5 -74.5t-58 -62t-67.5 -47t-70 -30t-65 -10.5h-59v893q0 95 31 175.5t87.5 139t135.5 91t176 32.5t176 -32.5t135.5 -91t87.5 -139t31 -175.5v-504q0 -57 18.5 -108.5t54.5 -91.5t89.5 -63.5
t124.5 -23.5q70 0 123.5 23.5t89.5 63.5t54.5 91.5t18.5 108.5v430l-227 213v80l313 219l166 -155l70 49v-84l-127 -86l-137 129l-150 -105l236 -219v-442z" />
    <glyph glyph-name="km_vo" unicode="&#x179c;" horiz-adv-x="717" 
d="M276 1026l236 -219v-807h-59q-30 0 -65 10.5t-70 30t-67.5 47t-58 62t-40.5 75t-15 84.5q0 39 14 67.5t36 47t49 28t53 9.5h43v-123q-9 0 -22.5 -1t-27 -6t-23 -16t-9.5 -32q0 -53 31.5 -89t87.5 -61v633l-228 213v80l219 219q5 -14 13 -33t20 -36.5t29.5 -29.5t40.5 -12
q11 0 24 6.5t24 21t18.5 37.5t7.5 56q0 25 -6.5 51t-19 47t-32 34.5t-45.5 13.5v102q59 0 99 -27t64 -66.5t34 -84t10 -78.5q0 -54 -14 -98t-37.5 -74.5t-53.5 -47t-61 -16.5q-32 0 -54.5 9.5t-37 21.5t-21.5 23t-8 14z" />
    <glyph glyph-name="km_sha" unicode="&#x179d;" horiz-adv-x="1229" 
d="M776 436h105v76q0 57 -18.5 109t-54.5 91.5t-90 63t-124 23.5q-71 0 -124.5 -23.5t-89.5 -63t-54.5 -91.5t-18.5 -109v-305q11 27 33.5 69t56.5 82t77.5 68.5t96.5 28.5q35 0 54 -6.5t30 -12.5v-139q-12 6 -27 11t-38 5q-43 0 -79 -19t-65.5 -48.5t-53 -66t-40.5 -71.5
t-28 -64t-17 -44h-143v483q0 110 39.5 199t111.5 147l-215 203v80l320 219l180 -168l242 168l166 -155l69 49v-84l-127 -86l-137 129l-244 -168l-180 168l-151 -105l194 -184q37 12 77 19.5t85 7.5q97 0 176 -33t135.5 -91.5t87.5 -139t31 -175.5v-47h111v-123h-111v-313
h-143v313h-105v123z" />
    <glyph glyph-name="km_ssa" unicode="&#x179e;" horiz-adv-x="1229" 
d="M709 688h172v131l-228 213v80l314 219l166 -155l69 49v-84l-127 -86l-137 129l-150 -105l236 -219v-172h164v-123h-164v-147q0 -95 -31 -175.5t-87.5 -139t-135.5 -91t-176 -32.5t-176 32.5t-135.5 91t-87.5 139t-31 175.5v401l-227 213v80l313 219l166 -155l69 49v-84
l-127 -86l-137 129l-149 -105l235 -219v-471q0 -57 18.5 -108.5t54.5 -91.5t89.5 -63.5t124.5 -23.5q70 0 124 23.5t90 63.5t54.5 91.5t18.5 108.5v176h-172v123z" />
    <glyph glyph-name="km_sa" unicode="&#x179f;" horiz-adv-x="1946" 
d="M1741 418q0 -95 -31 -175.5t-87.5 -139t-135.5 -91t-176 -32.5t-176 32.5t-135.5 91t-87.5 139t-31 175.5v94q0 57 -18.5 109t-54.5 91.5t-90 63t-124 23.5q-71 0 -124.5 -23.5t-89.5 -63t-54.5 -91.5t-18.5 -109v-379q56 25 87.5 61t31.5 89q0 21 -9.5 32t-23 16t-27 6
t-22.5 1v123h43q26 0 53 -9.5t49 -28t36 -47t14 -67.5q0 -45 -15 -85t-40.5 -74.5t-58 -62t-67.5 -47t-70 -30t-65 -10.5h-59v483q0 75 19 140.5t54.5 119t86 93t114.5 61.5l-143 135v80l313 219l166 -155l70 49v-84l-127 -86l-137 129l-150 -105l170 -157q95 -2 173.5 -35
t134 -91.5t86 -138.5t30.5 -174v-94q0 -57 18.5 -108.5t54.5 -91.5t89.5 -63.5t124.5 -23.5q70 0 123.5 23.5t89.5 63.5t54.5 91.5t18.5 108.5v430l-227 213v80l313 219l166 -155l70 49v-84l-127 -86l-137 129l-150 -105l236 -219v-442z" />
    <glyph glyph-name="km_ha" unicode="&#x17a0;" horiz-adv-x="1946" 
d="M1741 0h-144v922q0 57 -18.5 108.5t-54.5 91t-89.5 63t-123.5 23.5q-71 0 -124.5 -23.5t-89.5 -63t-54.5 -91t-18.5 -108.5v-504q0 -95 -31 -175.5t-87.5 -139t-135.5 -91t-176 -32.5t-176 32.5t-135.5 91t-87.5 139t-31 175.5v401l-227 213v80l313 219l166 -155l69 49
v-84l-127 -86l-137 129l-149 -105l235 -219v-471q0 -57 18.5 -108.5t54.5 -91.5t89.5 -63.5t124.5 -23.5q70 0 124 23.5t90 63.5t54.5 91.5t18.5 108.5v504q0 95 31 175.5t87.5 139t135.5 91t176 32.5t176 -32.5t135.5 -91t87.5 -139t31 -175.5v-893z" />
    <glyph glyph-name="km_la" unicode="&#x17a1;" horiz-adv-x="1991" 
d="M881 672q-24 0 -39.5 -6t-24.5 -15.5t-12.5 -22.5t-3.5 -28h110q45 0 45 33q0 17 -16 28t-59 11zM307 907q0 -82 31 -140.5t80 -95.5t108 -54t115 -17h16q5 98 65.5 144.5t158.5 46.5q44 0 79 -13t59 -34.5t37 -49t13 -55.5q0 -45 -14 -75.5t-38 -50t-56.5 -28
t-69.5 -8.5h-90v-219q0 -59 -11.5 -109.5t-39.5 -88t-75.5 -59t-119.5 -21.5q-51 0 -96 12t-78.5 38t-53.5 67t-20 100v155h144v-137q0 -34 10 -56t25 -34.5t33.5 -17.5t35.5 -5q33 0 53 13.5t31 35t14.5 48.5t3.5 53v225h-16q-87 0 -172 26t-153 80.5t-110 138.5t-42 200
q0 91 39 166.5t105 129.5t153 83.5t184 29.5t168 -21.5t118 -57.5t70 -83t23 -98q0 -93 -59 -141.5t-164 -48.5v90q9 0 22.5 4.5t26.5 15t22 29t9 47.5q0 20 -9.5 44.5t-32.5 46t-62.5 36t-100.5 14.5q-90 0 -159 -25t-115.5 -67t-70.5 -96.5t-24 -112.5zM1642 819l-227 213
v80l314 219l165 -155l70 49v-84l-127 -86l-137 129l-150 -105l236 -219v-1597h-144l-286 256l-287 -256h-143v633q-56 -25 -87.5 -61t-31.5 -89q0 -21 9.5 -32t23 -16t27 -6t22.5 -1v-123h-43q-26 0 -53 9t-49 28t-36 47.5t-14 66.5q0 45 15 85t40.5 74.5t58 62.5t67.5 47.5
t70 30t65 10.5h59v-586l289 246l284 -246v1376z" />
    <glyph glyph-name="km_qa" unicode="&#x17a2;" horiz-adv-x="1188" 
d="M881 819l-228 213v80l314 219l166 -155l69 49v-84l-127 -86l-137 129l-150 -105l236 -219v-860h-59q-30 0 -65 10.5t-70 30t-67.5 47t-58 62t-40.5 75t-15 84.5q0 39 14 67.5t36 47t49 28t53 9.5h43v-123q-9 0 -22.5 -1t-27 -6t-23 -16t-9.5 -32q0 -53 31.5 -89t87.5 -61
v432h-574v-565h-59q-30 0 -65 10.5t-70 30t-67.5 47t-58 62t-40.5 75t-15 84.5q0 39 14 67.5t36 47t49 28t53 9.5h43v-123q-9 0 -22.5 -1t-27 -6t-23 -16t-9.5 -32q0 -53 31.5 -89t87.5 -61v686l-227 213v80l313 219l166 -155l69 49v-84l-127 -86l-137 129l-149 -105
l235 -219v-172h574v131z" />
    <glyph glyph-name="uni17a3" unicode="&#x17a3;" horiz-adv-x="1229" 
d="M881 819l-228 213v80l314 219l166 -155l69 49v-84l-127 -86l-137 129l-150 -105l236 -219v-860h-59q-30 0 -65 10.5t-70 30t-67.5 47t-58 62t-40.5 74.5t-15 85q0 39 14 67.5t36 47t49 28t53 9.5h43v-123q-9 0 -22.5 -1t-27 -6t-23 -16t-9.5 -32q0 -53 31.5 -89t87.5 -61
v432h-574v-565h-59q-30 0 -65 10.5t-70 30t-67.5 47t-58 62t-40.5 74.5t-15 85q0 39 14 67.5t36 47t49 28t53 9.5h43v-123q-9 0 -22.5 -1t-27 -6t-23 -16t-9.5 -32q0 -53 31.5 -89t87.5 -61v686l-227 213v80l313 219l166 -155l69 49v-84l-127 -86l-137 129l-149 -105
l235 -219v-172h574v131zM541 2l98 -127h-57l-70 86l-70 -86h-57l98 127l-98 127h57l70 -86l70 86h57z" />
    <glyph glyph-name="uni17a4" unicode="&#x17a4;" horiz-adv-x="1946" 
d="M1157 1186l-305 -131l172 -193v-862h-59q-30 0 -65 10.5t-70 30t-67.5 47t-58 62t-40.5 74.5t-15 85q0 39 14 67.5t36 47t49 28t53 9.5h43v-123q-9 0 -22.5 -1t-27 -6t-23 -16t-9.5 -32q0 -53 31.5 -89t87.5 -61v432h-574v-565h-59q-30 0 -65 10.5t-70 30t-67.5 47
t-58 62t-40.5 74.5t-15 85q0 39 14 67.5t36 47t49 28t53 9.5h43v-123q-9 0 -22.5 -1t-27 -6t-23 -16t-9.5 -32q0 -53 31.5 -89t87.5 -61v686l-227 213v80l313 219l166 -155l69 49v-84l-127 -86l-137 129l-149 -105l235 -219v-172h574v133l-181 209v80l504 221l537 -231
v-1100h-144v1024zM1339 2l99 -127h-58l-69 86l-70 -86h-57l98 127l-98 127h57l70 -86l69 86h58z" />
    <glyph glyph-name="km_qi" unicode="&#x17a5;" horiz-adv-x="1229" 
d="M307 133q56 25 87.5 61t31.5 89q0 21 -9.5 32t-23 16t-27 6t-22.5 1v123h43q26 0 53 -9.5t49 -28t36 -47t14 -67.5q0 -45 -15 -85t-40.5 -74.5t-58 -62t-67.5 -47t-70 -30t-65 -10.5h-59v463q0 114 43.5 205.5t122.5 150.5l-226 211v80l320 221l274 -248q52 0 94.5 10.5
t72 29.5t45.5 46t16 60q0 13 -3 30.5t-12 33.5t-25.5 27t-43.5 11v103q60 0 102.5 -15.5t70.5 -43t41 -65t13 -81.5q0 -55 -25 -103.5t-78 -85t-135 -58t-196 -21.5l-244 223l-153 -107l213 -198q34 11 69.5 16.5t73.5 5.5q97 0 176 -32.5t135.5 -91t87.5 -139t31 -175.5
v-463h-143v492q0 57 -18.5 108.5t-54.5 91t-90 63t-124 23.5q-71 0 -124.5 -23.5t-89.5 -63t-54.5 -91t-18.5 -108.5v-359z" />
    <glyph glyph-name="km_qii" unicode="&#x17a6;" horiz-adv-x="1946" 
d="M307 133q56 25 87.5 61t31.5 89q0 21 -9.5 32t-23 16t-27 6t-22.5 1v123h43q26 0 53 -9.5t49 -28t36 -47t14 -67.5q0 -45 -15 -85t-40.5 -74.5t-58 -62t-67.5 -47t-70 -30t-65 -10.5h-59v893q0 95 31 175.5t87.5 139t135.5 91t176 32.5t176 -32.5t135.5 -91t87.5 -139
t31 -175.5v-893h-143v922q0 57 -18.5 108.5t-54.5 91t-90 63t-124 23.5q-71 0 -124.5 -23.5t-89.5 -63t-54.5 -91t-18.5 -108.5v-789zM1741 807v-1229q0 -95 -27.5 -175.5t-81 -139t-132 -91t-179.5 -32.5q-97 0 -177.5 24t-139 75.5t-91 132t-32.5 194.5q0 59 -18.5 112
t-54.5 92.5t-90 63t-124 23.5q-71 0 -124.5 -23.5t-89.5 -63.5t-54.5 -91.5t-18.5 -108.5v-297q56 25 87.5 61t31.5 88q0 21 -9.5 32.5t-23 16.5t-27 6t-22.5 1v123h43q26 0 53 -9.5t49 -28.5t36 -47.5t14 -66.5q0 -45 -15 -85t-40.5 -74.5t-58 -62t-67.5 -47t-70 -30
t-65 -10.5h-59v401q0 95 31 175.5t87.5 139t135.5 91.5t176 33q75 0 136 -17.5t109 -47.5t83 -69.5t57.5 -84t33.5 -90.5t11 -89q0 -85 19.5 -145.5t57 -99t93 -56.5t127.5 -18q70 0 122 23.5t86.5 63t51 91t16.5 108.5v1217l-227 213v80l219 219q5 -14 13 -33t20 -36.5
t29.5 -29.5t40.5 -12q10 0 23 6.5t24 21t18.5 37.5t7.5 56q0 25 -6 51t-18.5 47t-32 34.5t-45.5 13.5v102q59 0 99 -27t64 -66.5t34 -84t10 -78.5q0 -54 -14 -98t-37.5 -74.5t-53.5 -47t-61 -16.5q-32 0 -54.5 9.5t-37 21.5t-21.5 23t-8 14l-78 -86z" />
    <glyph glyph-name="km_qu" unicode="&#x17a7;" horiz-adv-x="1229" 
d="M881 967q0 51 -20 95t-57.5 76.5t-90.5 51t-119 18.5q-71 0 -124.5 -22t-89.5 -60t-54.5 -89t-18.5 -109v-174q18 2 36 9.5t32 18.5t22.5 23.5t8.5 25.5q0 12 -4 19t-10 10t-13 3.5t-12 0.5h-23v123h62q22 0 42.5 -8.5t36 -24.5t24.5 -39.5t9 -54.5q0 -59 -29 -104.5
t-71.5 -76.5t-91 -47t-86.5 -16h-76v314q0 90 33.5 164t92.5 126.5t139.5 81.5t174.5 29t171.5 -28t133 -77.5t85.5 -116t30 -142.5q0 -85 -31 -148t-81 -110.5t-114.5 -83.5t-132 -67.5t-132 -61t-114.5 -64.5t-81 -79t-31 -103q0 -21 7.5 -47t26.5 -48.5t51.5 -37.5
t82.5 -15t97 20.5t89 54t78.5 77t64.5 89.5t48 91t29 82l143 98v-512q0 -92 -47 -144t-125 -52h-35v123q18 2 32 15q12 11 22 36t10 72v94q-39 -59 -86 -107.5t-99 -84t-109 -55t-116 -19.5q-76 0 -133.5 20.5t-96 57t-58 87t-19.5 109.5q0 74 31 129t81 97t114.5 75
t132 63.5t132 62.5t114.5 72t81 92t31 122z" />
    <glyph glyph-name="km_quk" unicode="&#x17a8;" horiz-adv-x="1229" 
d="M453 1532l-152 -105l131 -124q82 28 172 28q94 0 171.5 -28t133 -77.5t85.5 -116t30 -142.5q0 -85 -31 -148t-81 -110.5t-114.5 -83.5t-132 -67.5t-132 -61t-114.5 -64.5t-81 -79t-31 -103q0 -21 7.5 -47t26.5 -48.5t51.5 -37.5t82.5 -15t97 20.5t89 54t78.5 77
t64.5 89.5t48 91t29 82l143 98v-512q0 -92 -47 -144t-125 -52h-35v123q18 2 32 15q12 11 22 36t10 72v94q-39 -59 -86 -107.5t-99 -84t-109 -55t-116 -19.5q-76 0 -133.5 20.5t-96 57t-58 87t-19.5 109.5q0 74 31 129t81 97t114.5 75t132 63.5t132 62.5t114.5 72t81 92
t31 122q0 51 -20 95t-57.5 76.5t-90.5 51t-119 18.5q-71 0 -124.5 -22t-89.5 -60t-54.5 -89t-18.5 -109v-174q18 2 36 9.5t32 18.5t22.5 23.5t8.5 25.5q0 12 -4 19t-10 10t-13 3.5t-12 0.5h-23v123h62q22 0 42.5 -8.5t36 -24.5t24.5 -39.5t9 -54.5q0 -59 -29 -104.5
t-71.5 -76.5t-91 -47t-86.5 -16h-76v314q0 99 39 177.5t110 131.5l-149 141v80l319 219l181 -168l241 168l166 -155l70 49v-84l-127 -86l-137 129l-244 -168zM1217 2l98 -127h-58l-69 86l-70 -86h-57l98 127l-98 127h57l70 -86l69 86h58z" />
    <glyph glyph-name="km_quu" unicode="&#x17a9;" horiz-adv-x="1454" 
d="M881 967q0 51 -20 95t-57.5 76.5t-90.5 51t-119 18.5q-71 0 -124.5 -22t-89.5 -60t-54.5 -89t-18.5 -109v-174q18 2 36 9.5t32 18.5t22.5 23.5t8.5 25.5q0 12 -4 19t-10 10t-13 3.5t-12 0.5h-23v123h62q22 0 42.5 -8.5t36 -24.5t24.5 -39.5t9 -54.5q0 -59 -29 -104.5
t-71.5 -76.5t-91 -47t-86.5 -16h-76v314q0 90 33.5 164t92.5 126.5t139.5 81.5t174.5 29t171.5 -28t133 -77.5t85.5 -116t30 -142.5q0 -85 -31 -148t-81 -110.5t-114.5 -83.5t-132 -67.5t-132 -61t-114.5 -64.5t-81 -79t-31 -103q0 -21 7.5 -47t26.5 -48.5t51.5 -37.5
t82.5 -15t97 20.5t89 54t78.5 77t64.5 89.5t48 91t29 82l143 98v-512q0 -92 -47 -144t-125 -52h-35v123q18 2 32 15q12 11 22 36t10 72v94q-39 -59 -86 -107.5t-99 -84t-109 -55t-116 -19.5q-76 0 -133.5 20.5t-96 57t-58 87t-19.5 109.5q0 74 31 129t81 97t114.5 75
t132 63.5t132 62.5t114.5 72t81 92t31 122zM1249 -94h-143v708h143v-708z" />
    <glyph glyph-name="km_quuv" unicode="&#x17aa;" horiz-adv-x="1270" 
d="M1065 102q0 -92 -47 -144t-125 -52h-35v123q18 2 32 15q12 11 22 36t10 72v94q-39 -59 -86 -107.5t-99 -84t-109 -55t-116 -19.5q-76 0 -133.5 20.5t-96 57t-58 87t-19.5 109.5q0 74 31 129t81 97t114.5 75t132 63.5t132 62.5t114.5 72t81 92t31 122q0 51 -20 95
t-57.5 76.5t-90.5 51t-119 18.5q-71 0 -124.5 -22t-89.5 -60t-54.5 -89t-18.5 -109v-174q18 2 36 9.5t31.5 18.5t22 23.5t8.5 25.5q0 12 -4 19t-10 10t-12.5 3.5t-11.5 0.5h-23v123h61q22 0 42.5 -8.5t36.5 -24.5t25 -39.5t9 -54.5q0 -59 -29 -104.5t-71.5 -76.5t-91 -47
t-86.5 -16h-76v314q0 99 39 177t108 132l-147 139v80l319 221l275 -184q52 0 94 6t71.5 19t45.5 34t16 52q0 9 -2.5 21.5t-11.5 24t-25.5 19.5t-44.5 8v103q120 0 173.5 -47.5t53.5 -128.5q0 -114 -103.5 -174t-330.5 -60l-243 160l-154 -107l133 -122q82 28 174 28
q94 0 171.5 -28t133 -77.5t85.5 -116t30 -142.5q0 -85 -31 -148t-81 -110.5t-114.5 -83.5t-132 -67.5t-132 -61t-114.5 -64.5t-81 -79t-31 -103q0 -21 7.5 -47t26.5 -48.5t51.5 -37.5t82.5 -15t97 20.5t89 54t78.5 77t64.5 89.5t48 91t29 82l143 98v-512z" />
    <glyph glyph-name="km_ry" unicode="&#x17ab;" horiz-adv-x="1229" 
d="M1024 -246q0 -69 -26 -119t-70.5 -83t-104.5 -48.5t-129 -15.5q-56 0 -107 14.5t-98.5 36t-91 47t-84 47t-77.5 36t-72 14.5q-15 0 -34 -1t-45.5 -6.5t-62.5 -17t-85 -33.5v103q20 10 46 20t55.5 18t61.5 13.5t64 5.5q42 0 84.5 -14.5t85.5 -36.5t87 -47.5t88.5 -47.5
t90.5 -36.5t94 -14.5q41 0 75.5 10.5t59 29.5t38.5 45.5t14 58.5q0 38 -20 61t-48 23q-22 0 -43 -10.5t-35 -30.5l-69 69q29 35 57 55.5t53 31t46.5 13.5t37.5 3q48 0 79.5 -19.5t50 -48.5t26.5 -63t8 -62zM164 819l-227 213v80l313 219l166 -155l69 49v-84l-127 -86
l-137 129l-149 -105l235 -219v-471q0 -57 18.5 -108.5t54.5 -91.5t89.5 -63.5t124.5 -23.5q70 0 124 23.5t90 63.5t54.5 91.5t18.5 108.5v430l-228 213v80l314 219l166 -155l69 49v-84l-127 -86l-137 129l-150 -105l236 -219v-442q0 -95 -31 -175.5t-87.5 -139t-135.5 -91
t-176 -32.5t-176 32.5t-135.5 91t-87.5 139t-31 175.5v401z" />
    <glyph glyph-name="km_ryy" unicode="&#x17ac;" horiz-adv-x="1229" 
d="M164 819l-227 213v80l313 219l166 -155l69 49v-84l-127 -86l-137 129l-149 -105l235 -219v-471q0 -57 18.5 -108.5t54.5 -91.5t89.5 -63.5t124.5 -23.5q70 0 124 23.5t90 63.5t54.5 91.5t18.5 108.5v430l-228 213v80l314 219l166 -155l69 49v-84l-127 -86l-137 129
l-150 -105l236 -219v-442q0 -95 -31 -175.5t-87.5 -139t-135.5 -91t-176 -32.5t-176 32.5t-135.5 91t-87.5 139t-31 175.5v401zM1024 -246q0 -34 -7 -63t-18 -53q14 -20 38.5 -35t62.5 -15q14 0 29.5 5t29.5 14t25.5 22.5t17.5 30.5v-90q-18 -31 -39 -47.5t-41.5 -24
t-37.5 -9t-27 -1.5q-48 0 -83.5 18t-58.5 39q-43 -29 -99.5 -43t-121.5 -14q-56 0 -107 14.5t-98.5 36t-91 47t-84 47t-77.5 36t-72 14.5q-15 0 -34 -1t-45.5 -6.5t-62.5 -17t-85 -33.5v103q20 10 46 20t55.5 18t61.5 13.5t64 5.5q42 0 84.5 -14.5t85.5 -36.5t87 -47.5
t88.5 -47.5t90.5 -36.5t94 -14.5q41 0 75.5 10.5t59 29.5t38.5 45.5t14 58.5q0 38 -20 61t-48 23q-22 0 -43 -10.5t-35 -30.5l-69 69q29 35 57 55.5t53 31t46.5 13.5t37.5 3q48 0 79.5 -19.5t50 -48.5t26.5 -63t8 -62z" />
    <glyph glyph-name="km_ly" unicode="&#x17ad;" horiz-adv-x="1229" 
d="M307 999v-866q56 25 87.5 61t31.5 89q0 21 -9.5 32t-23 16t-27 6t-22.5 1v123h43q26 0 53 -9.5t49 -28t36 -47t14 -67.5q0 -45 -15 -85t-40.5 -74.5t-58 -62t-67.5 -47t-70 -30t-65 -10.5h-59v961l-78 71v80l320 219l180 -168l241 168l197 -184v-1147h-143v1108l-82 76
l-244 -168l-180 168l-152 -105zM86 -221q19 3 39 4.5t39 1.5q42 0 84.5 -14.5t85.5 -36.5t87 -47.5t88.5 -47.5t90.5 -36.5t94 -14.5q41 0 75.5 10.5t59 29.5t38.5 45.5t14 58.5q0 38 -20 61t-48 23q-22 0 -43 -10.5t-35 -30.5l-69 69q29 35 57 55.5t53 31t46.5 13.5t37.5 3
q48 0 79.5 -19.5t50 -48.5t26.5 -63t8 -62q0 -69 -26 -119t-70.5 -83t-104.5 -48.5t-129 -15.5q-56 0 -107 14.5t-98.5 36t-91 47t-84 47t-77.5 36t-72 14.5q-16 0 -34 -1t-44 -6v103z" />
    <glyph glyph-name="km_lyy" unicode="&#x17ae;" horiz-adv-x="1229" 
d="M307 999v-866q56 25 87.5 61t31.5 89q0 21 -9.5 32t-23 16t-27 6t-22.5 1v123h43q26 0 53 -9.5t49 -28t36 -47t14 -67.5q0 -45 -15 -85t-40.5 -74.5t-58 -62t-67.5 -47t-70 -30t-65 -10.5h-59v961l-78 71v80l320 219l180 -168l241 168l197 -184v-1147h-143v1108l-82 76
l-244 -168l-180 168l-152 -105zM86 -223q19 3 38.5 5.5t39.5 2.5q42 0 84.5 -14.5t85.5 -36.5t87 -47.5t88.5 -47.5t90.5 -36.5t94 -14.5q41 0 75.5 10.5t59 29.5t38.5 45.5t14 58.5q0 38 -20 61t-48 23q-22 0 -43 -10.5t-35 -30.5l-69 69q29 35 57 55.5t53 31t46.5 13.5
t37.5 3q48 0 79.5 -19.5t50 -48.5t26.5 -63t8 -62q0 -34 -7 -63t-18 -53q14 -20 38.5 -35t62.5 -15q14 0 29.5 5t29.5 14t25.5 22.5t17.5 30.5v-90q-18 -31 -39 -47.5t-41.5 -24t-37.5 -9t-27 -1.5q-48 0 -83.5 18t-58.5 39q-43 -29 -99.5 -43t-121.5 -14q-56 0 -107 14.5
t-98.5 36t-91 47t-84 47t-77.5 36t-72 14.5q-16 0 -34 -1t-44 -6v101z" />
    <glyph glyph-name="km_qe" unicode="&#x17af;" horiz-adv-x="1229" 
d="M307 1147l289 184l428 -287v-1044h-143l-287 256l-287 -256h-143v633q-56 -25 -87.5 -61t-31.5 -89q0 -21 9.5 -32t23 -16t27 -6t22.5 -1v-123h-43q-26 0 -53 9.5t-49 28t-36 47t-14 67.5q0 44 15 84.5t40.5 75t58 62t67.5 47t70 30t65 10.5h59v-586l289 246l285 -246
v795l-316 205l-258 -160q-9 -6 -28.5 -13.5t-34.5 -7.5q-24 0 -39.5 8t-24.5 20t-12.5 26t-3.5 26v172q0 30 -8 46t-23 23.5t-36.5 9t-47.5 1.5v103h109q43 0 71.5 -9.5t45.5 -27t24.5 -41.5t7.5 -53v-156z" />
    <glyph glyph-name="km_qai" unicode="&#x17b0;" horiz-adv-x="1229" 
d="M307 999v-866q56 25 87.5 61t31.5 89q0 21 -9.5 32t-23 16t-27 6t-22.5 1v123h43q26 0 53 -9.5t49 -28t36 -47t14 -67.5q0 -45 -15 -85t-40.5 -74.5t-58 -62t-67.5 -47t-70 -30t-65 -10.5h-59v961l-78 71v80l320 219l180 -168l241 168l197 -184v-1147h-143v1108l-82 76
l-244 -168l-180 168l-152 -105zM881 -51h143v-236q0 -69 -22 -113t-60.5 -68.5t-91.5 -34t-115 -9.5h-65q0 -51 -20.5 -85t-55.5 -53.5t-81 -27.5t-97 -8q-46 0 -84.5 7t-70.5 19t-57.5 27t-44.5 31q-46 37 -73 84v108zM526 -410h238q24 0 45.5 9t37.5 24t25 35.5t9 44.5v98
l-682 -290q6 -10 19.5 -26t37.5 -31.5t59 -26.5t84 -11q18 0 40 2t41.5 14.5t32.5 39t13 75.5v43z" />
    <glyph glyph-name="km_qoo" unicode="&#x17b1;" horiz-adv-x="1229" 
d="M1024 1491v-123h-82q-44 0 -86 12.5t-82.5 31t-80.5 40.5t-79.5 40.5t-79 31t-79.5 12.5l-158 -111l133 -122q82 28 174 28q94 0 171.5 -28t133 -77.5t85.5 -116t30 -142.5q0 -85 -31 -148t-81 -110.5t-114.5 -83.5t-132 -67.5t-132 -61t-114.5 -64.5t-81 -79t-31 -103
q0 -21 7.5 -47t26.5 -48.5t51.5 -37.5t82.5 -15t97 20.5t89 54t78.5 77t64.5 89.5t48 91t29 82l143 98v-512q0 -92 -47 -144t-125 -52h-35v123q18 2 32 15q12 11 22 36t10 72v94q-39 -59 -86 -107.5t-99 -84t-109 -55t-116 -19.5q-76 0 -133.5 20.5t-96 57t-58 87
t-19.5 109.5q0 74 31 129t81 97t114.5 75t132 63.5t132 62.5t114.5 72t81 92t31 122q0 51 -20 95t-57.5 76.5t-90.5 51t-119 18.5q-71 0 -124.5 -22t-89.5 -60t-54.5 -89t-18.5 -109v-174q18 2 36 9.5t32 18.5t22.5 23.5t8.5 25.5q0 12 -4 19t-10 10t-13 3.5t-12 0.5h-23
v123h62q22 0 42.5 -8.5t36 -24.5t24.5 -39.5t9 -54.5q0 -59 -29 -104.5t-71.5 -76.5t-91 -47t-86.5 -16h-76v314q0 99 39 177t108 132l-147 139v80l319 221q46 0 88 -14t81.5 -35t78 -45t78.5 -45t81.5 -35t88.5 -14h45z" />
    <glyph glyph-name="km_qoo.2" unicode="&#x17b2;" horiz-adv-x="1229" 
d="M307 389q0 -57 19.5 -108.5t59 -91.5t99 -63.5t140.5 -23.5q74 0 123.5 15.5t79 38.5t41.5 50t12 50q0 26 -12 44t-32.5 29t-48.5 16t-59 5h-143v127h94q51 0 89 20t63 49t37 63t12 63q0 26 -6.5 49t-20.5 40.5t-35.5 27.5t-50.5 10q-18 0 -36.5 -3t-33.5 -10.5
t-24.5 -19t-9.5 -29.5q0 -20 17 -34.5t48 -14.5v-102q-52 0 -88 14t-58 36.5t-32 50t-10 54.5q0 47 21 81t55 56.5t76 33t83 10.5q48 0 93 -16.5t79.5 -45.5t55 -68t20.5 -83q0 -34 -4 -65.5t-19 -64t-43.5 -67t-76.5 -74.5q30 -5 56 -17.5t45.5 -32.5t30.5 -45.5t11 -55.5
q0 -69 -26.5 -126t-77 -97t-125 -62t-170.5 -22q-119 0 -206 32.5t-143.5 91t-84 139t-27.5 175.5v692l319 221q46 0 88 -14t81.5 -35t78 -45t78.5 -45t81.5 -35t88.5 -14h45v-123h-82q-44 0 -86 12.5t-82.5 31t-80.5 40.5t-79.5 40.5t-79 31t-79.5 12.5l-148 -105v-694z
" />
    <glyph glyph-name="km_qau" unicode="&#x17b3;" horiz-adv-x="1229" 
d="M737 1536q15 81 52.5 125.5t81 64.5t85.5 23.5t68 3.5v-141q-18 0 -47.5 -2.5t-58 -18.5t-51 -50t-27.5 -97l-101 -66l-288 154l-154 -107l133 -122q82 28 174 28q94 0 171.5 -28t133 -77.5t85.5 -116t30 -142.5q0 -85 -31 -148t-81 -110.5t-114.5 -83.5t-132 -67.5
t-132 -61t-114.5 -64.5t-81 -79t-31 -103q0 -21 7.5 -47t26.5 -48.5t51.5 -37.5t82.5 -15t97 20.5t89 54t78.5 77t64.5 89.5t48 91t29 82l143 98v-512q0 -92 -47 -144t-125 -52h-35v123q18 2 32 15q12 11 22 36t10 72v94q-39 -59 -86 -107.5t-99 -84t-109 -55t-116 -19.5
q-76 0 -133.5 20.5t-96 57t-58 87t-19.5 109.5q0 74 31 129t81 97t114.5 75t132 63.5t132 62.5t114.5 72t81 92t31 122q0 51 -20 95t-57.5 76.5t-90.5 51t-119 18.5q-71 0 -124.5 -22t-89.5 -60t-54.5 -89t-18.5 -109v-174q18 2 36 9.5t32 18.5t22.5 23.5t8.5 25.5
q0 12 -4 19t-10 10t-13 3.5t-12 0.5h-23v123h62q22 0 42.5 -8.5t36 -24.5t24.5 -39.5t9 -54.5q0 -59 -29 -104.5t-71.5 -76.5t-91 -47t-86.5 -16h-76v314q0 99 39 177t108 132l-147 139v80l319 221z" />
    <glyph glyph-name="km_aq.compat" unicode="&#x17b4;" horiz-adv-x="924" 
d="M719 1720v-389h-144v389h144zM0 1171l291 181l428 -258v-1094h-144v1024l-315 197l-260 -156v106z" />
    <glyph glyph-name="km_aa.compat" unicode="&#x17b5;" horiz-adv-x="924" 
d="M0 1171l291 181l428 -258v-1094h-144v1024l-315 197l-260 -156v106z" />
    <glyph glyph-name="km_vs_aa.25CC" unicode="&#x17b6;" horiz-adv-x="1757" 
d="M834 1171l290 181l428 -258v-1094h-143v1024l-315 197l-260 -156v106zM518 963q0 -52 -49 -52q-51 0 -51 52q0 49 51 49q49 0 49 -49zM561 926q0 51 51 51q50 0 50 -51q0 -49 -50 -49q-51 0 -51 49zM670 827q0 52 49 52q51 0 51 -54q0 -47 -51 -47q-49 0 -49 49zM719 680
q0 49 49 49q51 0 51 -49q0 -51 -53 -51q-47 0 -47 51zM735 506q0 49 47 49q52 0 52 -49t-52 -49q-47 0 -47 49zM518 51q0 -51 -49 -51q-51 0 -51 51q0 49 51 49q49 0 49 -49zM719 332q0 51 49 51q51 0 51 -51q0 -49 -51 -49q-49 0 -49 49zM561 88q0 47 51 47q50 0 50 -51
q0 -47 -50 -47q-51 0 -51 51zM670 182q0 51 49 51q51 0 51 -51q0 -49 -51 -49q-49 0 -49 49zM375 926q0 -49 -51 -49q-50 0 -50 49q0 51 50 51q51 0 51 -51zM268 827q0 -49 -51 -49q-49 0 -49 47q0 54 49 54q51 0 51 -52zM219 680q0 -51 -49 -51q-51 0 -51 51q0 49 49 49
q51 0 51 -49zM203 506q0 -49 -49 -49q-52 0 -52 49t52 49q49 0 49 -49zM219 332q0 -49 -51 -49q-49 0 -49 49q0 51 49 51q51 0 51 -51zM375 88q0 -51 -51 -51q-50 0 -50 47q0 51 50 51q51 0 51 -47zM268 182q0 -49 -51 -49q-49 0 -49 49q0 51 49 51q51 0 51 -51z" />
    <glyph glyph-name="km_vs_i.25CC" unicode="&#x17b7;" horiz-adv-x="1141" 
d="M102 1556q0 72 26.5 122.5t69.5 82.5t96 47t107 15q57 0 115 -15t113.5 -38.5t106.5 -53t94.5 -59t77.5 -56.5t55 -45l-45 -122h-816v122zM401 1700q-80 0 -117.5 -38.5t-37.5 -105.5h526q-28 22 -67 47.5t-87 47t-103 35.5t-114 14zM563 963q0 -52 -49 -52q-51 0 -51 52
q0 49 51 49q49 0 49 -49zM606 926q0 51 51 51q50 0 50 -51q0 -49 -50 -49q-51 0 -51 49zM715 827q0 52 49 52q51 0 51 -54q0 -47 -51 -47q-49 0 -49 49zM764 680q0 49 49 49q51 0 51 -49q0 -51 -53 -51q-47 0 -47 51zM780 506q0 49 47 49q52 0 52 -49t-52 -49q-47 0 -47 49z
M563 51q0 -51 -49 -51q-51 0 -51 51q0 49 51 49q49 0 49 -49zM764 332q0 51 49 51q51 0 51 -51q0 -49 -51 -49q-49 0 -49 49zM606 88q0 47 51 47q50 0 50 -51q0 -47 -50 -47q-51 0 -51 51zM715 182q0 51 49 51q51 0 51 -51q0 -49 -51 -49q-49 0 -49 49zM420 926
q0 -49 -51 -49q-50 0 -50 49q0 51 50 51q51 0 51 -51zM313 827q0 -49 -51 -49q-49 0 -49 47q0 54 49 54q51 0 51 -52zM264 680q0 -51 -49 -51q-51 0 -51 51q0 49 49 49q51 0 51 -49zM248 506q0 -49 -49 -49q-52 0 -52 49t52 49q49 0 49 -49zM264 332q0 -49 -51 -49
q-49 0 -49 49q0 51 49 51q51 0 51 -51zM420 88q0 -51 -51 -51q-50 0 -50 47q0 51 50 51q51 0 51 -47zM313 182q0 -49 -51 -49q-49 0 -49 49q0 51 49 51q51 0 51 -51z" />
    <glyph glyph-name="km_vs_ii.25CC" unicode="&#x17b8;" horiz-adv-x="1139" 
d="M102 1556q0 72 26.5 122.5t69.5 82.5t96 47t107 15q58 0 117.5 -15.5t116.5 -40.5t109 -55.5t96 -60.5v239h123v-456h-861v122zM401 1700q-80 0 -117.5 -38.5t-37.5 -105.5h526q-28 22 -67 47.5t-87 47t-103 35.5t-114 14zM561 963q0 -52 -49 -52q-51 0 -51 52
q0 49 51 49q49 0 49 -49zM604 926q0 51 51 51q50 0 50 -51q0 -49 -50 -49q-51 0 -51 49zM713 827q0 52 49 52q51 0 51 -54q0 -47 -51 -47q-49 0 -49 49zM762 680q0 49 49 49q51 0 51 -49q0 -51 -53 -51q-47 0 -47 51zM778 506q0 49 47 49q52 0 52 -49t-52 -49q-47 0 -47 49z
M561 51q0 -51 -49 -51q-51 0 -51 51q0 49 51 49q49 0 49 -49zM762 332q0 51 49 51q51 0 51 -51q0 -49 -51 -49q-49 0 -49 49zM604 88q0 47 51 47q50 0 50 -51q0 -47 -50 -47q-51 0 -51 51zM713 182q0 51 49 51q51 0 51 -51q0 -49 -51 -49q-49 0 -49 49zM418 926
q0 -49 -51 -49q-50 0 -50 49q0 51 50 51q51 0 51 -51zM311 827q0 -49 -51 -49q-49 0 -49 47q0 54 49 54q51 0 51 -52zM262 680q0 -51 -49 -51q-51 0 -51 51q0 49 49 49q51 0 51 -49zM246 506q0 -49 -49 -49q-52 0 -52 49t52 49q49 0 49 -49zM262 332q0 -49 -51 -49
q-49 0 -49 49q0 51 49 51q51 0 51 -51zM418 88q0 -51 -51 -51q-50 0 -50 47q0 51 50 51q51 0 51 -47zM311 182q0 -49 -51 -49q-49 0 -49 49q0 51 49 51q51 0 51 -51z" />
    <glyph glyph-name="km_vs_y.25CC" unicode="&#x17b9;" horiz-adv-x="1139" 
d="M102 1556q0 72 26.5 122.5t69.5 82.5t96 47t107 15q17 0 39.5 -0.5t46.5 -3t48.5 -8t44.5 -15.5v21q0 71 46 102t122 31q34 0 70 -11t64.5 -32.5t47 -54.5t18.5 -76q0 -23 -7.5 -45.5t-20 -40.5t-30 -30t-38.5 -15q14 -9 30 -21.5t31.5 -25.5t28.5 -24.5t21 -17.5
l-45 -122h-816v122zM401 1700q-80 0 -117.5 -38.5t-37.5 -105.5h526q-28 22 -67 47.5t-87 47t-103 35.5t-114 14zM641 1798q0 -12 1.5 -19t4.5 -12l146 -81q21 0 35 6.5t22.5 17.5t12 24.5t3.5 28.5q0 22 -12.5 41t-32.5 33t-44 22.5t-46 8.5q-16 0 -32 -3t-29 -11
t-21 -21.5t-8 -34.5zM551 963q0 -52 -49 -52q-51 0 -51 52q0 49 51 49q49 0 49 -49zM594 926q0 51 51 51q49 0 49 -51q0 -49 -49 -49q-51 0 -51 49zM702 827q0 52 50 52q24 0 37.5 -14t13.5 -40q0 -23 -13.5 -35t-37.5 -12q-50 0 -50 49zM752 680q0 49 49 49q51 0 51 -49
q0 -51 -53 -51q-47 0 -47 51zM768 506q0 49 47 49q51 0 51 -49t-51 -49q-47 0 -47 49zM551 51q0 -51 -49 -51q-51 0 -51 51q0 49 51 49q49 0 49 -49zM752 332q0 51 49 51q51 0 51 -51q0 -49 -51 -49q-49 0 -49 49zM594 88q0 47 51 47q49 0 49 -51q0 -47 -49 -47
q-51 0 -51 51zM702 182q0 51 50 51q24 0 37.5 -13t13.5 -38q0 -24 -13.5 -36.5t-37.5 -12.5q-50 0 -50 49zM408 926q0 -49 -52 -49q-49 0 -49 49q0 51 49 51q52 0 52 -51zM301 827q0 -49 -51 -49q-49 0 -49 47q0 54 49 54q51 0 51 -52zM252 680q0 -51 -49 -51q-51 0 -51 51
q0 49 49 49q24 0 37.5 -12t13.5 -37zM236 506q0 -49 -50 -49q-51 0 -51 49t51 49q50 0 50 -49zM252 332q0 -25 -13.5 -37t-37.5 -12q-49 0 -49 49q0 51 49 51q24 0 37.5 -12.5t13.5 -38.5zM408 88q0 -51 -52 -51q-49 0 -49 47q0 51 49 51q52 0 52 -47zM301 182
q0 -49 -51 -49q-49 0 -49 49q0 51 49 51q51 0 51 -51z" />
    <glyph glyph-name="km_vs_yy.25CC" unicode="&#x17ba;" horiz-adv-x="1139" 
d="M102 1556q0 72 26.5 122.5t69.5 82.5t96 47t107 15q63 0 127.5 -19t126.5 -47v133h123v-198q16 -11 31 -21.5t31 -19.5v239h123v-456h-861v122zM401 1700q-80 0 -117.5 -38.5t-37.5 -105.5h526q-28 22 -67 47.5t-87 47t-103 35.5t-114 14zM590 963q0 -52 -49 -52
q-52 0 -52 52q0 49 52 49q49 0 49 -49zM633 926q0 51 51 51q49 0 49 -51q0 -49 -49 -49q-51 0 -51 49zM741 827q0 52 50 52q24 0 37.5 -14t13.5 -40q0 -23 -13.5 -35t-37.5 -12q-50 0 -50 49zM791 680q0 49 49 49q24 0 37.5 -12t13.5 -37q0 -51 -53 -51q-47 0 -47 51z
M807 506q0 49 47 49q51 0 51 -49t-51 -49q-47 0 -47 49zM590 51q0 -51 -49 -51q-52 0 -52 51q0 49 52 49q49 0 49 -49zM791 332q0 51 49 51q24 0 37.5 -12.5t13.5 -38.5q0 -25 -13.5 -37t-37.5 -12q-49 0 -49 49zM633 88q0 47 51 47q49 0 49 -51q0 -47 -49 -47q-51 0 -51 51
zM741 182q0 51 50 51q24 0 37.5 -13t13.5 -38q0 -24 -13.5 -36.5t-37.5 -12.5q-50 0 -50 49zM446 926q0 -49 -51 -49q-49 0 -49 49q0 51 49 51q51 0 51 -51zM340 827q0 -49 -51 -49q-49 0 -49 47q0 54 49 54q51 0 51 -52zM291 680q0 -51 -49 -51q-52 0 -52 51q0 49 50 49
q24 0 37.5 -12t13.5 -37zM274 506q0 -49 -49 -49q-51 0 -51 49t51 49q49 0 49 -49zM291 332q0 -25 -13.5 -37t-37.5 -12q-50 0 -50 49q0 51 50 51q24 0 37.5 -12.5t13.5 -38.5zM446 88q0 -51 -51 -51q-49 0 -49 47q0 51 49 51q51 0 51 -47zM340 182q0 -49 -51 -49
q-49 0 -49 49q0 51 49 51q51 0 51 -51z" />
    <glyph glyph-name="km_vs_u.25CC" unicode="&#x17bb;" horiz-adv-x="977" 
d="M397 -737v491h144v-491h-144zM518 963q0 -52 -49 -52q-51 0 -51 52q0 49 51 49q49 0 49 -49zM561 926q0 51 51 51q50 0 50 -51q0 -49 -50 -49q-51 0 -51 49zM670 827q0 52 49 52q51 0 51 -54q0 -47 -51 -47q-49 0 -49 49zM719 680q0 49 49 49q51 0 51 -49q0 -51 -53 -51
q-47 0 -47 51zM735 506q0 49 47 49q52 0 52 -49t-52 -49q-47 0 -47 49zM518 51q0 -51 -49 -51q-51 0 -51 51q0 49 51 49q49 0 49 -49zM719 332q0 51 49 51q51 0 51 -51q0 -49 -51 -49q-49 0 -49 49zM561 88q0 47 51 47q50 0 50 -51q0 -47 -50 -47q-51 0 -51 51zM670 182
q0 51 49 51q51 0 51 -51q0 -49 -51 -49q-49 0 -49 49zM375 926q0 -49 -51 -49q-50 0 -50 49q0 51 50 51q51 0 51 -51zM268 827q0 -49 -51 -49q-49 0 -49 47q0 54 49 54q51 0 51 -52zM219 680q0 -51 -49 -51q-51 0 -51 51q0 49 49 49q51 0 51 -49zM203 506q0 -49 -49 -49
q-52 0 -52 49t52 49q49 0 49 -49zM219 332q0 -49 -51 -49q-49 0 -49 49q0 51 49 51q51 0 51 -51zM375 88q0 -51 -51 -51q-50 0 -50 47q0 51 50 51q51 0 51 -47zM268 182q0 -49 -51 -49q-49 0 -49 49q0 51 49 51q51 0 51 -51z" />
    <glyph glyph-name="km_vs_uu.25CC" unicode="&#x17bc;" horiz-adv-x="977" 
d="M348 -246q0 -66 2 -132t13.5 -118.5t36.5 -85t71 -32.5t71 32.5t36.5 85t13.5 118.5t2 132h123q0 -46 -1 -100.5t-8 -109t-22 -105t-42 -90t-69.5 -63t-103.5 -23.5q-62 0 -104 23.5t-69 63t-42 90t-22 105t-8 109t-1 100.5h123zM518 963q0 -52 -49 -52q-51 0 -51 52
q0 49 51 49q49 0 49 -49zM561 926q0 51 51 51q50 0 50 -51q0 -49 -50 -49q-51 0 -51 49zM670 827q0 52 49 52q51 0 51 -54q0 -47 -51 -47q-49 0 -49 49zM719 680q0 49 49 49q51 0 51 -49q0 -51 -53 -51q-47 0 -47 51zM735 506q0 49 47 49q52 0 52 -49t-52 -49q-47 0 -47 49z
M518 51q0 -51 -49 -51q-51 0 -51 51q0 49 51 49q49 0 49 -49zM719 332q0 51 49 51q51 0 51 -51q0 -49 -51 -49q-49 0 -49 49zM561 88q0 47 51 47q50 0 50 -51q0 -47 -50 -47q-51 0 -51 51zM670 182q0 51 49 51q51 0 51 -51q0 -49 -51 -49q-49 0 -49 49zM375 926
q0 -49 -51 -49q-50 0 -50 49q0 51 50 51q51 0 51 -51zM268 827q0 -49 -51 -49q-49 0 -49 47q0 54 49 54q51 0 51 -52zM219 680q0 -51 -49 -51q-51 0 -51 51q0 49 49 49q51 0 51 -49zM203 506q0 -49 -49 -49q-52 0 -52 49t52 49q49 0 49 -49zM219 332q0 -49 -51 -49
q-49 0 -49 49q0 51 49 51q51 0 51 -51zM375 88q0 -51 -51 -51q-50 0 -50 47q0 51 50 51q51 0 51 -47zM268 182q0 -49 -51 -49q-49 0 -49 49q0 51 49 51q51 0 51 -51z" />
    <glyph glyph-name="km_vs_ua.25CC" unicode="&#x17bd;" horiz-adv-x="977" 
d="M326 -246v-332l143 121l143 -121v332h123v-491h-123l-143 135l-143 -135h-123v491h123zM518 963q0 -52 -49 -52q-51 0 -51 52q0 49 51 49q49 0 49 -49zM561 926q0 51 51 51q50 0 50 -51q0 -49 -50 -49q-51 0 -51 49zM670 827q0 52 49 52q51 0 51 -54q0 -47 -51 -47
q-49 0 -49 49zM719 680q0 49 49 49q51 0 51 -49q0 -51 -53 -51q-47 0 -47 51zM735 506q0 49 47 49q52 0 52 -49t-52 -49q-47 0 -47 49zM518 51q0 -51 -49 -51q-51 0 -51 51q0 49 51 49q49 0 49 -49zM719 332q0 51 49 51q51 0 51 -51q0 -49 -51 -49q-49 0 -49 49zM561 88
q0 47 51 47q50 0 50 -51q0 -47 -50 -47q-51 0 -51 51zM670 182q0 51 49 51q51 0 51 -51q0 -49 -51 -49q-49 0 -49 49zM375 926q0 -49 -51 -49q-50 0 -50 49q0 51 50 51q51 0 51 -51zM268 827q0 -49 -51 -49q-49 0 -49 47q0 54 49 54q51 0 51 -52zM219 680q0 -51 -49 -51
q-51 0 -51 51q0 49 49 49q51 0 51 -49zM203 506q0 -49 -49 -49q-52 0 -52 49t52 49q49 0 49 -49zM219 332q0 -49 -51 -49q-49 0 -49 49q0 51 49 51q51 0 51 -51zM375 88q0 -51 -51 -51q-50 0 -50 47q0 51 50 51q51 0 51 -47zM268 182q0 -49 -51 -49q-49 0 -49 49q0 51 49 51
q51 0 51 -51z" />
    <glyph glyph-name="km_vs_oe" unicode="&#x17be;" horiz-adv-x="1845" 
d="M842 1556q0 72 26.5 122.5t69 82.5t96 47t107.5 15q58 0 117.5 -15.5t116 -40.5t108.5 -55.5t96 -60.5v239h123v-456h-860v122zM453 133q55 25 86.5 61t31.5 89q0 21 -9.5 32t-23 16t-27 6t-22.5 1v123h43q26 0 53 -9.5t49 -28t36 -47t14 -67.5q0 -67 -32.5 -123.5
t-80.5 -98t-103 -64.5t-99 -23h-60v819l-227 213v80l313 219l166 -155l70 49v-84l-127 -86l-137 129l-150 -105l236 -219v-727zM1141 1700q-81 0 -118.5 -38.5t-37.5 -105.5h526q-27 22 -66.5 47.5t-87 47t-102.5 35.5t-114 14zM1317 963q0 -52 -49 -52q-51 0 -51 52
q0 49 51 49q49 0 49 -49zM1360 926q0 51 51 51q49 0 49 -51q0 -49 -49 -49q-51 0 -51 49zM1468 827q0 52 50 52q24 0 37.5 -14t13.5 -40q0 -23 -13.5 -35t-37.5 -12q-50 0 -50 49zM1518 680q0 49 49 49q24 0 37.5 -12t13.5 -37q0 -51 -53 -51q-47 0 -47 51zM1534 506
q0 49 47 49q51 0 51 -49t-51 -49q-47 0 -47 49zM1317 51q0 -51 -49 -51q-51 0 -51 51q0 49 51 49q49 0 49 -49zM1518 332q0 51 49 51q24 0 37.5 -12.5t13.5 -38.5q0 -25 -13.5 -37t-37.5 -12q-49 0 -49 49zM1360 88q0 47 51 47q49 0 49 -51q0 -47 -49 -47q-51 0 -51 51z
M1468 182q0 51 50 51q24 0 37.5 -13t13.5 -38q0 -24 -13.5 -36.5t-37.5 -12.5q-50 0 -50 49zM1174 926q0 -49 -52 -49q-49 0 -49 49q0 51 49 51q52 0 52 -51zM1067 827q0 -49 -51 -49q-49 0 -49 47q0 54 49 54q51 0 51 -52zM1018 680q0 -51 -49 -51q-51 0 -51 51q0 49 49 49
q24 0 37.5 -12t13.5 -37zM1001 506q0 -49 -49 -49q-51 0 -51 49t51 49q49 0 49 -49zM1018 332q0 -25 -13.5 -37t-37.5 -12q-49 0 -49 49q0 51 49 51q24 0 37.5 -12.5t13.5 -38.5zM1174 88q0 -51 -52 -51q-49 0 -49 47q0 51 49 51q52 0 52 -47zM1067 182q0 -49 -51 -49
q-49 0 -49 49q0 51 49 51q51 0 51 -51z" />
    <glyph glyph-name="km_vs_ya" unicode="&#x17bf;" horiz-adv-x="2091" 
d="M1948 -283q0 -93 -28.5 -159.5t-75.5 -109t-108.5 -63t-127.5 -20.5h-181q-66 0 -127.5 20.5t-108.5 63t-75.5 109t-28.5 159.5v119h144v-110q0 -115 47 -176.5t149 -61.5h181q102 0 149 61.5t47 176.5v1708h-717v122q0 72 26.5 122.5t69.5 82.5t96 47t107 15
q63 0 128 -19t126 -47v133h123v-198q16 -11 31 -21.5t31 -19.5v239h123v-2173zM453 133q55 25 86.5 61t31.5 89q0 21 -9.5 32t-23 16t-27 6t-22.5 1v123h43q26 0 53 -9.5t49 -28t36 -47t14 -67.5q0 -67 -32.5 -123.5t-80.5 -98t-103 -64.5t-99 -23h-60v819l-227 213v80
l313 219l166 -155l70 49v-84l-127 -86l-137 129l-150 -105l236 -219v-727zM1386 1700q-80 0 -117.5 -38.5t-37.5 -105.5h526q-28 22 -67 47.5t-87 47t-103 35.5t-114 14zM1276 963q0 -52 -49 -52q-51 0 -51 52q0 49 51 49q49 0 49 -49zM1319 926q0 51 51 51q49 0 49 -51
q0 -49 -49 -49q-51 0 -51 49zM1427 827q0 52 50 52q24 0 37.5 -14t13.5 -40q0 -23 -13.5 -35t-37.5 -12q-50 0 -50 49zM1477 680q0 49 49 49q51 0 51 -49q0 -51 -53 -51q-47 0 -47 51zM1493 506q0 49 47 49q51 0 51 -49t-51 -49q-47 0 -47 49zM1276 51q0 -51 -49 -51
q-51 0 -51 51q0 49 51 49q49 0 49 -49zM1477 332q0 51 49 51q51 0 51 -51q0 -49 -51 -49q-49 0 -49 49zM1319 88q0 47 51 47q49 0 49 -51q0 -47 -49 -47q-51 0 -51 51zM1427 182q0 51 50 51q24 0 37.5 -13t13.5 -38q0 -24 -13.5 -36.5t-37.5 -12.5q-50 0 -50 49zM1133 926
q0 -49 -52 -49q-49 0 -49 49q0 51 49 51q52 0 52 -51zM1026 827q0 -49 -51 -49q-49 0 -49 47q0 54 49 54q51 0 51 -52zM977 680q0 -51 -49 -51q-51 0 -51 51q0 49 49 49q24 0 37.5 -12t13.5 -37zM961 506q0 -49 -50 -49q-51 0 -51 49t51 49q50 0 50 -49zM977 332
q0 -25 -13.5 -37t-37.5 -12q-49 0 -49 49q0 51 49 51q24 0 37.5 -12.5t13.5 -38.5zM1133 88q0 -51 -52 -51q-49 0 -49 47q0 51 49 51q52 0 52 -47zM1026 182q0 -49 -51 -49q-49 0 -49 49q0 51 49 51q51 0 51 -51z" />
    <glyph glyph-name="km_vs_ie" unicode="&#x17c0;" horiz-adv-x="2091" 
d="M1948 -283q0 -93 -28.5 -159.5t-75.5 -109t-108.5 -63t-127.5 -20.5h-181q-66 0 -127.5 20.5t-108.5 63t-75.5 109t-28.5 159.5v119h144v-110q0 -115 47 -176.5t149 -61.5h181q102 0 149 61.5t47 176.5v1552q0 33 -6.5 61.5t-21 49.5t-38 33t-57.5 12h-284q-50 0 -90 7
t-67.5 27t-42.5 57t-15 97q0 29 -9 45t-27.5 23.5t-46.5 8.5t-65 1v123h62q54 0 93 -12.5t65 -34t38.5 -50.5t12.5 -63v-10q0 -35 8.5 -54.5t23.5 -29t35 -11.5t43 -2h264q139 0 204 -67.5t65 -190.5v-1581zM453 133q55 25 86.5 61t31.5 89q0 21 -9.5 32t-23 16t-27 6
t-22.5 1v123h43q26 0 53 -9.5t49 -28t36 -47t14 -67.5q0 -67 -32.5 -123.5t-80.5 -98t-103 -64.5t-99 -23h-60v819l-227 213v80l313 219l166 -155l70 49v-84l-127 -86l-137 129l-150 -105l236 -219v-727zM1235 963q0 -52 -49 -52q-51 0 -51 52q0 49 51 49q49 0 49 -49z
M1278 926q0 51 51 51q49 0 49 -51q0 -49 -49 -49q-51 0 -51 49zM1386 827q0 52 50 52q24 0 37.5 -14t13.5 -40q0 -23 -13.5 -35t-37.5 -12q-50 0 -50 49zM1436 680q0 49 49 49q51 0 51 -49q0 -51 -53 -51q-47 0 -47 51zM1452 506q0 49 47 49q51 0 51 -49t-51 -49
q-47 0 -47 49zM1235 51q0 -51 -49 -51q-51 0 -51 51q0 49 51 49q49 0 49 -49zM1436 332q0 51 49 51q51 0 51 -51q0 -49 -51 -49q-49 0 -49 49zM1278 88q0 47 51 47q49 0 49 -51q0 -47 -49 -47q-51 0 -51 51zM1386 182q0 51 50 51q24 0 37.5 -13t13.5 -38q0 -24 -13.5 -36.5
t-37.5 -12.5q-50 0 -50 49zM1092 926q0 -49 -52 -49q-49 0 -49 49q0 51 49 51q52 0 52 -51zM985 827q0 -49 -51 -49q-49 0 -49 47q0 54 49 54q51 0 51 -52zM936 680q0 -51 -49 -51q-51 0 -51 51q0 49 49 49q51 0 51 -49zM920 506q0 -49 -50 -49q-51 0 -51 49t51 49
q50 0 50 -49zM936 332q0 -49 -51 -49q-49 0 -49 49q0 51 49 51q51 0 51 -51zM1092 88q0 -51 -52 -51q-49 0 -49 47q0 51 49 51q52 0 52 -47zM985 182q0 -49 -51 -49q-49 0 -49 49q0 51 49 51q51 0 51 -51z" />
    <glyph glyph-name="km_vs_e.25CC" unicode="&#x17c1;" horiz-adv-x="1702" 
d="M453 133q55 25 86.5 61t31.5 89q0 21 -9.5 32t-23 16t-27 6t-22.5 1v123h43q26 0 53 -9.5t49 -28t36 -47t14 -67.5q0 -67 -32.5 -123.5t-80.5 -98t-103 -64.5t-99 -23h-60v819l-227 213v80l313 219l166 -155l70 49v-84l-127 -86l-137 129l-150 -105l236 -219v-727z
M1243 963q0 -52 -49 -52q-51 0 -51 52q0 49 51 49q49 0 49 -49zM1286 926q0 51 51 51q49 0 49 -51q0 -49 -49 -49q-51 0 -51 49zM1395 827q0 52 49 52q51 0 51 -54q0 -47 -51 -47q-49 0 -49 49zM1444 680q0 49 49 49q51 0 51 -49q0 -51 -53 -51q-47 0 -47 51zM1460 506
q0 49 47 49q52 0 52 -49t-52 -49q-47 0 -47 49zM1243 51q0 -51 -49 -51q-51 0 -51 51q0 49 51 49q49 0 49 -49zM1444 332q0 51 49 51q51 0 51 -51q0 -49 -51 -49q-49 0 -49 49zM1286 88q0 47 51 47q49 0 49 -51q0 -47 -49 -47q-51 0 -51 51zM1395 182q0 51 49 51
q51 0 51 -51q0 -49 -51 -49q-49 0 -49 49zM1100 926q0 -49 -51 -49q-50 0 -50 49q0 51 50 51q51 0 51 -51zM993 827q0 -49 -51 -49q-49 0 -49 47q0 54 49 54q51 0 51 -52zM944 680q0 -51 -49 -51q-51 0 -51 51q0 49 49 49q51 0 51 -49zM928 506q0 -49 -49 -49q-52 0 -52 49
t52 49q49 0 49 -49zM944 332q0 -49 -51 -49q-49 0 -49 49q0 51 49 51q51 0 51 -51zM1100 88q0 -51 -51 -51q-50 0 -50 47q0 51 50 51q51 0 51 -47zM993 182q0 -49 -51 -49q-49 0 -49 49q0 51 49 51q51 0 51 -51z" />
    <glyph glyph-name="km_vs_ae.25CC" unicode="&#x17c2;" horiz-adv-x="1702" 
d="M324 1556q-54 0 -54 -34q0 -12 7.5 -21t19 -15t26 -8.5t29.5 -2.5q42 0 73.5 13t52.5 34.5t31.5 49t10.5 56.5q0 55 -36.5 73.5t-106.5 18.5l18 103q73 0 124 -13.5t83.5 -38.5t47 -60.5t14.5 -80.5q0 -46 -19 -92t-56 -83t-91.5 -60t-124.5 -23q-35 0 -75 5.5t-73.5 22
t-55.5 45.5t-22 77q0 51 42 83.5t114 32.5h35zM453 133q55 25 86.5 61t31.5 89q0 21 -9.5 32t-23 16t-27 6t-22.5 1v123h43q26 0 53 -9.5t49 -28t36 -47t14 -67.5q0 -67 -32.5 -123.5t-80.5 -98t-103 -64.5t-99 -23h-60v819l-227 213v80l313 219l166 -155l70 49v-84
l-127 -86l-137 129l-150 -105l236 -219v-727zM1243 963q0 -52 -49 -52q-51 0 -51 52q0 49 51 49q49 0 49 -49zM1286 926q0 51 51 51q49 0 49 -51q0 -49 -49 -49q-51 0 -51 49zM1395 827q0 52 49 52q51 0 51 -54q0 -47 -51 -47q-49 0 -49 49zM1444 680q0 49 49 49
q51 0 51 -49q0 -51 -53 -51q-47 0 -47 51zM1460 506q0 49 47 49q52 0 52 -49t-52 -49q-47 0 -47 49zM1243 51q0 -51 -49 -51q-51 0 -51 51q0 49 51 49q49 0 49 -49zM1444 332q0 51 49 51q51 0 51 -51q0 -49 -51 -49q-49 0 -49 49zM1286 88q0 47 51 47q49 0 49 -51
q0 -47 -49 -47q-51 0 -51 51zM1395 182q0 51 49 51q51 0 51 -51q0 -49 -51 -49q-49 0 -49 49zM1100 926q0 -49 -51 -49q-50 0 -50 49q0 51 50 51q51 0 51 -51zM993 827q0 -49 -51 -49q-49 0 -49 47q0 54 49 54q51 0 51 -52zM944 680q0 -51 -49 -51q-51 0 -51 51q0 49 49 49
q51 0 51 -49zM928 506q0 -49 -49 -49q-52 0 -52 49t52 49q49 0 49 -49zM944 332q0 -49 -51 -49q-49 0 -49 49q0 51 49 51q51 0 51 -51zM1100 88q0 -51 -51 -51q-50 0 -50 47q0 51 50 51q51 0 51 -47zM993 182q0 -49 -51 -49q-49 0 -49 49q0 51 49 51q51 0 51 -51z" />
    <glyph glyph-name="km_vs_ai.25CC" unicode="&#x17c3;" horiz-adv-x="1743" 
d="M494 133q55 25 86.5 61t31.5 89q0 21 -9.5 32t-23 16t-27 6t-22.5 1v123h43q26 0 53 -9.5t49 -28t36 -47t14 -67.5q0 -67 -32.5 -123.5t-80.5 -98t-103 -64.5t-99 -23h-60v819l-227 213v80l313 219l166 -155l70 49v-84l-127 -86l-137 129l-150 -105l236 -219v-727z
M215 1556q24 31 55.5 68t70 68t83.5 52t96 21q42 0 79 -14t65 -39t44.5 -59.5t16.5 -75.5q0 -62 -29 -109t-94 -94l-55 80q29 20 47 39.5t18 50.5q0 15 -7.5 29t-20 25t-29.5 17.5t-35 6.5q-43 0 -84 -28.5t-78 -68t-68 -81.5t-54 -70l-324 383l88 66zM1284 963
q0 -52 -49 -52q-51 0 -51 52q0 49 51 49q49 0 49 -49zM1327 926q0 51 51 51q49 0 49 -51q0 -49 -49 -49q-51 0 -51 49zM1436 827q0 52 49 52q51 0 51 -54q0 -47 -51 -47q-49 0 -49 49zM1485 680q0 49 49 49q51 0 51 -49q0 -51 -53 -51q-47 0 -47 51zM1501 506q0 49 47 49
q51 0 51 -49t-51 -49q-47 0 -47 49zM1284 51q0 -51 -49 -51q-51 0 -51 51q0 49 51 49q49 0 49 -49zM1485 332q0 51 49 51q51 0 51 -51q0 -49 -51 -49q-49 0 -49 49zM1327 88q0 47 51 47q49 0 49 -51q0 -47 -49 -47q-51 0 -51 51zM1436 182q0 51 49 51q51 0 51 -51
q0 -49 -51 -49q-49 0 -49 49zM1141 926q0 -49 -51 -49q-50 0 -50 49q0 51 50 51q51 0 51 -51zM1034 827q0 -49 -51 -49q-49 0 -49 47q0 54 49 54q51 0 51 -52zM985 680q0 -51 -49 -51q-51 0 -51 51q0 49 49 49q51 0 51 -49zM969 506q0 -49 -49 -49q-52 0 -52 49t52 49
q49 0 49 -49zM985 332q0 -49 -51 -49q-49 0 -49 49q0 51 49 51q51 0 51 -51zM1141 88q0 -51 -51 -51q-50 0 -50 47q0 51 50 51q51 0 51 -47zM1034 182q0 -49 -51 -49q-49 0 -49 49q0 51 49 51q51 0 51 -51z" />
    <glyph glyph-name="km_vs_oo" unicode="&#x17c4;" horiz-adv-x="2476" 
d="M453 133q55 25 86.5 61t31.5 89q0 21 -9.5 32t-23 16t-27 6t-22.5 1v123h43q26 0 53 -9.5t49 -28t36 -47t14 -67.5q0 -67 -32.5 -123.5t-80.5 -98t-103 -64.5t-99 -23h-60v819l-227 213v80l313 219l166 -155l70 49v-84l-127 -86l-137 129l-150 -105l236 -219v-727z
M1614 1171l291 181l428 -258v-1094h-144v1024l-315 197l-260 -156v106zM1317 963q0 -52 -49 -52q-51 0 -51 52q0 49 51 49q49 0 49 -49zM1360 926q0 51 51 51q49 0 49 -51q0 -49 -49 -49q-51 0 -51 49zM1468 827q0 52 50 52q24 0 37.5 -14t13.5 -40q0 -23 -13.5 -35
t-37.5 -12q-50 0 -50 49zM1518 680q0 49 49 49q24 0 37.5 -12t13.5 -37q0 -51 -53 -51q-47 0 -47 51zM1534 506q0 49 47 49q51 0 51 -49t-51 -49q-47 0 -47 49zM1317 51q0 -51 -49 -51q-51 0 -51 51q0 49 51 49q49 0 49 -49zM1518 332q0 51 49 51q24 0 37.5 -12.5
t13.5 -38.5q0 -25 -13.5 -37t-37.5 -12q-49 0 -49 49zM1360 88q0 47 51 47q49 0 49 -51q0 -47 -49 -47q-51 0 -51 51zM1468 182q0 51 50 51q24 0 37.5 -13t13.5 -38q0 -24 -13.5 -36.5t-37.5 -12.5q-50 0 -50 49zM1174 926q0 -49 -52 -49q-49 0 -49 49q0 51 49 51
q52 0 52 -51zM1067 827q0 -49 -51 -49q-49 0 -49 47q0 54 49 54q51 0 51 -52zM1018 680q0 -51 -49 -51q-51 0 -51 51q0 49 49 49q24 0 37.5 -12t13.5 -37zM1001 506q0 -49 -49 -49q-51 0 -51 49t51 49q49 0 49 -49zM1018 332q0 -25 -13.5 -37t-37.5 -12q-49 0 -49 49
q0 51 49 51q24 0 37.5 -12.5t13.5 -38.5zM1174 88q0 -51 -52 -51q-49 0 -49 47q0 51 49 51q52 0 52 -47zM1067 182q0 -49 -51 -49q-49 0 -49 49q0 51 49 51q51 0 51 -51z" />
    <glyph glyph-name="km_vs_au" unicode="&#x17c5;" horiz-adv-x="2476" 
d="M1614 1171l291 181l284 -172v540h144v-1720h-144v1024l-315 197l-260 -156v106zM453 133q55 25 86.5 61t31.5 89q0 21 -9.5 32t-23 16t-27 6t-22.5 1v123h43q26 0 53 -9.5t49 -28t36 -47t14 -67.5q0 -67 -32.5 -123.5t-80.5 -98t-103 -64.5t-99 -23h-60v819l-227 213v80
l313 219l166 -155l70 49v-84l-127 -86l-137 129l-150 -105l236 -219v-727zM1276 963q0 -52 -49 -52q-51 0 -51 52q0 49 51 49q49 0 49 -49zM1319 926q0 51 51 51q49 0 49 -51q0 -49 -49 -49q-51 0 -51 49zM1427 827q0 52 50 52q24 0 37.5 -14t13.5 -40q0 -23 -13.5 -35
t-37.5 -12q-50 0 -50 49zM1477 680q0 49 49 49q51 0 51 -49q0 -51 -53 -51q-47 0 -47 51zM1493 506q0 49 47 49q51 0 51 -49t-51 -49q-47 0 -47 49zM1276 51q0 -51 -49 -51q-51 0 -51 51q0 49 51 49q49 0 49 -49zM1477 332q0 51 49 51q51 0 51 -51q0 -49 -51 -49
q-49 0 -49 49zM1319 88q0 47 51 47q49 0 49 -51q0 -47 -49 -47q-51 0 -51 51zM1427 182q0 51 50 51q24 0 37.5 -13t13.5 -38q0 -24 -13.5 -36.5t-37.5 -12.5q-50 0 -50 49zM1133 926q0 -49 -52 -49q-49 0 -49 49q0 51 49 51q52 0 52 -51zM1026 827q0 -49 -51 -49
q-49 0 -49 47q0 54 49 54q51 0 51 -52zM977 680q0 -51 -49 -51q-51 0 -51 51q0 49 49 49q24 0 37.5 -12t13.5 -37zM961 506q0 -49 -50 -49q-51 0 -51 49t51 49q50 0 50 -49zM977 332q0 -25 -13.5 -37t-37.5 -12q-49 0 -49 49q0 51 49 51q24 0 37.5 -12.5t13.5 -38.5z
M1133 88q0 -51 -52 -51q-49 0 -49 47q0 51 49 51q52 0 52 -47zM1026 182q0 -49 -51 -49q-49 0 -49 49q0 51 49 51q51 0 51 -51z" />
    <glyph glyph-name="km_nikahit.25CC" unicode="&#x17c6;" horiz-adv-x="977" 
d="M231 1589q0 48 19 91t51.5 74.5t76 50t91.5 18.5t91 -18.5t75.5 -50t51 -74.5t18.5 -91t-18.5 -90.5t-51 -74t-75.5 -50t-91 -18.5t-91.5 18.5t-76 50t-51.5 74t-19 90.5zM367 1595q0 -21 8 -38.5t22 -31t32.5 -21t39.5 -7.5q42 0 71 28t29 70q0 21 -8 39.5t-21.5 32
t-31.5 21.5t-39 8t-39.5 -8t-32.5 -21.5t-22 -32t-8 -39.5zM518 963q0 -52 -49 -52q-51 0 -51 52q0 49 51 49q49 0 49 -49zM561 926q0 51 51 51q50 0 50 -51q0 -49 -50 -49q-51 0 -51 49zM670 827q0 52 49 52q51 0 51 -54q0 -47 -51 -47q-49 0 -49 49zM719 680q0 49 49 49
q51 0 51 -49q0 -51 -53 -51q-47 0 -47 51zM735 506q0 49 47 49q52 0 52 -49t-52 -49q-47 0 -47 49zM518 51q0 -51 -49 -51q-51 0 -51 51q0 49 51 49q49 0 49 -49zM719 332q0 51 49 51q51 0 51 -51q0 -49 -51 -49q-49 0 -49 49zM561 88q0 47 51 47q50 0 50 -51q0 -47 -50 -47
q-51 0 -51 51zM670 182q0 51 49 51q51 0 51 -51q0 -49 -51 -49q-49 0 -49 49zM375 926q0 -49 -51 -49q-50 0 -50 49q0 51 50 51q51 0 51 -51zM268 827q0 -49 -51 -49q-49 0 -49 47q0 54 49 54q51 0 51 -52zM219 680q0 -51 -49 -51q-51 0 -51 51q0 49 49 49q51 0 51 -49z
M203 506q0 -49 -49 -49q-52 0 -52 49t52 49q49 0 49 -49zM219 332q0 -49 -51 -49q-49 0 -49 49q0 51 49 51q51 0 51 -51zM375 88q0 -51 -51 -51q-50 0 -50 47q0 51 50 51q51 0 51 -47zM268 182q0 -49 -51 -49q-49 0 -49 49q0 51 49 51q51 0 51 -51z" />
    <glyph glyph-name="km_reahmuk.25CC" unicode="&#x17c7;" horiz-adv-x="1628" 
d="M991 975q0 48 19 90.5t51.5 74t76 50t91.5 18.5t91 -18.5t75 -50t50.5 -74t18.5 -90.5t-18.5 -91t-50.5 -74.5t-75 -50t-91 -18.5t-91.5 18.5t-76 50t-51.5 74.5t-19 91zM1126 981q0 -21 8.5 -38.5t22.5 -31t32.5 -21t39.5 -7.5q42 0 71 28t29 70t-29 71t-71 29
q-21 0 -39.5 -8t-32.5 -21.5t-22.5 -31.5t-8.5 -39zM991 213q0 48 19 90.5t51.5 74t76 50t91.5 18.5t91 -18.5t75 -50t50.5 -74t18.5 -90.5t-18.5 -90.5t-50.5 -74t-75 -50t-91 -18.5t-91.5 18.5t-76 50t-51.5 74t-19 90.5zM1126 219q0 -21 8.5 -38.5t22.5 -31t32.5 -21
t39.5 -7.5q42 0 71 28t29 70t-29 71t-71 29q-21 0 -39.5 -8t-32.5 -21.5t-22.5 -31.5t-8.5 -39zM518 963q0 -52 -49 -52q-51 0 -51 52q0 49 51 49q49 0 49 -49zM561 926q0 51 51 51q50 0 50 -51q0 -49 -50 -49q-51 0 -51 49zM670 827q0 52 49 52q51 0 51 -54q0 -47 -51 -47
q-49 0 -49 49zM719 680q0 49 49 49q51 0 51 -49q0 -51 -53 -51q-47 0 -47 51zM735 506q0 49 47 49q52 0 52 -49t-52 -49q-47 0 -47 49zM518 51q0 -51 -49 -51q-51 0 -51 51q0 49 51 49q49 0 49 -49zM719 332q0 51 49 51q51 0 51 -51q0 -49 -51 -49q-49 0 -49 49zM561 88
q0 47 51 47q50 0 50 -51q0 -47 -50 -47q-51 0 -51 51zM670 182q0 51 49 51q51 0 51 -51q0 -49 -51 -49q-49 0 -49 49zM375 926q0 -49 -51 -49q-50 0 -50 49q0 51 50 51q51 0 51 -51zM268 827q0 -49 -51 -49q-49 0 -49 47q0 54 49 54q51 0 51 -52zM219 680q0 -51 -49 -51
q-51 0 -51 51q0 49 49 49q51 0 51 -49zM203 506q0 -49 -49 -49q-52 0 -52 49t52 49q49 0 49 -49zM219 332q0 -49 -51 -49q-49 0 -49 49q0 51 49 51q51 0 51 -51zM375 88q0 -51 -51 -51q-50 0 -50 47q0 51 50 51q51 0 51 -47zM268 182q0 -49 -51 -49q-49 0 -49 49q0 51 49 51
q51 0 51 -51z" />
    <glyph glyph-name="km_yukaleakpintu.25CC" unicode="&#x17c8;" horiz-adv-x="1462" 
d="M971 971q0 34 13 65t35 53.5t52 36t64 13.5t63.5 -13.5t51.5 -36t35 -53.5t13 -65q0 -35 -13 -65t-35 -52.5t-51.5 -35.5t-63.5 -13t-64 13t-52 35.5t-35 52.5t-13 65zM971 96q0 34 13 65t35 53.5t52 36t64 13.5t63.5 -13.5t51.5 -36t35 -53.5t13 -65q0 -35 -13 -65
t-35 -52.5t-51.5 -35.5t-63.5 -13t-64 13t-52 35.5t-35 52.5t-13 65zM518 963q0 -52 -49 -52q-51 0 -51 52q0 49 51 49q49 0 49 -49zM561 926q0 51 51 51q50 0 50 -51q0 -49 -50 -49q-51 0 -51 49zM670 827q0 52 49 52q51 0 51 -54q0 -47 -51 -47q-49 0 -49 49zM719 680
q0 49 49 49q51 0 51 -49q0 -51 -53 -51q-47 0 -47 51zM735 506q0 49 47 49q52 0 52 -49t-52 -49q-47 0 -47 49zM518 51q0 -51 -49 -51q-51 0 -51 51q0 49 51 49q49 0 49 -49zM719 332q0 51 49 51q51 0 51 -51q0 -49 -51 -49q-49 0 -49 49zM561 88q0 47 51 47q50 0 50 -51
q0 -47 -50 -47q-51 0 -51 51zM670 182q0 51 49 51q51 0 51 -51q0 -49 -51 -49q-49 0 -49 49zM375 926q0 -49 -51 -49q-50 0 -50 49q0 51 50 51q51 0 51 -51zM268 827q0 -49 -51 -49q-49 0 -49 47q0 54 49 54q51 0 51 -52zM219 680q0 -51 -49 -51q-51 0 -51 51q0 49 49 49
q51 0 51 -49zM203 506q0 -49 -49 -49q-52 0 -52 49t52 49q49 0 49 -49zM219 332q0 -49 -51 -49q-49 0 -49 49q0 51 49 51q51 0 51 -51zM375 88q0 -51 -51 -51q-50 0 -50 47q0 51 50 51q51 0 51 -47zM268 182q0 -49 -51 -49q-49 0 -49 49q0 51 49 51q51 0 51 -51z" />
    <glyph glyph-name="km_muusekatoan.25CC" unicode="&#x17c9;" horiz-adv-x="977" 
d="M377 1720v-389h-144v389h144zM705 1720v-389h-144v389h144zM518 963q0 -52 -49 -52q-51 0 -51 52q0 49 51 49q49 0 49 -49zM561 926q0 51 51 51q50 0 50 -51q0 -49 -50 -49q-51 0 -51 49zM670 827q0 52 49 52q51 0 51 -54q0 -47 -51 -47q-49 0 -49 49zM719 680
q0 49 49 49q51 0 51 -49q0 -51 -53 -51q-47 0 -47 51zM735 506q0 49 47 49q52 0 52 -49t-52 -49q-47 0 -47 49zM518 51q0 -51 -49 -51q-51 0 -51 51q0 49 51 49q49 0 49 -49zM719 332q0 51 49 51q51 0 51 -51q0 -49 -51 -49q-49 0 -49 49zM561 88q0 47 51 47q50 0 50 -51
q0 -47 -50 -47q-51 0 -51 51zM670 182q0 51 49 51q51 0 51 -51q0 -49 -51 -49q-49 0 -49 49zM375 926q0 -49 -51 -49q-50 0 -50 49q0 51 50 51q51 0 51 -51zM268 827q0 -49 -51 -49q-49 0 -49 47q0 54 49 54q51 0 51 -52zM219 680q0 -51 -49 -51q-51 0 -51 51q0 49 49 49
q51 0 51 -49zM203 506q0 -49 -49 -49q-52 0 -52 49t52 49q49 0 49 -49zM219 332q0 -49 -51 -49q-49 0 -49 49q0 51 49 51q51 0 51 -51zM375 88q0 -51 -51 -51q-50 0 -50 47q0 51 50 51q51 0 51 -47zM268 182q0 -49 -51 -49q-49 0 -49 49q0 51 49 51q51 0 51 -51z" />
    <glyph glyph-name="km_treisap.25CC" unicode="&#x17ca;" horiz-adv-x="1223" 
d="M391 1675l-176 -119l43 -43l-76 -65l-80 76v80l320 219l180 -168l242 168l166 -156l69 49v-84l-127 -86l-137 129l-244 -168zM645 963q0 -52 -49 -52q-51 0 -51 52q0 49 51 49q49 0 49 -49zM688 926q0 51 51 51q49 0 49 -51q0 -49 -49 -49q-51 0 -51 49zM797 827
q0 52 49 52q51 0 51 -54q0 -47 -51 -47q-49 0 -49 49zM846 680q0 49 49 49q51 0 51 -49q0 -51 -53 -51q-47 0 -47 51zM862 506q0 49 47 49q52 0 52 -49t-52 -49q-47 0 -47 49zM645 51q0 -51 -49 -51q-51 0 -51 51q0 49 51 49q49 0 49 -49zM846 332q0 51 49 51q51 0 51 -51
q0 -49 -51 -49q-49 0 -49 49zM688 88q0 47 51 47q49 0 49 -51q0 -47 -49 -47q-51 0 -51 51zM797 182q0 51 49 51q51 0 51 -51q0 -49 -51 -49q-49 0 -49 49zM502 926q0 -49 -51 -49q-50 0 -50 49q0 51 50 51q51 0 51 -51zM395 827q0 -49 -51 -49q-49 0 -49 47q0 54 49 54
q51 0 51 -52zM346 680q0 -51 -49 -51q-51 0 -51 51q0 49 49 49q51 0 51 -49zM330 506q0 -49 -49 -49q-52 0 -52 49t52 49q49 0 49 -49zM346 332q0 -49 -51 -49q-49 0 -49 49q0 51 49 51q51 0 51 -51zM502 88q0 -51 -51 -51q-50 0 -50 47q0 51 50 51q51 0 51 -47zM395 182
q0 -49 -51 -49q-49 0 -49 49q0 51 49 51q51 0 51 -51z" />
    <glyph glyph-name="km_bantoc.25CC" unicode="&#x17cb;" horiz-adv-x="977" 
d="M541 1720v-389h-144v389h144zM518 963q0 -52 -49 -52q-51 0 -51 52q0 49 51 49q49 0 49 -49zM561 926q0 51 51 51q50 0 50 -51q0 -49 -50 -49q-51 0 -51 49zM670 827q0 52 49 52q51 0 51 -54q0 -47 -51 -47q-49 0 -49 49zM719 680q0 49 49 49q51 0 51 -49q0 -51 -53 -51
q-47 0 -47 51zM735 506q0 49 47 49q52 0 52 -49t-52 -49q-47 0 -47 49zM518 51q0 -51 -49 -51q-51 0 -51 51q0 49 51 49q49 0 49 -49zM719 332q0 51 49 51q51 0 51 -51q0 -49 -51 -49q-49 0 -49 49zM561 88q0 47 51 47q50 0 50 -51q0 -47 -50 -47q-51 0 -51 51zM670 182
q0 51 49 51q51 0 51 -51q0 -49 -51 -49q-49 0 -49 49zM375 926q0 -49 -51 -49q-50 0 -50 49q0 51 50 51q51 0 51 -51zM268 827q0 -49 -51 -49q-49 0 -49 47q0 54 49 54q51 0 51 -52zM219 680q0 -51 -49 -51q-51 0 -51 51q0 49 49 49q51 0 51 -49zM203 506q0 -49 -49 -49
q-52 0 -52 49t52 49q49 0 49 -49zM219 332q0 -49 -51 -49q-49 0 -49 49q0 51 49 51q51 0 51 -51zM375 88q0 -51 -51 -51q-50 0 -50 47q0 51 50 51q51 0 51 -47zM268 182q0 -49 -51 -49q-49 0 -49 49q0 51 49 51q51 0 51 -51z" />
    <glyph glyph-name="km_robat.25CC" unicode="&#x17cc;" horiz-adv-x="977" 
d="M256 1556q23 0 38 5t30.5 11.5t36 11.5t55.5 5q59 0 86.5 -36.5t27.5 -96.5v-22h-122q0 47 -9.5 60t-31.5 13q-12 0 -25 -4.5t-29 -10.5t-35 -10.5t-42 -4.5q-19 0 -35.5 5t-29 16.5t-19.5 30.5t-7 48q0 38 21.5 77.5t57.5 71.5t83.5 52t100.5 20q54 0 94.5 -21.5
t72.5 -48t58.5 -48t52.5 -21.5q22 0 40 9.5t31 21.5q15 14 27 32v-123q-12 -18 -27 -32q-13 -12 -31 -21.5t-40 -9.5q-36 0 -67 24t-62.5 53t-67 53t-81.5 24q-36 0 -64.5 -11.5t-48 -30.5t-29.5 -43t-10 -49zM518 963q0 -52 -49 -52q-51 0 -51 52q0 49 51 49q49 0 49 -49z
M561 926q0 51 51 51q50 0 50 -51q0 -49 -50 -49q-51 0 -51 49zM670 827q0 52 49 52q51 0 51 -54q0 -47 -51 -47q-49 0 -49 49zM719 680q0 49 49 49q51 0 51 -49q0 -51 -53 -51q-47 0 -47 51zM735 506q0 49 47 49q52 0 52 -49t-52 -49q-47 0 -47 49zM518 51q0 -51 -49 -51
q-51 0 -51 51q0 49 51 49q49 0 49 -49zM719 332q0 51 49 51q51 0 51 -51q0 -49 -51 -49q-49 0 -49 49zM561 88q0 47 51 47q50 0 50 -51q0 -47 -50 -47q-51 0 -51 51zM670 182q0 51 49 51q51 0 51 -51q0 -49 -51 -49q-49 0 -49 49zM375 926q0 -49 -51 -49q-50 0 -50 49
q0 51 50 51q51 0 51 -51zM268 827q0 -49 -51 -49q-49 0 -49 47q0 54 49 54q51 0 51 -52zM219 680q0 -51 -49 -51q-51 0 -51 51q0 49 49 49q51 0 51 -49zM203 506q0 -49 -49 -49q-52 0 -52 49t52 49q49 0 49 -49zM219 332q0 -49 -51 -49q-49 0 -49 49q0 51 49 51q51 0 51 -51
zM375 88q0 -51 -51 -51q-50 0 -50 47q0 51 50 51q51 0 51 -47zM268 182q0 -49 -51 -49q-49 0 -49 49q0 51 49 51q51 0 51 -51z" />
    <glyph glyph-name="km_toandakhiat.25CC" unicode="&#x17cd;" horiz-adv-x="985" 
d="M831 1823l89 -66l-324 -383q-23 28 -54 70t-68 81.5t-78.5 68t-84.5 28.5q-18 0 -35 -6.5t-29.5 -17.5t-20 -25t-7.5 -29q0 -31 18.5 -50.5t47.5 -39.5l-56 -80q-65 47 -94 94t-29 109q0 41 16.5 75.5t44.5 59.5t65.5 39t78.5 14q51 0 96 -21t83.5 -52t70 -68t55.5 -68z
M518 963q0 -52 -49 -52q-51 0 -51 52q0 49 51 49q49 0 49 -49zM561 926q0 51 51 51q50 0 50 -51q0 -49 -50 -49q-51 0 -51 49zM670 827q0 52 49 52q51 0 51 -54q0 -47 -51 -47q-49 0 -49 49zM719 680q0 49 49 49q51 0 51 -49q0 -51 -53 -51q-47 0 -47 51zM735 506
q0 49 47 49q52 0 52 -49t-52 -49q-47 0 -47 49zM518 51q0 -51 -49 -51q-51 0 -51 51q0 49 51 49q49 0 49 -49zM719 332q0 51 49 51q51 0 51 -51q0 -49 -51 -49q-49 0 -49 49zM561 88q0 47 51 47q50 0 50 -51q0 -47 -50 -47q-51 0 -51 51zM670 182q0 51 49 51q51 0 51 -51
q0 -49 -51 -49q-49 0 -49 49zM375 926q0 -49 -51 -49q-50 0 -50 49q0 51 50 51q51 0 51 -51zM268 827q0 -49 -51 -49q-49 0 -49 47q0 54 49 54q51 0 51 -52zM219 680q0 -51 -49 -51q-51 0 -51 51q0 49 49 49q51 0 51 -49zM203 506q0 -49 -49 -49q-52 0 -52 49t52 49
q49 0 49 -49zM219 332q0 -49 -51 -49q-49 0 -49 49q0 51 49 51q51 0 51 -51zM375 88q0 -51 -51 -51q-50 0 -50 47q0 51 50 51q51 0 51 -47zM268 182q0 -49 -51 -49q-49 0 -49 49q0 51 49 51q51 0 51 -51z" />
    <glyph glyph-name="km_kakabat.25CC" unicode="&#x17ce;" horiz-adv-x="977" 
d="M664 1577h-144v-143h-102v143h-144v102h144v144h102v-144h144v-102zM518 963q0 -52 -49 -52q-51 0 -51 52q0 49 51 49q49 0 49 -49zM561 926q0 51 51 51q50 0 50 -51q0 -49 -50 -49q-51 0 -51 49zM670 827q0 52 49 52q51 0 51 -54q0 -47 -51 -47q-49 0 -49 49zM719 680
q0 49 49 49q51 0 51 -49q0 -51 -53 -51q-47 0 -47 51zM735 506q0 49 47 49q52 0 52 -49t-52 -49q-47 0 -47 49zM518 51q0 -51 -49 -51q-51 0 -51 51q0 49 51 49q49 0 49 -49zM719 332q0 51 49 51q51 0 51 -51q0 -49 -51 -49q-49 0 -49 49zM561 88q0 47 51 47q50 0 50 -51
q0 -47 -50 -47q-51 0 -51 51zM670 182q0 51 49 51q51 0 51 -51q0 -49 -51 -49q-49 0 -49 49zM375 926q0 -49 -51 -49q-50 0 -50 49q0 51 50 51q51 0 51 -51zM268 827q0 -49 -51 -49q-49 0 -49 47q0 54 49 54q51 0 51 -52zM219 680q0 -51 -49 -51q-51 0 -51 51q0 49 49 49
q51 0 51 -49zM203 506q0 -49 -49 -49q-52 0 -52 49t52 49q49 0 49 -49zM219 332q0 -49 -51 -49q-49 0 -49 49q0 51 49 51q51 0 51 -51zM375 88q0 -51 -51 -51q-50 0 -50 47q0 51 50 51q51 0 51 -47zM268 182q0 -49 -51 -49q-49 0 -49 49q0 51 49 51q51 0 51 -51z" />
    <glyph glyph-name="km_ashda.25CC" unicode="&#x17cf;" horiz-adv-x="977" 
d="M604 1434q-30 0 -52 6.5t-38 17.5t-27 24t-18 27q-8 -21 -22.5 -35t-31.5 -23t-34.5 -13t-30.5 -4q-24 0 -52 7.5t-51 27t-38.5 52.5t-15.5 83q0 55 26.5 94t67.5 63.5t90 35.5t94 11q0 22 8.5 42t23 35t35 23.5t44.5 8.5h88v-94h-88q0 -29 -9 -51t-24.5 -36t-36 -21
t-43.5 -7q-26 0 -53 -7t-49.5 -21.5t-37 -36.5t-14.5 -52q0 -7 2 -16.5t7.5 -18t16 -14.5t28.5 -6q20 0 36.5 10t29 23.5t21 28.5t13.5 24q4 -9 12.5 -24t22 -28.5t33 -23.5t45.5 -10q20 0 31 4.5t16.5 10.5t6.5 12t1 10q0 12 -12 22.5t-43 10.5v88q86 0 132 -33.5t46 -93.5
q0 -65 -41 -99t-115 -34zM518 963q0 -52 -49 -52q-51 0 -51 52q0 49 51 49q49 0 49 -49zM561 926q0 51 51 51q50 0 50 -51q0 -49 -50 -49q-51 0 -51 49zM670 827q0 52 49 52q51 0 51 -54q0 -47 -51 -47q-49 0 -49 49zM719 680q0 49 49 49q51 0 51 -49q0 -51 -53 -51
q-47 0 -47 51zM735 506q0 49 47 49q52 0 52 -49t-52 -49q-47 0 -47 49zM518 51q0 -51 -49 -51q-51 0 -51 51q0 49 51 49q49 0 49 -49zM719 332q0 51 49 51q51 0 51 -51q0 -49 -51 -49q-49 0 -49 49zM561 88q0 47 51 47q50 0 50 -51q0 -47 -50 -47q-51 0 -51 51zM670 182
q0 51 49 51q51 0 51 -51q0 -49 -51 -49q-49 0 -49 49zM375 926q0 -49 -51 -49q-50 0 -50 49q0 51 50 51q51 0 51 -51zM268 827q0 -49 -51 -49q-49 0 -49 47q0 54 49 54q51 0 51 -52zM219 680q0 -51 -49 -51q-51 0 -51 51q0 49 49 49q51 0 51 -49zM203 506q0 -49 -49 -49
q-52 0 -52 49t52 49q49 0 49 -49zM219 332q0 -49 -51 -49q-49 0 -49 49q0 51 49 51q51 0 51 -51zM375 88q0 -51 -51 -51q-50 0 -50 47q0 51 50 51q51 0 51 -47zM268 182q0 -49 -51 -49q-49 0 -49 49q0 51 49 51q51 0 51 -51z" />
    <glyph glyph-name="km_sannya.25CC" unicode="&#x17d0;" horiz-adv-x="977" 
d="M387 1556q-53 0 -53 -34q0 -12 7.5 -21t19 -15t26 -8.5t29.5 -2.5q41 0 72.5 13t52.5 34.5t32 49t11 56.5q0 55 -36.5 73.5t-107.5 18.5l19 103q73 0 124 -13.5t83 -38.5t46.5 -60.5t14.5 -80.5q0 -46 -19 -92t-55.5 -83t-91 -60t-125.5 -23q-35 0 -74.5 5.5t-73 22
t-55.5 45.5t-22 77q0 51 41.5 83.5t114.5 32.5h34zM518 963q0 -52 -49 -52q-51 0 -51 52q0 49 51 49q49 0 49 -49zM561 926q0 51 51 51q50 0 50 -51q0 -49 -50 -49q-51 0 -51 49zM670 827q0 52 49 52q51 0 51 -54q0 -47 -51 -47q-49 0 -49 49zM719 680q0 49 49 49
q51 0 51 -49q0 -51 -53 -51q-47 0 -47 51zM735 506q0 49 47 49q52 0 52 -49t-52 -49q-47 0 -47 49zM518 51q0 -51 -49 -51q-51 0 -51 51q0 49 51 49q49 0 49 -49zM719 332q0 51 49 51q51 0 51 -51q0 -49 -51 -49q-49 0 -49 49zM561 88q0 47 51 47q50 0 50 -51q0 -47 -50 -47
q-51 0 -51 51zM670 182q0 51 49 51q51 0 51 -51q0 -49 -51 -49q-49 0 -49 49zM375 926q0 -49 -51 -49q-50 0 -50 49q0 51 50 51q51 0 51 -51zM268 827q0 -49 -51 -49q-49 0 -49 47q0 54 49 54q51 0 51 -52zM219 680q0 -51 -49 -51q-51 0 -51 51q0 49 49 49q51 0 51 -49z
M203 506q0 -49 -49 -49q-52 0 -52 49t52 49q49 0 49 -49zM219 332q0 -49 -51 -49q-49 0 -49 49q0 51 49 51q51 0 51 -51zM375 88q0 -51 -51 -51q-50 0 -50 47q0 51 50 51q51 0 51 -47zM268 182q0 -49 -51 -49q-49 0 -49 49q0 51 49 51q51 0 51 -51z" />
    <glyph glyph-name="km_viram.25CC" unicode="&#x17d1;" horiz-adv-x="977" 
d="M834 1679v-123h-732v123h732zM518 963q0 -52 -49 -52q-51 0 -51 52q0 49 51 49q49 0 49 -49zM561 926q0 51 51 51q50 0 50 -51q0 -49 -50 -49q-51 0 -51 49zM670 827q0 52 49 52q51 0 51 -54q0 -47 -51 -47q-49 0 -49 49zM719 680q0 49 49 49q51 0 51 -49q0 -51 -53 -51
q-47 0 -47 51zM735 506q0 49 47 49q52 0 52 -49t-52 -49q-47 0 -47 49zM518 51q0 -51 -49 -51q-51 0 -51 51q0 49 51 49q49 0 49 -49zM719 332q0 51 49 51q51 0 51 -51q0 -49 -51 -49q-49 0 -49 49zM561 88q0 47 51 47q50 0 50 -51q0 -47 -50 -47q-51 0 -51 51zM670 182
q0 51 49 51q51 0 51 -51q0 -49 -51 -49q-49 0 -49 49zM375 926q0 -49 -51 -49q-50 0 -50 49q0 51 50 51q51 0 51 -51zM268 827q0 -49 -51 -49q-49 0 -49 47q0 54 49 54q51 0 51 -52zM219 680q0 -51 -49 -51q-51 0 -51 51q0 49 49 49q51 0 51 -49zM203 506q0 -49 -49 -49
q-52 0 -52 49t52 49q49 0 49 -49zM219 332q0 -49 -51 -49q-49 0 -49 49q0 51 49 51q51 0 51 -51zM375 88q0 -51 -51 -51q-50 0 -50 47q0 51 50 51q51 0 51 -47zM268 182q0 -49 -51 -49q-49 0 -49 49q0 51 49 51q51 0 51 -51z" />
    <glyph glyph-name="km_coeng" unicode="&#x17d2;" horiz-adv-x="977" 
d="M664 -358h-144v-144h-102v144h-144v102h144v143h102v-143h144v-102zM518 963q0 -52 -49 -52q-51 0 -51 52q0 49 51 49q49 0 49 -49zM561 926q0 51 51 51q50 0 50 -51q0 -49 -50 -49q-51 0 -51 49zM670 827q0 52 49 52q51 0 51 -54q0 -47 -51 -47q-49 0 -49 49zM719 680
q0 49 49 49q51 0 51 -49q0 -51 -53 -51q-47 0 -47 51zM735 506q0 49 47 49q52 0 52 -49t-52 -49q-47 0 -47 49zM518 51q0 -51 -49 -51q-51 0 -51 51q0 49 51 49q49 0 49 -49zM719 332q0 51 49 51q51 0 51 -51q0 -49 -51 -49q-49 0 -49 49zM561 88q0 47 51 47q50 0 50 -51
q0 -47 -50 -47q-51 0 -51 51zM670 182q0 51 49 51q51 0 51 -51q0 -49 -51 -49q-49 0 -49 49zM375 926q0 -49 -51 -49q-50 0 -50 49q0 51 50 51q51 0 51 -51zM268 827q0 -49 -51 -49q-49 0 -49 47q0 54 49 54q51 0 51 -52zM219 680q0 -51 -49 -51q-51 0 -51 51q0 49 49 49
q51 0 51 -49zM203 506q0 -49 -49 -49q-52 0 -52 49t52 49q49 0 49 -49zM219 332q0 -49 -51 -49q-49 0 -49 49q0 51 49 51q51 0 51 -51zM375 88q0 -51 -51 -51q-50 0 -50 47q0 51 50 51q51 0 51 -47zM268 182q0 -49 -51 -49q-49 0 -49 49q0 51 49 51q51 0 51 -51z" />
    <glyph glyph-name="km_bathamasat.25CC" unicode="&#x17d3;" horiz-adv-x="977" 
d="M217 1614q0 43 20 81t54.5 66.5t80.5 45t97 16.5t96.5 -16.5t79.5 -45t54 -66.5t20 -81t-20 -81t-54 -66t-79.5 -44t-96.5 -16t-97 16t-80.5 44t-54.5 66t-20 81zM311 1614q0 -23 12.5 -42t34 -33t50.5 -22t61 -8t60.5 8t49.5 22t33.5 33t12.5 42q0 22 -12.5 41.5
t-33.5 33.5t-49.5 22.5t-60.5 8.5t-61 -8.5t-50.5 -22.5t-34 -33.5t-12.5 -41.5zM518 963q0 -52 -49 -52q-51 0 -51 52q0 49 51 49q49 0 49 -49zM561 926q0 51 51 51q50 0 50 -51q0 -49 -50 -49q-51 0 -51 49zM670 827q0 52 49 52q51 0 51 -54q0 -47 -51 -47q-49 0 -49 49z
M719 680q0 49 49 49q51 0 51 -49q0 -51 -53 -51q-47 0 -47 51zM735 506q0 49 47 49q52 0 52 -49t-52 -49q-47 0 -47 49zM518 51q0 -51 -49 -51q-51 0 -51 51q0 49 51 49q49 0 49 -49zM719 332q0 51 49 51q51 0 51 -51q0 -49 -51 -49q-49 0 -49 49zM561 88q0 47 51 47
q50 0 50 -51q0 -47 -50 -47q-51 0 -51 51zM670 182q0 51 49 51q51 0 51 -51q0 -49 -51 -49q-49 0 -49 49zM375 926q0 -49 -51 -49q-50 0 -50 49q0 51 50 51q51 0 51 -51zM268 827q0 -49 -51 -49q-49 0 -49 47q0 54 49 54q51 0 51 -52zM219 680q0 -51 -49 -51q-51 0 -51 51
q0 49 49 49q51 0 51 -49zM203 506q0 -49 -49 -49q-52 0 -52 49t52 49q49 0 49 -49zM219 332q0 -49 -51 -49q-49 0 -49 49q0 51 49 51q51 0 51 -51zM375 88q0 -51 -51 -51q-50 0 -50 47q0 51 50 51q51 0 51 -47zM268 182q0 -49 -51 -49q-49 0 -49 49q0 51 49 51q51 0 51 -51z
" />
    <glyph glyph-name="km_khan" unicode="&#x17d4;" horiz-adv-x="952" 
d="M82 1219q0 93 66.5 145.5t183.5 69.5l33 -103q-23 -6 -48 -14t-45.5 -20.5t-33.5 -30.5t-13 -45q0 -32 25 -51t59 -19q47 0 83 21t67 52.5t59 68t59.5 68t69.5 52.5t88 21h74v-1454h-143v1277q-23 0 -42.5 -17.5t-40 -43t-44.5 -56t-56 -56t-74.5 -43t-99.5 -17.5
q-45 0 -86.5 11.5t-72.5 35t-49.5 60.5t-18.5 88z" />
    <glyph glyph-name="km_bariyoosan" unicode="&#x17d5;" horiz-adv-x="1270" 
d="M983 1434h143v-1454h-143v1454zM82 1219q0 93 66.5 145.5t183.5 69.5l33 -103q-23 -6 -48 -14t-45.5 -20.5t-33.5 -30.5t-13 -45q0 -32 25 -51t59 -19q47 0 83 21t67 52.5t59 68t59.5 68t69.5 52.5t88 21h74v-1454h-143v1277q-23 0 -42.5 -17.5t-40 -43t-44.5 -56
t-56 -56t-74.5 -43t-99.5 -17.5q-45 0 -86.5 11.5t-72.5 35t-49.5 60.5t-18.5 88z" />
    <glyph glyph-name="km_camnuc_pii_kuuh" unicode="&#x17d6;" horiz-adv-x="702" 
d="M86 1098q0 48 19 90.5t51.5 74t76 50t91.5 18.5t91 -18.5t75 -50t50.5 -74t18.5 -90.5t-18.5 -91t-50.5 -74.5t-75 -50t-91 -18.5t-91.5 18.5t-76 50t-51.5 74.5t-19 91zM221 1104q0 -21 8 -38.5t22.5 -31t33 -21t39.5 -7.5q42 0 71 28t29 70t-29 71t-71 29
q-21 0 -39.5 -8t-33 -21.5t-22.5 -31.5t-8 -39zM86 336q0 48 19 90.5t51.5 74t76 50t91.5 18.5t91 -18.5t75 -50t50.5 -74t18.5 -90.5t-18.5 -91t-50.5 -74.5t-75 -50t-91 -18.5t-91.5 18.5t-76 50t-51.5 74.5t-19 91zM221 342q0 -21 8 -38.5t22.5 -31t33 -21t39.5 -7.5
q42 0 71 28t29 70t-29 71t-71 29q-21 0 -39.5 -8t-33 -21.5t-22.5 -31.5t-8 -39zM82 784h477v-137h-477v137z" />
    <glyph glyph-name="km_lek_too" unicode="&#x17d7;" horiz-adv-x="1085" 
d="M225 1106v-338q56 25 87.5 61t31.5 89q0 21 -9.5 32t-23 16t-27 6t-22.5 1l39 123q28 0 55.5 -9.5t50 -28t36.5 -47t14 -67.5q0 -45 -15 -85t-40.5 -74.5t-58 -62t-67.5 -47t-70 -30t-65 -10.5h-59v518l319 178l181 -168l241 168l119 -112v-867q0 -93 -28.5 -159.5
t-75.5 -109.5t-108.5 -63t-127.5 -20h-180q-66 0 -127.5 20t-108.5 63t-75.5 109.5t-28.5 159.5v27h143v-19q0 -114 47.5 -175.5t149.5 -61.5h180q102 0 149.5 61.5t47.5 175.5v828l-248 -172l-180 168z" />
    <glyph glyph-name="km_beyyal" unicode="&#x17d8;" horiz-adv-x="3738" 
d="M2644 418q0 -95 -31 -175.5t-87.5 -139t-135.5 -91t-176 -32.5t-176 32.5t-135.5 91t-87.5 139t-31 175.5v504q0 57 -18.5 108.5t-54.5 91t-89.5 63t-124.5 23.5t-124.5 -23.5t-89.5 -63t-54.5 -91t-18.5 -108.5v-789q56 25 87.5 61t31.5 89q0 21 -9.5 32t-23 16t-27 6
t-22.5 1v123h43q26 0 53 -9.5t49 -28t36 -47t14 -67.5q0 -45 -15 -85t-40.5 -74.5t-58 -62t-67.5 -47t-70 -30t-65 -10.5h-59v893q0 95 31 175.5t87.5 139t135.5 91t176 32.5t176 -32.5t135.5 -91t87.5 -139t31 -175.5v-504q0 -57 18.5 -108.5t54.5 -91.5t89.5 -63.5
t124.5 -23.5q70 0 124 23.5t90 63.5t54.5 91.5t18.5 108.5v430l-228 213v80l314 219l166 -155l69 49v-84l-127 -86l-137 129l-150 -105l236 -219v-442zM82 1219q0 93 66.5 145.5t183.5 69.5l33 -103q-23 -6 -48 -14t-45.5 -20.5t-33.5 -30.5t-13 -45q0 -32 25 -51t59 -19
q47 0 83 21t67 52.5t59 68t59.5 68t69.5 52.5t88 21h74v-1454h-143v1277q-23 0 -42.5 -17.5t-40 -43t-44.5 -56t-56 -56t-74.5 -43t-99.5 -17.5q-45 0 -86.5 11.5t-72.5 35t-49.5 60.5t-18.5 88zM2867 1219q0 93 66.5 145.5t183.5 69.5l33 -103q-23 -6 -48 -14t-45 -20.5
t-33 -30.5t-13 -45q0 -32 24.5 -51t59.5 -19q47 0 83 21t66.5 52.5t58.5 68t60 68t70 52.5t88 21h73v-1454h-143v1277q-23 0 -42.5 -17.5t-40 -43t-44 -56t-55.5 -56t-74.5 -43t-99.5 -17.5q-45 0 -86.5 11.5t-73 35t-50 60.5t-18.5 88z" />
    <glyph glyph-name="km_phnek_moan" unicode="&#x17d9;" horiz-adv-x="1325" 
d="M82 717q0 85 19.5 163.5t55.5 147t86 124t111 95.5t131 62t146 22t146 -22t131.5 -62t112 -95.5t86 -124t55.5 -147t20 -163.5t-20 -163.5t-55.5 -147t-86 -124.5t-112 -96t-131.5 -62t-146 -22t-146 22t-131 62t-111 96t-86 124.5t-55.5 147t-19.5 163.5zM225 717
q0 -102 32 -191.5t87 -156t129 -105.5t158 -39t158.5 39t129.5 105.5t87 156t32 191.5q0 101 -32 190.5t-87 156t-129.5 105.5t-158.5 39t-158 -39t-129 -105.5t-87 -156t-32 -190.5zM348 717q0 76 22 143t60 117t89 79t110 29q58 0 109.5 -29t89.5 -79t60.5 -117t22.5 -143
t-22.5 -143t-60.5 -117.5t-89.5 -79.5t-109.5 -29q-59 0 -110 29t-89 79.5t-60 117.5t-22 143zM451 717q0 -56 14 -104.5t38 -84.5t57 -56.5t71 -20.5q37 0 70.5 20.5t58 56.5t39 84.5t14.5 104.5q0 55 -14.5 103.5t-39 84.5t-58 57t-70.5 21q-38 0 -71 -21t-57 -57
t-38 -84.5t-14 -103.5z" />
    <glyph glyph-name="km_koomoot" unicode="&#x17da;" horiz-adv-x="2408" 
d="M606 1331q87 0 164.5 -21t135.5 -63t92 -106t34 -150q0 -68 -26.5 -124t-71 -96t-102 -61.5t-119.5 -21.5v133q37 0 69 11.5t56 33t37.5 51.5t13.5 68q0 48 -19 89t-55.5 71t-89.5 46.5t-121 16.5q-81 0 -150.5 -38.5t-120.5 -104.5t-79.5 -154t-28.5 -188
q0 -92 21.5 -181.5t68 -160t120.5 -113.5t179 -43q65 0 125 18t118.5 68.5t116 141t118.5 235.5l217 520h100l172 -706l162 542h100l139 -487l82 205h201v-127h-129l-113 -309h-100l-133 473l-150 -574h-122l-177 756l-135 -350q-44 -114 -93 -197.5t-100 -142.5t-103.5 -96
t-103.5 -57.5t-100 -28t-92 -7.5q-116 0 -213.5 41.5t-168.5 121t-110.5 195t-39.5 263.5q0 82 18 159.5t50.5 145t79.5 123.5t105.5 96t126.5 62t144 22z" />
    <glyph glyph-name="km_riel" unicode="&#x17db;" horiz-adv-x="778" 
d="M111 717h202v102l-227 213v80l313 219l166 -155l70 49v-84l-127 -86l-137 129l-150 -105l236 -219v-143h176v-103h-176v-614h-60q-44 0 -99 23t-103 64.5t-80.5 98t-32.5 123.5q0 39 14 67.5t35.5 47t48.5 28t53 9.5h43v-123q-8 0 -22 -1t-27 -6t-22.5 -16t-9.5 -32
q0 -53 31.5 -89t86.5 -61v481h-202v103z" />
    <glyph glyph-name="km_avakraha_sannya" unicode="&#x17dc;" horiz-adv-x="1085" 
d="M799 922q0 67 -27.5 120.5t-70.5 90t-95.5 56t-101.5 19.5q-75 0 -127.5 -17.5t-86.5 -47.5t-49.5 -69.5t-15.5 -84.5q0 -71 31 -117t81 -76t114.5 -49.5t132 -38t132 -41.5t114.5 -60t81 -93t31 -141q0 -77 -27 -148t-81 -125.5t-135 -87t-189 -32.5q-87 0 -164.5 19
t-136 57.5t-93 95.5t-34.5 133q0 67 21 111t53.5 70t72.5 36t78 10v-123q-15 0 -29.5 -7t-26 -20.5t-19 -33t-7.5 -43.5q0 -59 28.5 -94.5t71.5 -55.5t92 -26.5t91 -6.5q64 0 118 20t92 55.5t59.5 85.5t21.5 110q0 63 -31 103t-81 67.5t-114.5 46t-132 38.5t-132 45.5
t-114.5 66t-81 100.5t-31 149q0 76 30 139t85 108t132.5 70t172.5 25q45 0 95 -10.5t99 -32t93.5 -54.5t78.5 -78.5t54 -104t20 -129.5h-143z" />
    <glyph glyph-name="km_atthacan.25CC" unicode="&#x17dd;" horiz-adv-x="977" 
d="M469 1700q-43 0 -90.5 -6.5t-92.5 -24.5t-84 -50t-65 -83h-172q25 80 79.5 135t124.5 88.5t148.5 48.5t151.5 15t151.5 -15t148.5 -48.5t124.5 -88.5t79.5 -135h-172q-26 51 -65 83t-84 50t-92.5 24.5t-90.5 6.5zM518 963q0 -52 -49 -52q-51 0 -51 52q0 49 51 49
q49 0 49 -49zM561 926q0 51 51 51q50 0 50 -51q0 -49 -50 -49q-51 0 -51 49zM670 827q0 52 49 52q51 0 51 -54q0 -47 -51 -47q-49 0 -49 49zM719 680q0 49 49 49q51 0 51 -49q0 -51 -53 -51q-47 0 -47 51zM735 506q0 49 47 49q52 0 52 -49t-52 -49q-47 0 -47 49zM518 51
q0 -51 -49 -51q-51 0 -51 51q0 49 51 49q49 0 49 -49zM719 332q0 51 49 51q51 0 51 -51q0 -49 -51 -49q-49 0 -49 49zM561 88q0 47 51 47q50 0 50 -51q0 -47 -50 -47q-51 0 -51 51zM670 182q0 51 49 51q51 0 51 -51q0 -49 -51 -49q-49 0 -49 49zM375 926q0 -49 -51 -49
q-50 0 -50 49q0 51 50 51q51 0 51 -51zM268 827q0 -49 -51 -49q-49 0 -49 47q0 54 49 54q51 0 51 -52zM219 680q0 -51 -49 -51q-51 0 -51 51q0 49 49 49q51 0 51 -49zM203 506q0 -49 -49 -49q-52 0 -52 49t52 49q49 0 49 -49zM219 332q0 -49 -51 -49q-49 0 -49 49
q0 51 49 51q51 0 51 -51zM375 88q0 -51 -51 -51q-50 0 -50 47q0 51 50 51q51 0 51 -47zM268 182q0 -49 -51 -49q-49 0 -49 49q0 51 49 51q51 0 51 -51z" />
    <glyph glyph-name="km_zero" unicode="&#x17e0;" horiz-adv-x="1085" 
d="M82 893q0 95 31 175.5t87.5 139t135.5 91t176 32.5q95 0 174 -32t136 -89t88.5 -136t31.5 -173v-491q0 -93 -31.5 -172t-88.5 -136t-136 -89.5t-174 -32.5q-97 0 -176 32.5t-135.5 91t-87.5 139t-31 175.5v475zM799 922q0 57 -18.5 108.5t-54.5 91t-90 63t-124 23.5
q-71 0 -124.5 -23.5t-89.5 -63t-54.5 -91t-18.5 -108.5v-533q0 -57 18.5 -108.5t54.5 -91.5t89.5 -63.5t124.5 -23.5q70 0 124 23.5t90 63.5t54.5 91.5t18.5 108.5v533z" />
    <glyph glyph-name="km_one" unicode="&#x17e1;" horiz-adv-x="1085" 
d="M225 418q0 -65 18.5 -122t54.5 -100.5t89.5 -68.5t124.5 -25q70 0 124 23.5t90 63.5t54.5 91.5t18.5 108.5v533q0 57 -21.5 108.5t-61.5 91t-97 63t-127 23.5q-53 0 -101.5 -17t-85.5 -50.5t-58.5 -84.5t-21.5 -118q0 -103 32 -153t89 -50q103 0 103 154h143
q0 -75 -16.5 -127.5t-47 -85.5t-75 -47.5t-99.5 -14.5q-58 0 -108 20.5t-86.5 62t-57 104.5t-20.5 147t30.5 154t84.5 121t129.5 79.5t165.5 28.5q103 0 186 -32t141.5 -89t90.5 -136t32 -173v-491q0 -93 -31.5 -172t-88.5 -136t-136 -89.5t-174 -32.5q-97 0 -176 32.5
t-135.5 91t-87.5 139t-31 175.5h143z" />
    <glyph glyph-name="km_two" unicode="&#x17e2;" horiz-adv-x="1354" 
d="M213 1331q0 39 -11.5 59.5t-30 30.5t-42 11.5t-47.5 1.5v102h84q53 0 89 -16t58.5 -43.5t32.5 -65t10 -80.5v-971q0 -114 47.5 -175.5t149.5 -61.5h317q102 0 149.5 62t47.5 175v770l-176 -135l-217 148v-498q56 25 87.5 61t31.5 89q0 21 -9.5 32t-23 16t-27.5 6t-22 1
l39 123q27 0 55 -9.5t50 -28t36 -47t14 -67.5q0 -67 -32.5 -123.5t-80.5 -98t-102.5 -64.5t-99.5 -23h-60v707l74 112l287 -207l244 207l75 -112v-867q0 -93 -28 -159.5t-75.5 -109.5t-109 -63t-127.5 -20h-317q-66 0 -127.5 20t-108.5 63t-75.5 109.5t-28.5 159.5v979z" />
    <glyph glyph-name="km_three" unicode="&#x17e3;" horiz-adv-x="1802" 
d="M1659 0h-143v922q0 57 -18.5 108.5t-54.5 91t-90 63t-124 23.5q-71 0 -124.5 -23.5t-89.5 -63t-54.5 -91t-18.5 -108.5v-922h-143v922q0 57 -18.5 108.5t-54.5 91t-90 63t-124 23.5q-71 0 -124.5 -23.5t-89.5 -63t-54.5 -91t-18.5 -108.5v-789q56 25 87.5 61t31.5 89
q0 21 -9.5 32t-23 16t-27 6t-22.5 1v123h43q26 0 53 -9.5t49 -28t36 -47t14 -67.5q0 -45 -15 -85t-40.5 -74.5t-58 -62t-67.5 -47t-70 -30t-65 -10.5h-59v893q0 95 31 175.5t87.5 139t135.5 91t176 32.5q119 0 211 -48.5t147 -133.5q56 85 147 133.5t212 48.5
q97 0 176 -32.5t135.5 -91t87.5 -139t31 -175.5v-893z" />
    <glyph glyph-name="km_four" unicode="&#x17e4;" horiz-adv-x="1217" 
d="M942 1165l-78 -102l-493 129l-146 -117v-692q0 -68 24.5 -117t61.5 -80.5t79.5 -47t78.5 -15.5h330q-39 24 -80.5 55t-75 75t-55 104.5t-21.5 144.5v420h60q44 0 99 -23.5t103 -64.5t80.5 -98t32.5 -124q0 -38 -14 -66.5t-36.5 -47.5t-50 -28t-55.5 -9l-38 123q8 0 22 1
t27 6t22.5 16t9.5 32q0 53 -31.5 89t-86.5 60v-311q0 -55 19 -101.5t51 -85.5t74 -72t87 -60v-158h-473q-62 0 -130.5 21t-125.5 66.5t-94 118.5t-37 177v715l289 233l428 -110v110q0 43 10 80.5t32.5 65t58.5 43.5t89 16h84v-102q-24 0 -47.5 -1.5t-42 -11.5t-30 -30.5
t-11.5 -59.5v-166z" />
    <glyph glyph-name="km_five" unicode="&#x17e5;" horiz-adv-x="1217" 
d="M1073 1434q-24 0 -47.5 -1.5t-42 -11.5t-30 -30.5t-11.5 -59.5v-248l-72 -94q-157 29 -271 58.5t-196 60.5q-35 -26 -79.5 -54.5t-98.5 -60.5v-610q0 -68 24.5 -117t61.5 -80.5t79.5 -47t78.5 -15.5h330q-39 24 -80.5 55t-75 75t-55 104.5t-21.5 144.5v420h60
q44 0 99 -23.5t103 -64.5t80.5 -98t32.5 -124q0 -38 -14 -66.5t-36.5 -47.5t-50 -28t-55.5 -9l-38 123q8 0 22 1t27 6t22.5 16t9.5 32q0 53 -31.5 89t-86.5 60v-311q0 -55 19 -101.5t51 -85.5t74 -72t87 -60v-158h-473q-62 0 -130.5 21t-125.5 66.5t-94 118.5t-37 177v661
q63 35 112 64.5t87 54.5q-42 24 -69 48.5t-43.5 49.5t-23 51.5t-6.5 55.5q0 38 14 72.5t40.5 60t63.5 40.5t83 15q48 0 87 -14t67 -39.5t43.5 -61.5t15.5 -81t-12.5 -83t-38.5 -75q55 -17 128 -36.5t169 -39.5v205q0 43 10 80.5t32.5 65t58.5 43.5t89 16h84v-102zM430 1358
q0 15 -6.5 29t-18 24.5t-26.5 16.5t-33 6q-19 0 -34.5 -6t-26.5 -15.5t-17 -21t-6 -23.5t4 -26t17 -29t36.5 -31.5t61.5 -34.5q18 20 28 36t14.5 29.5t5.5 25t1 20.5z" />
    <glyph glyph-name="km_six" unicode="&#x17e6;" horiz-adv-x="1217" 
d="M356 893h-143v438q0 39 -11.5 59.5t-30 30.5t-42 11.5t-47.5 1.5v102h84q53 0 89 -16t58.5 -43.5t32.5 -65t10 -80.5v-119q47 53 123.5 86t163.5 33q95 0 174 -32.5t136 -89.5t88.5 -136t31.5 -172v-491q0 -94 -32 -173t-90.5 -136t-141.5 -89t-186 -32
q-90 0 -165.5 28.5t-129.5 79t-84.5 120.5t-30.5 154q0 85 20.5 147.5t57 104t86.5 62t108 20.5q55 0 99.5 -14.5t75 -47t47 -85t16.5 -127.5h-143q0 153 -103 153q-57 0 -89 -49.5t-32 -152.5q0 -68 21.5 -118.5t58.5 -84.5t85.5 -51t101.5 -17q70 0 127 23.5t97 63.5
t61.5 91.5t21.5 108.5v533q0 57 -18.5 108.5t-54.5 91t-90 63t-124 23.5q-69 0 -122 -24t-89 -65.5t-55.5 -96.5t-20.5 -117v-12z" />
    <glyph glyph-name="km_seven" unicode="&#x17e7;" horiz-adv-x="1427" 
d="M225 1137v-1004q56 25 87.5 61t31.5 89q0 21 -9.5 32t-23 16t-27 6t-22.5 1v123h43q26 0 53 -9.5t49 -28t36 -47t14 -67.5q0 -45 -15 -85t-40.5 -74.5t-58 -62t-67.5 -47t-70 -30t-65 -10.5h-59v1165l242 166l180 -168l241 168l197 -184v-1045h33q50 0 82 13t51 38t26 60
t7 80v1038q0 39 -11.5 59.5t-30 30.5t-42 11.5t-47.5 1.5v102h84q53 0 89 -16t58.5 -43.5t32.5 -65t10 -80.5v-1038q0 -78 -17 -134t-54.5 -91t-96 -51.5t-141.5 -16.5h-176v1108l-82 76l-244 -168l-180 168z" />
    <glyph glyph-name="km_eight" unicode="&#x17e8;" horiz-adv-x="1217" 
d="M942 0h-117l-315 213l-285 -213h-143v1098l289 233l428 -110v110q0 43 10 80.5t32.5 65t58.5 43.5t89 16h84v-102q-24 0 -47.5 -1.5t-42 -11.5t-30 -30.5t-11.5 -59.5v-166l-78 -102l-493 129l-146 -117v-952l285 213l289 -213v665q-56 -24 -87.5 -60t-31.5 -89
q0 -21 9.5 -32t23 -16t27 -6t22.5 -1l-39 -123q-28 0 -55.5 9t-50 28t-36.5 47.5t-14 66.5q0 45 15 85t40.5 74.5t58 62.5t67.5 47.5t70 30t65 10.5h59v-922z" />
    <glyph glyph-name="km_nine" unicode="&#x17e9;" horiz-adv-x="1157" 
d="M569 854q85 0 152.5 -17.5t121.5 -45.5t96 -63t75 -71l-70 -77q-31 32 -68 59.5t-82.5 48t-101 32t-123.5 11.5q-23 0 -57 -6t-72 -20.5t-76.5 -40t-69.5 -65t-50 -93.5t-19 -127q0 -63 17.5 -114t48.5 -87.5t73 -56t91 -19.5q51 0 88.5 17t62 46t37 67t12.5 81v164
q-32 -6 -54.5 -17t-36.5 -25.5t-20.5 -30.5t-6.5 -31q0 -21 9.5 -32.5t22.5 -16.5t27 -6t22 -1v-81h-43q-26 0 -53 6.5t-48.5 22.5t-35.5 41.5t-14 64.5q0 60 32.5 103t80.5 71t103 41.5t99 13.5h60v-254q0 -92 -16 -160.5t-53 -114t-97 -68.5t-148 -23q-104 0 -179.5 33.5
t-125.5 91t-74 135t-24 166.5q0 46 11 99.5t36.5 106t68 100.5t105.5 83q-66 45 -100.5 107t-34.5 134q0 57 15 101t40.5 77t59 55t69.5 36t73 20t69 6q73 0 126 -20t89.5 -46.5t58 -53.5t31.5 -42v160q0 39 -11.5 59.5t-30 30.5t-42 11.5t-47.5 1.5v102h84q53 0 89 -16
t58.5 -43.5t32.5 -65t10 -80.5v-377h-143q-18 52 -48 98.5t-69.5 81.5t-87 55.5t-100.5 20.5q-26 0 -57.5 -8t-59.5 -27t-47 -50.5t-19 -78.5q0 -45 15.5 -78t39.5 -56.5t54.5 -38.5t60.5 -23q20 3 42.5 4.5t45.5 1.5z" />
    <glyph glyph-name="uni17f0" unicode="&#x17f0;" horiz-adv-x="770" 
d="M82 344q0 72 21.5 134.5t58.5 109t86.5 73.5t105.5 27t106 -27t87 -73.5t58.5 -109t21.5 -134.5q0 -71 -21.5 -134t-58.5 -109.5t-87 -73.5t-106 -27t-105.5 27t-86.5 73.5t-58.5 109.5t-21.5 134zM184 344q0 -50 13.5 -94t36.5 -77t54 -52t66 -19q36 0 67 19t54 52
t36 77t13 94t-13 94t-36 77t-54 52t-67 19q-35 0 -66 -19t-54 -52t-36.5 -77t-13.5 -94z" />
    <glyph glyph-name="uni17f1" unicode="&#x17f1;" horiz-adv-x="844" 
d="M451 688l249 -688h-112l-197 553l-194 -553h-115l250 688h119z" />
    <glyph glyph-name="uni17f2" unicode="&#x17f2;" horiz-adv-x="328" 
d="M184 688v-688h-102v688h102z" />
    <glyph glyph-name="uni17f3" unicode="&#x17f3;" horiz-adv-x="1350" 
d="M451 688l192 -534l195 534h118l250 -688h-112l-197 553l-195 -553h-114l-197 553l-194 -553h-115l250 688h119z" />
    <glyph glyph-name="uni17f4" unicode="&#x17f4;" horiz-adv-x="844" 
d="M332 0l-250 688h115l194 -553l197 553h112l-249 -688h-119z" />
    <glyph glyph-name="uni17f5" unicode="&#x17f5;" horiz-adv-x="815" 
d="M82 688h135q48 -42 87 -77.5t73 -69.5q32 34 72 69.5t88 77.5h135q-75 -66 -130.5 -119t-99.5 -98q42 -48 69 -88t42.5 -73t21 -59.5t5.5 -47.5q0 -100 -55 -151.5t-148 -51.5t-148 51.5t-55 151.5q0 21 5.5 47.5t20.5 59.5t41.5 73t69.5 88q-43 45 -100 98t-129 119z
M377 102q48 0 74 28.5t26 72.5q0 38 -21.5 84t-78.5 112q-57 -66 -79 -112t-22 -84q0 -44 26.5 -72.5t74.5 -28.5z" />
    <glyph glyph-name="uni17f6" unicode="&#x17f6;" horiz-adv-x="582" 
d="M438 0h-106l-250 688h115z" />
    <glyph glyph-name="uni17f7" unicode="&#x17f7;" horiz-adv-x="1094" 
d="M451 688l194 -538l193 538h112l-250 -688h-112l-197 553l-194 -553h-115l250 688h119z" />
    <glyph glyph-name="uni17f8" unicode="&#x17f8;" horiz-adv-x="582" 
d="M82 0l244 688h112l-250 -688h-106z" />
    <glyph glyph-name="uni17f9" unicode="&#x17f9;" horiz-adv-x="909" 
d="M82 102l582 453v-125l-422 -328q163 0 265 -18.5t159.5 -52.5t78.5 -81t21 -104q0 -97 -66 -151.5t-215 -54.5v102q179 0 179 104q0 17 -3.5 35.5t-20 35.5t-50.5 32t-94.5 26.5t-152 18t-224.5 6.5z" />
    <glyph glyph-name="uni19e0" unicode="&#x19e0;" horiz-adv-x="1319" 
d="M1024 -1167h-117l-315 213l-285 -213h-143v1036l289 233l428 -110v110q0 43 10 80.5t32.5 65t58.5 43.5t89 16h84v-102q-24 0 -47.5 -1.5t-42 -11.5t-30 -30.5t-11.5 -59.5v-165l-78 -103l-493 129l-146 -117v-890l285 213l289 -213v665q-56 -25 -87.5 -61t-31.5 -88
q0 -21 9.5 -32.5t23 -16.5t27 -6t22.5 -1l-39 -123q-28 0 -55.5 9.5t-50 28.5t-36.5 47.5t-14 66.5q0 44 15 84.5t40.5 75t58 62t67.5 47t70 30t65 10.5h59v-921zM164 1118q0 95 31 175.5t87.5 139t135.5 91t176 32.5q95 0 174 -32t136 -89t88.5 -136t31.5 -173v-430
q0 -93 -31.5 -171.5t-88.5 -136t-136 -90t-174 -32.5q-97 0 -176 33t-135.5 91.5t-87.5 139t-31 175.5v413zM881 1147q0 57 -18.5 108.5t-54.5 91.5t-90 63.5t-124 23.5q-71 0 -124.5 -23.5t-89.5 -63.5t-54.5 -91.5t-18.5 -108.5v-471q0 -57 18.5 -109t54.5 -91.5t89.5 -63
t124.5 -23.5q70 0 124 23.5t90 63t54.5 91.5t18.5 109v471z" />
    <glyph glyph-name="uni19e1" unicode="&#x19e1;" horiz-adv-x="1085" 
d="M225 705q0 -65 18.5 -122.5t54.5 -100.5t89.5 -68t124.5 -25q70 0 124 23.5t90 63t54.5 91.5t18.5 109v471q0 57 -21.5 108.5t-61.5 91.5t-97 63.5t-127 23.5q-53 0 -101.5 -17t-85.5 -51t-58.5 -85t-21.5 -118q0 -103 32 -152.5t89 -49.5q103 0 103 153h143
q0 -75 -16.5 -127.5t-47 -85t-75 -47t-99.5 -14.5q-58 0 -108 20.5t-86.5 62t-57 104t-20.5 147.5q0 84 30.5 154t84.5 120.5t129.5 79t165.5 28.5q103 0 186 -32t141.5 -89t90.5 -136t32 -173v-430q0 -93 -31.5 -171.5t-88.5 -136t-136 -90t-174 -32.5q-97 0 -176 33
t-135.5 91.5t-87.5 139t-31 175.5h143zM139 -31q0 94 66 146t184 69l33 -102q-23 -6 -48 -14t-45 -20.5t-33 -31t-13 -45.5q0 -32 25 -50.5t59 -18.5q47 0 83 21t66.5 52t58.5 68t60 68t70 52t88 21h73v-1351h-143v1175q-23 0 -42.5 -17.5t-40 -43t-44 -56t-55.5 -56
t-74.5 -43t-99.5 -17.5q-45 0 -86.5 11.5t-73 35t-50 60t-18.5 87.5z" />
    <glyph glyph-name="uni19e2" unicode="&#x19e2;" horiz-adv-x="1354" 
d="M213 1556q0 39 -11.5 59.5t-30 30.5t-42 11.5t-47.5 1.5v102h84q53 0 89 -16t58.5 -43.5t32.5 -65t10 -80.5v-909q0 -114 47.5 -175.5t149.5 -61.5h317q102 0 149.5 62t47.5 175v709l-176 -135l-217 147v-498q56 25 87.5 61t31.5 89q0 21 -9.5 32t-23 16t-27.5 6t-22 1
l39 123q27 0 55 -9.5t50 -28t36 -47t14 -66.5q0 -67 -32.5 -124t-80.5 -98t-102.5 -64.5t-99.5 -23.5h-60v707l74 112l287 -206l244 206l75 -112v-805q0 -93 -28 -159.5t-75.5 -109.5t-109 -63t-127.5 -20h-317q-66 0 -127.5 20t-108.5 63t-75.5 109.5t-28.5 159.5v917z
M340 -31q0 94 66 146t184 69l33 -102q-23 -6 -48 -14t-45.5 -20.5t-33.5 -31t-13 -45.5q0 -32 25 -50.5t59 -18.5q47 0 83 21t67 52t59 68t59.5 68t69.5 52t88 21h74v-1351h-143v1175q-23 0 -42.5 -17.5t-40 -43t-44.5 -56t-56 -56t-74.5 -43t-99.5 -17.5q-45 0 -86.5 11.5
t-72.5 35t-49.5 60t-18.5 87.5z" />
    <glyph glyph-name="uni19e3" unicode="&#x19e3;" horiz-adv-x="1802" 
d="M1659 287h-143v860q0 57 -18.5 108.5t-54.5 91.5t-90 63.5t-124 23.5q-71 0 -124.5 -23.5t-89.5 -63.5t-54.5 -91.5t-18.5 -108.5v-860h-143v860q0 57 -18.5 108.5t-54.5 91.5t-90 63.5t-124 23.5q-71 0 -124.5 -23.5t-89.5 -63.5t-54.5 -91.5t-18.5 -108.5v-727
q56 25 87.5 61t31.5 88q0 21 -9.5 32.5t-23 16.5t-27 6t-22.5 1v123h43q26 0 53 -9.5t49 -28.5t36 -47.5t14 -66.5q0 -45 -15 -85t-40.5 -74.5t-58 -62t-67.5 -47t-70 -30t-65 -10.5h-59v831q0 95 31 175.5t87.5 139t135.5 91t176 32.5q119 0 211 -48.5t147 -133.5
q56 85 147 133.5t212 48.5q97 0 176 -32.5t135.5 -91t87.5 -139t31 -175.5v-831zM412 -31q0 94 66 146t184 69l32 -102q-23 -6 -47.5 -14t-45 -20.5t-33.5 -31t-13 -45.5q0 -32 25 -50.5t59 -18.5q47 0 83 21t66.5 52t58.5 68t60 68t70 52t88 21h74v-1351h-144v1175
q-23 0 -42.5 -17.5t-40 -43t-44 -56t-55.5 -56t-74.5 -43t-99.5 -17.5q-45 0 -86.5 11.5t-72.5 35t-49.5 60t-18.5 87.5z" />
    <glyph glyph-name="uni19e4" unicode="&#x19e4;" horiz-adv-x="1217" 
d="M942 1391l-78 -103l-493 129l-146 -117v-630q0 -68 24.5 -117t61.5 -81t79.5 -47t78.5 -15h330q-39 24 -80.5 55t-75 75t-55 104t-21.5 144v400h60q44 0 99 -23.5t103 -64.5t80.5 -97.5t32.5 -123.5q0 -39 -14 -67.5t-36.5 -47t-50 -28t-55.5 -9.5l-38 123q8 0 22 1t27 6
t22.5 16t9.5 32q0 53 -31.5 89t-86.5 61v-291q0 -56 19 -102.5t51 -85.5t74 -71.5t87 -60.5v-157h-473q-62 0 -130.5 21t-125.5 66.5t-94 118.5t-37 177v653l289 233l428 -110v110q0 43 10 80.5t32.5 65t58.5 43.5t89 16h84v-102q-24 0 -47.5 -1.5t-42 -11.5t-30 -30.5
t-11.5 -59.5v-165zM139 -31q0 94 66 146t184 69l33 -102q-23 -6 -48 -14t-45 -20.5t-33 -31t-13 -45.5q0 -32 25 -50.5t59 -18.5q47 0 83 21t66.5 52t58.5 68t60 68t70 52t88 21h73v-1351h-143v1175q-23 0 -42.5 -17.5t-40 -43t-44 -56t-55.5 -56t-74.5 -43t-99.5 -17.5
q-45 0 -86.5 11.5t-73 35t-50 60t-18.5 87.5z" />
    <glyph glyph-name="uni19e5" unicode="&#x19e5;" horiz-adv-x="1217" 
d="M1073 1659q-24 0 -47.5 -1.5t-42 -11.5t-30 -30.5t-11.5 -59.5v-247l-72 -95q-157 29 -271 58.5t-196 60.5q-35 -26 -79.5 -54t-98.5 -60v-549q0 -68 24.5 -117t61.5 -81t79.5 -47t78.5 -15h330q-39 24 -80.5 55t-75 75t-55 104t-21.5 144v400h60q44 0 99 -23.5
t103 -64.5t80.5 -97.5t32.5 -123.5q0 -39 -14 -67.5t-36.5 -47t-50 -28t-55.5 -9.5l-38 123q8 0 22 1t27 6t22.5 16t9.5 32q0 53 -31.5 89t-86.5 61v-291q0 -56 19 -102.5t51 -85.5t74 -71.5t87 -60.5v-157h-473q-62 0 -130.5 21t-125.5 66.5t-94 118.5t-37 177v600
q63 34 112 64t87 55q-42 24 -69 48t-43.5 49.5t-23 52t-6.5 54.5q0 39 14 73t40.5 60t63.5 41t83 15q48 0 87 -14t67 -40t43.5 -62t15.5 -81t-12.5 -82.5t-38.5 -75.5q55 -17 128 -36t169 -39v204q0 43 10 80.5t32.5 65t58.5 43.5t89 16h84v-102zM430 1583q0 15 -6.5 29
t-18 24.5t-26.5 16.5t-33 6q-19 0 -34.5 -6t-26.5 -15.5t-17 -21t-6 -23.5t4 -25.5t17 -28.5t36.5 -31.5t61.5 -34.5q18 20 28 36t14.5 29.5t5.5 24.5t1 20zM160 -31q0 94 66 146t184 69l32 -102q-23 -6 -47.5 -14t-45 -20.5t-33.5 -31t-13 -45.5q0 -32 25 -50.5t59 -18.5
q47 0 83 21t66.5 52t58.5 68t60 68t70 52t88 21h74v-1351h-144v1175q-23 0 -42.5 -17.5t-40 -43t-44 -56t-55.5 -56t-74.5 -43t-99.5 -17.5q-45 0 -86.5 11.5t-72.5 35t-49.5 60t-18.5 87.5z" />
    <glyph glyph-name="uni19e6" unicode="&#x19e6;" horiz-adv-x="1217" 
d="M356 1118h-143v438q0 39 -11.5 59.5t-30 30.5t-42 11.5t-47.5 1.5v102h84q53 0 89 -16t58.5 -43.5t32.5 -65t10 -80.5v-118q47 52 123.5 85t163.5 33q95 0 174 -32.5t136 -89.5t88.5 -136t31.5 -172v-430q0 -94 -32 -173t-90.5 -136t-141.5 -89t-186 -32
q-90 0 -165.5 28.5t-129.5 79.5t-84.5 121t-30.5 154t20.5 147t57 104.5t86.5 62t108 20.5q55 0 99.5 -14.5t75 -47.5t47 -85t16.5 -127h-143q0 153 -103 153q-57 0 -89 -49.5t-32 -153.5q0 -68 21.5 -118.5t58.5 -84t85.5 -50.5t101.5 -17q70 0 127 23.5t97 63t61.5 91.5
t21.5 109v471q0 57 -18.5 108.5t-54.5 91.5t-90 63.5t-124 23.5q-69 0 -122 -24t-89 -65.5t-55.5 -97t-20.5 -117.5v-12zM217 -31q0 94 66 146t184 69l33 -102q-23 -6 -48 -14t-45.5 -20.5t-33.5 -31t-13 -45.5q0 -32 25 -50.5t59 -18.5q47 0 83 21t67 52t59 68t59.5 68
t69.5 52t88 21h74v-1351h-143v1175q-23 0 -42.5 -17.5t-40 -43t-44.5 -56t-56 -56t-74.5 -43t-99.5 -17.5q-45 0 -86 11.5t-72.5 35t-50 60t-18.5 87.5z" />
    <glyph glyph-name="uni19e7" unicode="&#x19e7;" horiz-adv-x="1427" 
d="M225 1362v-942q56 25 87.5 61t31.5 88q0 21 -9.5 32.5t-23 16.5t-27 6t-22.5 1v123h43q26 0 53 -9.5t49 -28.5t36 -47.5t14 -66.5q0 -45 -15 -85t-40.5 -74.5t-58 -62t-67.5 -47t-70 -30t-65 -10.5h-59v1104l242 165l180 -167l241 167l197 -184v-983h33q50 0 82 13t51 38
t26 60t7 80v976q0 39 -11.5 59.5t-30 30.5t-42 11.5t-47.5 1.5v102h84q53 0 89 -16t58.5 -43.5t32.5 -65t10 -80.5v-976q0 -78 -17 -134t-54.5 -91t-96 -51.5t-141.5 -16.5h-176v1046l-82 76l-244 -168l-180 168zM256 -31q0 94 66 146t184 69l33 -102q-23 -6 -48 -14
t-45.5 -20.5t-33.5 -31t-13 -45.5q0 -32 25 -50.5t59 -18.5q47 0 83 21t67 52t59 68t59.5 68t69.5 52t88 21h74v-1351h-143v1175q-23 0 -42.5 -17.5t-40 -43t-44.5 -56t-56 -56t-74.5 -43t-99.5 -17.5q-45 0 -86.5 11.5t-72.5 35t-49.5 60t-18.5 87.5z" />
    <glyph glyph-name="uni19e8" unicode="&#x19e8;" horiz-adv-x="1217" 
d="M942 287h-117l-315 213l-285 -213h-143v1036l289 233l428 -110v110q0 43 10 80.5t32.5 65t58.5 43.5t89 16h84v-102q-24 0 -47.5 -1.5t-42 -11.5t-30 -30.5t-11.5 -59.5v-165l-78 -103l-493 129l-146 -117v-890l285 213l289 -213v604q-56 -25 -87.5 -61t-31.5 -89
q0 -21 9.5 -32t23 -16t27 -6t22.5 -1l-39 -123q-28 0 -55.5 9.5t-50 28t-36.5 47t-14 67.5q0 44 15 84.5t40.5 75t58 62t67.5 47t70 30t65 10.5h59v-860zM139 -31q0 94 66 146t184 69l33 -102q-23 -6 -48 -14t-45 -20.5t-33 -31t-13 -45.5q0 -32 25 -50.5t59 -18.5
q47 0 83 21t66.5 52t58.5 68t60 68t70 52t88 21h73v-1351h-143v1175q-23 0 -42.5 -17.5t-40 -43t-44 -56t-55.5 -56t-74.5 -43t-99.5 -17.5q-45 0 -86.5 11.5t-73 35t-50 60t-18.5 87.5z" />
    <glyph glyph-name="uni19e9" unicode="&#x19e9;" horiz-adv-x="1157" 
d="M569 1120q85 0 152.5 -17.5t121.5 -45.5t96 -63t75 -70l-70 -78q-31 32 -68 59.5t-82.5 48t-101 32t-123.5 11.5q-23 0 -57 -6t-72 -20.5t-76.5 -40t-69.5 -65t-50 -93.5t-19 -127q0 -63 17.5 -111t48.5 -80t73 -48.5t91 -16.5q101 0 150.5 52.5t49.5 138.5v163
q-32 -6 -54.5 -17t-36.5 -25.5t-20.5 -30.5t-6.5 -31q0 -21 9.5 -32t22.5 -16t27 -6t22 -1v-82h-43q-26 0 -53 6.5t-48.5 22.5t-35.5 42t-14 64q0 60 32.5 103.5t80.5 71t103 41t99 13.5h60v-254q0 -91 -16 -156.5t-53 -107.5t-97 -62t-148 -20q-104 0 -179.5 30t-125.5 84
t-74 128.5t-24 163.5q0 46 11 99.5t36.5 106.5t68 100.5t105.5 82.5q-33 22 -58 42.5t-42.5 43.5t-26 51t-8.5 64q0 57 15 100.5t40.5 76.5t59 55t69.5 36t73 20t69 6q73 0 126 -19.5t89.5 -46t58 -53.5t31.5 -42v159q0 39 -11.5 59.5t-30 30.5t-42 11.5t-47.5 1.5v102h84
q53 0 89 -16t58.5 -43.5t32.5 -65t10 -80.5v-376h-143q-18 51 -48 97.5t-69.5 82t-87 56t-100.5 20.5q-26 0 -57.5 -8t-59.5 -27t-47 -50.5t-19 -78.5q0 -43 20 -72t46 -47t52.5 -26.5t39.5 -10.5q20 5 48.5 5.5t51.5 0.5zM135 -31q0 94 66 146t184 69l33 -102
q-23 -6 -48 -14t-45 -20.5t-33 -31t-13 -45.5q0 -32 24.5 -50.5t58.5 -18.5q47 0 83 21t67 52t59 68t59.5 68t69.5 52t88 21h74v-1351h-143v1175q-23 0 -42.5 -17.5t-40 -43t-44.5 -56t-56 -56t-74.5 -43t-99.5 -17.5q-45 0 -86 11.5t-72.5 35t-50 60t-18.5 87.5z" />
    <glyph glyph-name="uni19ea" unicode="&#x19ea;" horiz-adv-x="2601" 
d="M225 705q0 -65 18.5 -122.5t54.5 -100.5t89.5 -68t124.5 -25q70 0 124 23.5t90 63t54.5 91.5t18.5 109v471q0 57 -21.5 108.5t-61.5 91.5t-97 63.5t-127 23.5q-53 0 -101.5 -17t-85.5 -51t-58.5 -85t-21.5 -118q0 -103 32 -152.5t89 -49.5q103 0 103 153h143
q0 -75 -16.5 -127.5t-47 -85t-75 -47t-99.5 -14.5q-58 0 -108 20.5t-86.5 62t-57 104t-20.5 147.5q0 84 30.5 154t84.5 120.5t129.5 79t165.5 28.5q103 0 186 -32t141.5 -89t90.5 -136t32 -173v-430q0 -93 -31.5 -171.5t-88.5 -136t-136 -90t-174 -32.5q-97 0 -176 33
t-135.5 91.5t-87.5 139t-31 175.5h143zM569 -31q0 94 66.5 146t183.5 69l33 -102q-23 -6 -47.5 -14t-45 -20.5t-33.5 -31t-13 -45.5q0 -32 25 -50.5t59 -18.5q47 0 83 21t66.5 52t58.5 68t60 68t70 52t88 21h73v-1351h-143v1175q-23 0 -42.5 -17.5t-40 -43t-44 -56
t-55.5 -56t-74.5 -43t-99.5 -17.5q-45 0 -86.5 11.5t-73 35t-50 60t-18.5 87.5zM1126 1118q0 95 31 175.5t87.5 139t135.5 91t176 32.5q95 0 174.5 -32t136.5 -89t88.5 -136t31.5 -173v-430q0 -93 -31.5 -171.5t-88.5 -136t-136.5 -90t-174.5 -32.5q-97 0 -176 33
t-135.5 91.5t-87.5 139t-31 175.5v413zM1843 1147q0 57 -18.5 108.5t-54.5 91.5t-89.5 63.5t-124.5 23.5t-124.5 -23.5t-89.5 -63.5t-54 -91.5t-18 -108.5v-471q0 -57 18 -109t54 -91.5t89.5 -63t124.5 -23.5t124.5 23.5t89.5 63t54.5 91.5t18.5 109v471z" />
    <glyph glyph-name="uni19eb" unicode="&#x19eb;" horiz-adv-x="2601" 
d="M225 705q0 -65 18.5 -122.5t54.5 -100.5t89.5 -68t124.5 -25q70 0 124 23.5t90 63t54.5 91.5t18.5 109v471q0 57 -21.5 108.5t-61.5 91.5t-97 63.5t-127 23.5q-53 0 -101.5 -17t-85.5 -51t-58.5 -85t-21.5 -118q0 -103 32 -152.5t89 -49.5q103 0 103 153h143
q0 -75 -16.5 -127.5t-47 -85t-75 -47t-99.5 -14.5q-58 0 -108 20.5t-86.5 62t-57 104t-20.5 147.5q0 84 30.5 154t84.5 120.5t129.5 79t165.5 28.5q103 0 186 -32t141.5 -89t90.5 -136t32 -173v-430q0 -93 -31.5 -171.5t-88.5 -136t-136 -90t-174 -32.5q-97 0 -176 33
t-135.5 91.5t-87.5 139t-31 175.5h143zM569 -31q0 94 66.5 146t183.5 69l33 -102q-23 -6 -47.5 -14t-45 -20.5t-33.5 -31t-13 -45.5q0 -32 25 -50.5t59 -18.5q47 0 83 21t66.5 52t58.5 68t60 68t70 52t88 21h73v-1351h-143v1175q-23 0 -42.5 -17.5t-40 -43t-44 -56
t-55.5 -56t-74.5 -43t-99.5 -17.5q-45 0 -86.5 11.5t-73 35t-50 60t-18.5 87.5zM1276 705q0 -65 18.5 -122.5t54.5 -100.5t89.5 -68t124.5 -25q70 0 123.5 23.5t89.5 63t54.5 91.5t18.5 109v471q0 57 -21.5 108.5t-61 91.5t-96.5 63.5t-128 23.5q-53 0 -101 -17t-85 -51
t-58.5 -85t-21.5 -118q0 -103 32 -152.5t89 -49.5q102 0 102 153h143q0 -75 -16.5 -127.5t-47 -85t-74.5 -47t-99 -14.5q-59 0 -108.5 20.5t-86 62t-57 104t-20.5 147.5q0 84 30.5 154t84.5 120.5t129 79t165 28.5q103 0 186.5 -32t142 -89t90.5 -136t32 -173v-430
q0 -93 -31.5 -171.5t-88.5 -136t-136 -90t-174 -32.5q-97 0 -176 33t-135.5 91.5t-87.5 139t-31 175.5h143z" />
    <glyph glyph-name="uni19ec" unicode="&#x19ec;" horiz-adv-x="2699" 
d="M225 705q0 -65 18.5 -122.5t54.5 -100.5t89.5 -68t124.5 -25q70 0 124 23.5t90 63t54.5 91.5t18.5 109v471q0 57 -21.5 108.5t-61.5 91.5t-97 63.5t-127 23.5q-53 0 -101.5 -17t-85.5 -51t-58.5 -85t-21.5 -118q0 -103 32 -152.5t89 -49.5q103 0 103 153h143
q0 -75 -16.5 -127.5t-47 -85t-75 -47t-99.5 -14.5q-58 0 -108 20.5t-86.5 62t-57 104t-20.5 147.5q0 84 30.5 154t84.5 120.5t129.5 79t165.5 28.5q103 0 186 -32t141.5 -89t90.5 -136t32 -173v-430q0 -93 -31.5 -171.5t-88.5 -136t-136 -90t-174 -32.5q-97 0 -176 33
t-135.5 91.5t-87.5 139t-31 175.5h143zM569 -31q0 94 66.5 146t183.5 69l33 -102q-23 -6 -47.5 -14t-45 -20.5t-33.5 -31t-13 -45.5q0 -32 25 -50.5t59 -18.5q47 0 83 21t66.5 52t58.5 68t60 68t70 52t88 21h73v-1351h-143v1175q-23 0 -42.5 -17.5t-40 -43t-44 -56
t-55.5 -56t-74.5 -43t-99.5 -17.5q-45 0 -86.5 11.5t-73 35t-50 60t-18.5 87.5zM1114 1556q0 39 -11 59.5t-29.5 30.5t-42 11.5t-48.5 1.5v102h84q53 0 89 -16t58.5 -43.5t32.5 -65t10 -80.5v-909q0 -114 47.5 -175.5t149.5 -61.5h318q102 0 149 61.5t47 175.5v709
l-176 -135l-217 147v-498q56 25 87.5 61t31.5 89q0 21 -9.5 32t-23 16t-27.5 6t-22 1l39 123q27 0 55 -9.5t50 -28t36 -47t14 -66.5q0 -67 -32.5 -124t-80.5 -98t-102.5 -64.5t-99.5 -23.5h-59v707l73 112l287 -206l244 206l75 -112v-805q0 -93 -28 -159.5t-75.5 -109.5
t-108.5 -63t-127 -20h-318q-66 0 -127.5 20t-108.5 63t-75.5 109.5t-28.5 159.5v917z" />
    <glyph glyph-name="uni19ed" unicode="&#x19ed;" horiz-adv-x="2949" 
d="M225 705q0 -65 18.5 -122.5t54.5 -100.5t89.5 -68t124.5 -25q70 0 124 23.5t90 63t54.5 91.5t18.5 109v471q0 57 -21.5 108.5t-61.5 91.5t-97 63.5t-127 23.5q-53 0 -101.5 -17t-85.5 -51t-58.5 -85t-21.5 -118q0 -103 32 -152.5t89 -49.5q103 0 103 153h143
q0 -75 -16.5 -127.5t-47 -85t-75 -47t-99.5 -14.5q-58 0 -108 20.5t-86.5 62t-57 104t-20.5 147.5q0 84 30.5 154t84.5 120.5t129.5 79t165.5 28.5q103 0 186 -32t141.5 -89t90.5 -136t32 -173v-430q0 -93 -31.5 -171.5t-88.5 -136t-136 -90t-174 -32.5q-97 0 -176 33
t-135.5 91.5t-87.5 139t-31 175.5h143zM979 -31q0 94 66 146t184 69l33 -102q-23 -6 -48 -14t-45.5 -20.5t-33.5 -31t-13 -45.5q0 -32 25 -50.5t59 -18.5q47 0 83 21t67 52t59 68t59.5 68t69.5 52t88 21h74v-1351h-143v1175q-23 0 -42.5 -17.5t-40 -43t-44.5 -56t-56 -56
t-74.5 -43t-99.5 -17.5q-45 0 -86.5 11.5t-72.5 35t-49.5 60t-18.5 87.5zM2724 287h-144v860q0 57 -18.5 108.5t-54.5 91.5t-89.5 63.5t-123.5 23.5q-71 0 -124.5 -23.5t-89.5 -63.5t-54.5 -91.5t-18.5 -108.5v-860h-143v860q0 57 -18.5 108.5t-54.5 91.5t-90 63.5
t-124 23.5q-71 0 -124.5 -23.5t-89.5 -63.5t-54.5 -91.5t-18.5 -108.5v-727q56 25 87.5 61t31.5 88q0 21 -9.5 32.5t-23 16.5t-27 6t-22.5 1v123h43q26 0 53 -9.5t49 -28.5t36 -47.5t14 -66.5q0 -45 -15 -85t-40.5 -74.5t-58 -62t-67.5 -47t-70 -30t-65 -10.5h-59v831
q0 95 31 175.5t87.5 139t135.5 91t176 32.5q119 0 211 -48.5t147 -133.5q56 85 147 133.5t212 48.5q97 0 176 -32.5t135.5 -91t87.5 -139t31 -175.5v-831z" />
    <glyph glyph-name="uni19ee" unicode="&#x19ee;" horiz-adv-x="2601" 
d="M225 705q0 -65 18.5 -122.5t54.5 -100.5t89.5 -68t124.5 -25q70 0 124 23.5t90 63t54.5 91.5t18.5 109v471q0 57 -21.5 108.5t-61.5 91.5t-97 63.5t-127 23.5q-53 0 -101.5 -17t-85.5 -51t-58.5 -85t-21.5 -118q0 -103 32 -152.5t89 -49.5q103 0 103 153h143
q0 -75 -16.5 -127.5t-47 -85t-75 -47t-99.5 -14.5q-58 0 -108 20.5t-86.5 62t-57 104t-20.5 147.5q0 84 30.5 154t84.5 120.5t129.5 79t165.5 28.5q103 0 186 -32t141.5 -89t90.5 -136t32 -173v-430q0 -93 -31.5 -171.5t-88.5 -136t-136 -90t-174 -32.5q-97 0 -176 33
t-135.5 91.5t-87.5 139t-31 175.5h143zM659 -31q0 94 66.5 146t183.5 69l33 -102q-23 -6 -47.5 -14t-45 -20.5t-33.5 -31t-13 -45.5q0 -32 25 -50.5t59 -18.5q47 0 83 21t66.5 52t58.5 68t60 68t70 52t88 21h73v-1351h-143v1175q-23 0 -42.5 -17.5t-40 -43t-44 -56
t-55.5 -56t-74.5 -43t-99.5 -17.5q-45 0 -86.5 11.5t-73 35t-50 60t-18.5 87.5zM1987 1391l-78 -103l-494 129l-145 -117v-630q0 -68 24.5 -117t61 -81t79 -47t78.5 -15h330q-39 24 -80 55t-74.5 75t-55 104t-21.5 144v400h59q30 0 65 -10.5t70 -30t67.5 -47t58 -62
t40.5 -75t15 -84.5q0 -39 -14 -67.5t-36.5 -47t-50 -28t-55.5 -9.5l-39 123q9 0 22.5 1t27 6t23 16t9.5 32q0 53 -31.5 89t-87.5 61v-291q0 -56 19 -102.5t51.5 -85.5t74.5 -71.5t87 -60.5v-157h-474q-41 0 -86 9t-88 28.5t-81.5 50t-68 73t-46.5 98t-17 124.5v653l289 233
l428 -110v110q0 43 10 80.5t32.5 65t59 43.5t89.5 16h84v-102q-25 0 -48.5 -1.5t-42 -11.5t-29.5 -30.5t-11 -59.5v-165z" />
    <glyph glyph-name="uni19ef" unicode="&#x19ef;" horiz-adv-x="2601" 
d="M225 705q0 -65 18.5 -122.5t54.5 -100.5t89.5 -68t124.5 -25q70 0 124 23.5t90 63t54.5 91.5t18.5 109v471q0 57 -21.5 108.5t-61.5 91.5t-97 63.5t-127 23.5q-53 0 -101.5 -17t-85.5 -51t-58.5 -85t-21.5 -118q0 -103 32 -152.5t89 -49.5q103 0 103 153h143
q0 -75 -16.5 -127.5t-47 -85t-75 -47t-99.5 -14.5q-58 0 -108 20.5t-86.5 62t-57 104t-20.5 147.5q0 84 30.5 154t84.5 120.5t129.5 79t165.5 28.5q103 0 186 -32t141.5 -89t90.5 -136t32 -173v-430q0 -93 -31.5 -171.5t-88.5 -136t-136 -90t-174 -32.5q-97 0 -176 33
t-135.5 91.5t-87.5 139t-31 175.5h143zM659 -31q0 94 66.5 146t183.5 69l33 -102q-23 -6 -47.5 -14t-45 -20.5t-33.5 -31t-13 -45.5q0 -32 25 -50.5t59 -18.5q47 0 83 21t66.5 52t58.5 68t60 68t70 52t88 21h73v-1351h-143v1175q-23 0 -42.5 -17.5t-40 -43t-44 -56
t-55.5 -56t-74.5 -43t-99.5 -17.5q-45 0 -86.5 11.5t-73 35t-50 60t-18.5 87.5zM2138 1659q-24 0 -47.5 -1.5t-42 -11.5t-30 -30.5t-11.5 -59.5v-247l-72 -95q-157 29 -271 58.5t-196 60.5q-35 -26 -79.5 -54t-98.5 -60v-549q0 -68 24.5 -117t61.5 -81t79.5 -47t78.5 -15
h330q-39 24 -80.5 55t-75 75t-55 104t-21.5 144v400h60q44 0 99 -23.5t103 -64.5t80.5 -97.5t32.5 -123.5q0 -39 -14 -67.5t-36.5 -47t-50 -28t-55.5 -9.5l-39 123q9 0 22.5 1t27 6t23 16t9.5 32q0 53 -31.5 89t-86.5 61v-291q0 -56 19 -102.5t51 -85.5t74 -71.5t87 -60.5
v-157h-473q-62 0 -130.5 21t-125.5 66.5t-94 118.5t-37 177v600q63 34 112 64t87 55q-42 24 -69 48t-43.5 49.5t-23 52t-6.5 54.5q0 39 14 73t40.5 60t63.5 41t83 15q48 0 87 -14t67 -40t43.5 -62t15.5 -81t-12.5 -82.5t-38.5 -75.5q55 -17 128 -36t169 -39v204
q0 43 10 80.5t32.5 65t58.5 43.5t89 16h84v-102zM1495 1583q0 15 -6.5 29t-18 24.5t-26.5 16.5t-33 6q-19 0 -34.5 -6t-26.5 -15.5t-17 -21t-6 -23.5t4 -25.5t17 -28.5t36 -31.5t62 -34.5q18 20 28 36t14.5 29.5t5.5 24.5t1 20z" />
    <glyph glyph-name="uni19f0" unicode="&#x19f0;" horiz-adv-x="1300" 
d="M942 287h-117l-315 213l-285 -213h-143v1036l289 233l428 -110v49q0 43 10 80.5t32.5 65t58.5 43.5t89 16h84v-103q-24 0 -47.5 -1.5t-42 -11t-30 -30.5t-11.5 -59v-104l-78 -103l-493 129l-146 -117v-890l285 213l289 -213v604q-56 -25 -87.5 -61t-31.5 -89
q0 -21 9.5 -32t23 -16t27 -6t22.5 -1l-39 -123q-28 0 -55.5 9.5t-50 28t-36.5 47t-14 67.5q0 44 15 84.5t40.5 75t58 62t67.5 47t70 30t65 10.5h59v-860zM942 -1167h-117l-315 213l-285 -213h-143v1036l289 233l428 -110v49q0 43 10 80.5t32.5 65t58.5 43.5t89 16h84v-103
q-24 0 -47.5 -1.5t-42 -11t-30 -30.5t-11.5 -59v-104l-78 -103l-493 129l-146 -117v-890l285 213l289 -213v604q-56 -25 -87.5 -61t-31.5 -89q0 -21 9.5 -32t23 -16t27 -6t22.5 -1l-39 -123q-28 0 -55.5 9.5t-50 28t-36.5 47t-14 67.5q0 44 15 84.5t40.5 75t58 62t67.5 47
t70 30t65 10.5h59v-860z" />
    <glyph glyph-name="uni19f1" unicode="&#x19f1;" horiz-adv-x="1085" 
d="M225 -729q0 -65 18.5 -122t54.5 -100t89.5 -68t124.5 -25q70 0 124 23.5t90 63t54.5 91t18.5 108.5v471q0 57 -21.5 109t-61.5 91.5t-97 63t-127 23.5q-53 0 -101.5 -17t-85.5 -50.5t-58.5 -84.5t-21.5 -118q0 -104 32 -153.5t89 -49.5q103 0 103 154h143
q0 -75 -16.5 -127.5t-47 -85.5t-75 -47.5t-99.5 -14.5q-58 0 -108 20.5t-86.5 62t-57 104.5t-20.5 147t30.5 154t84.5 121t129.5 79.5t165.5 28.5q103 0 186 -32t141.5 -89t90.5 -136t32 -173v-430q0 -93 -31.5 -172t-88.5 -136t-136 -89.5t-174 -32.5q-97 0 -176 32.5
t-135.5 91t-87.5 139t-31 175.5h143zM139 1341q0 94 66 146t184 69l33 -102q-23 -6 -48 -14t-45 -20.5t-33 -31t-13 -45.5q0 -32 25 -50.5t59 -18.5q47 0 83 21t66.5 52t58.5 68t60 68t70 52t88 21h73v-1351h-143v1175q-23 0 -42.5 -17.5t-40 -43t-44 -56t-55.5 -56
t-74.5 -43t-99.5 -17.5q-45 0 -86.5 11.5t-73 35t-50 60t-18.5 87.5z" />
    <glyph glyph-name="uni19f2" unicode="&#x19f2;" horiz-adv-x="1354" 
d="M213 102q0 39 -11.5 59.5t-30 30.5t-42 11.5t-47.5 1.5v102h84q53 0 89 -16t58.5 -43.5t32.5 -65t10 -80.5v-909q0 -114 47.5 -175.5t149.5 -61.5h317q102 0 149.5 62t47.5 175v709l-176 -135l-217 147v-498q56 25 87.5 61t31.5 89q0 21 -9.5 32t-23 16t-27.5 6t-22 1
l39 123q27 0 55 -9.5t50 -28t36 -47t14 -67.5q0 -67 -32.5 -123.5t-80.5 -98t-102.5 -64.5t-99.5 -23h-60v707l74 112l287 -206l244 206l75 -112v-805q0 -93 -28 -159.5t-75.5 -109.5t-109 -63t-127.5 -20h-317q-66 0 -127.5 20t-108.5 63t-75.5 109.5t-28.5 159.5v917z
M301 1341q0 94 66 146t184 69l33 -102q-23 -6 -48 -14t-45.5 -20.5t-33.5 -31t-13 -45.5q0 -32 25 -50.5t59 -18.5q47 0 83 21t67 52t59 68t59.5 68t69.5 52t88 21h74v-1351h-143v1175q-23 0 -42.5 -17.5t-40 -43t-44.5 -56t-56 -56t-74 -43t-100 -17.5q-45 0 -86 11.5
t-72.5 35t-50 60t-18.5 87.5z" />
    <glyph glyph-name="uni19f3" unicode="&#x19f3;" horiz-adv-x="1802" 
d="M1659 -1167h-143v860q0 57 -18.5 108.5t-54.5 91.5t-90 63.5t-124 23.5q-71 0 -124.5 -23.5t-89.5 -63.5t-54.5 -91.5t-18.5 -108.5v-860h-143v860q0 57 -18.5 108.5t-54.5 91.5t-90 63.5t-124 23.5q-71 0 -124.5 -23.5t-89.5 -63.5t-54.5 -91.5t-18.5 -108.5v-727
q56 25 87.5 61t31.5 88q0 21 -9.5 32.5t-23 16.5t-27 6t-22.5 1v122h43q26 0 53 -9.5t49 -28t36 -47t14 -66.5q0 -45 -15 -85t-40.5 -74.5t-58 -62t-67.5 -47t-70 -30t-65 -10.5h-59v831q0 95 31 175.5t87.5 139t135.5 91t176 32.5q119 0 211 -48.5t147 -133.5
q56 85 147 133.5t212 48.5q97 0 176 -32.5t135.5 -91t87.5 -139t31 -175.5v-831zM412 1341q0 94 66 146t184 69l32 -102q-23 -6 -47.5 -14t-45 -20.5t-33.5 -31t-13 -45.5q0 -32 25 -50.5t59 -18.5q47 0 83 21t66.5 52t58.5 68t60 68t70 52t88 21h74v-1351h-144v1175
q-23 0 -42.5 -17.5t-40 -43t-44 -56t-55.5 -56t-74.5 -43t-99.5 -17.5q-45 0 -86.5 11.5t-72.5 35t-49.5 60t-18.5 87.5z" />
    <glyph glyph-name="uni19f4" unicode="&#x19f4;" horiz-adv-x="1217" 
d="M942 -63l-78 -103l-493 129l-146 -117v-630q0 -68 24.5 -117t61.5 -81t79.5 -47t78.5 -15h330q-39 24 -80.5 55t-75 75t-55 104t-21.5 144v400h60q44 0 99 -23.5t103 -64.5t80.5 -97.5t32.5 -123.5q0 -39 -14 -67.5t-36.5 -47t-50 -28t-55.5 -9.5l-38 123q8 0 22 1t27 6
t22.5 16t9.5 32q0 53 -31.5 89t-86.5 61v-291q0 -56 19 -102.5t51 -85.5t74 -71.5t87 -60.5v-157h-473q-62 0 -130.5 21t-125.5 66.5t-94 118.5t-37 177v653l289 233l428 -110v110q0 43 10 80.5t32.5 65t58.5 43.5t89 16h84v-102q-24 0 -47.5 -1.5t-42 -11.5t-30 -30.5
t-11.5 -59.5v-165zM139 1341q0 94 66 146t184 69l33 -102q-23 -6 -48 -14t-45 -20.5t-33 -31t-13 -45.5q0 -32 25 -50.5t59 -18.5q47 0 83 21t66.5 52t58.5 68t60 68t70 52t88 21h73v-1208h-143v1032q-23 0 -42.5 -17.5t-40 -43t-44 -56t-55.5 -56t-74.5 -43t-99.5 -17.5
q-45 0 -86.5 11.5t-73 35t-50 60t-18.5 87.5z" />
    <glyph glyph-name="uni19f5" unicode="&#x19f5;" horiz-adv-x="1217" 
d="M1075 205q-24 0 -47.5 -1.5t-42 -11.5t-30 -30.5t-11.5 -59.5v-247l-72 -95q-157 29 -271 58.5t-195 60.5q-36 -26 -80.5 -54.5t-98.5 -60.5v-548q0 -68 24.5 -117t61.5 -81t79.5 -47t78.5 -15h330q-39 24 -80.5 55t-75 75t-55 104t-21.5 144v400h60q45 0 99.5 -23.5
t102.5 -64.5t80.5 -97.5t32.5 -123.5q0 -39 -14 -67.5t-36.5 -47t-50 -28t-55.5 -9.5l-38 123q8 0 22 1t27 6t22.5 16t9.5 32q0 53 -31.5 89t-86.5 61v-291q0 -56 19 -102.5t51 -85.5t74 -71.5t87 -60.5v-157h-473q-62 0 -130.5 21t-125.5 66.5t-94 118.5t-37 177v600
q63 34 112 64t87 54q-42 24 -69 48.5t-43.5 49.5t-23 51.5t-6.5 55.5q0 39 14 73t40.5 60t63.5 41t83 15q48 0 87 -14t67 -40t43.5 -62t15.5 -81t-12.5 -82.5t-38.5 -75.5q56 -17 128.5 -36t168.5 -39v204q0 43 10 80.5t32.5 65t58.5 43.5t89 16h84v-102zM432 129
q0 15 -6.5 29t-18 24.5t-26.5 16.5t-33 6q-19 0 -34.5 -6t-26.5 -15.5t-17 -21t-6 -23.5t4 -26t17 -29t36.5 -31.5t61.5 -34.5q18 20 28 36.5t14.5 30t5.5 24.5t1 20zM160 1341q0 94 66 146t184 69l32 -102q-23 -6 -47.5 -14t-45 -20.5t-33.5 -31t-13 -45.5q0 -32 25 -50.5
t59 -18.5q47 0 83 21t66.5 52t58.5 68t60 68t70 52t88 21h74v-1146h-144v970q-23 0 -42.5 -17.5t-40 -43t-44 -56t-55.5 -56t-74.5 -43t-99.5 -17.5q-45 0 -86.5 11.5t-72.5 35t-49.5 60t-18.5 87.5z" />
    <glyph glyph-name="uni19f6" unicode="&#x19f6;" horiz-adv-x="1217" 
d="M354 -315h-143v438q0 38 -11.5 59t-30 30.5t-42 11t-47.5 1.5v103h84q53 0 89 -16t58.5 -43.5t32.5 -65t10 -80.5v-119q47 53 123.5 86t163.5 33q95 0 174 -32.5t136 -89.5t88.5 -136t31.5 -172v-430q0 -94 -32 -173t-90.5 -136t-141.5 -89t-186 -32q-90 0 -165.5 28.5
t-129.5 79t-84.5 121t-30.5 154.5t20.5 147t57 104t86.5 61.5t108 20.5q55 0 99.5 -14.5t75 -47t47 -85t16.5 -127.5h-143q0 154 -103 154q-57 0 -89 -50t-32 -153q0 -68 21.5 -118.5t58.5 -84t85.5 -50.5t101.5 -17q70 0 127 23.5t97 63t61.5 91t21.5 108.5v471
q0 57 -18.5 109t-54.5 91.5t-90 63t-124 23.5q-69 0 -122 -24t-89 -65.5t-55.5 -96.5t-20.5 -117v-12zM217 1341q0 94 66 146t184 69l33 -102q-23 -6 -48 -14t-45.5 -20.5t-33.5 -31t-13 -45.5q0 -32 25 -50.5t59 -18.5q47 0 83 21t67 52t59 68t59.5 68t69.5 52t88 21h74
v-1351h-143v1175q-23 0 -42.5 -17.5t-40 -43t-44.5 -56t-56 -56t-74.5 -43t-99.5 -17.5q-45 0 -86 11.5t-72.5 35t-50 60t-18.5 87.5z" />
    <glyph glyph-name="uni19f7" unicode="&#x19f7;" horiz-adv-x="1427" 
d="M225 -92v-942q56 25 87.5 61t31.5 88q0 21 -9.5 32.5t-23 16.5t-27 6t-22.5 1v122h43q26 0 53 -9.5t49 -28t36 -47t14 -66.5q0 -45 -15 -85t-40.5 -74.5t-58 -62t-67.5 -47t-70 -30t-65 -10.5h-59v1104l242 165l180 -168l241 168l197 -184v-983h33q50 0 82 13t51 38
t26 60t7 80v976q0 39 -11.5 59.5t-30 30.5t-42 11.5t-47.5 1.5v102h84q53 0 89 -16t58.5 -43.5t32.5 -65t10 -80.5v-976q0 -78 -17 -134t-54.5 -91t-96 -51.5t-141.5 -16.5h-176v1046l-82 76l-244 -168l-180 168zM186 1341q0 94 66.5 146t183.5 69l33 -102q-23 -6 -47.5 -14
t-45 -20.5t-33.5 -31t-13 -45.5q0 -32 25 -50.5t59 -18.5q47 0 83 21t66.5 52t58.5 68t60 68t70 52t88 21h73v-1351h-143v1175q-23 0 -42.5 -17.5t-40 -43t-44 -56t-55.5 -56t-74.5 -43t-99.5 -17.5q-45 0 -86.5 11.5t-73 35t-50 60t-18.5 87.5z" />
    <glyph glyph-name="uni19f8" unicode="&#x19f8;" horiz-adv-x="1217" 
d="M942 -1167h-117l-315 213l-285 -213h-143v1036l289 233l428 -110v110q0 43 10 80.5t32.5 65t58.5 43.5t89 16h84v-102q-24 0 -47.5 -1.5t-42 -11.5t-30 -30.5t-11.5 -59.5v-165l-78 -103l-493 129l-146 -117v-890l285 213l289 -213v604q-56 -25 -87.5 -61t-31.5 -89
q0 -21 9.5 -32t23 -16t27 -6t22.5 -1l-39 -123q-28 0 -55.5 9.5t-50 28t-36.5 47t-14 67.5q0 44 15 84.5t40.5 75t58 62t67.5 47t70 30t65 10.5h59v-860zM141 1341q0 94 66.5 146t183.5 69l33 -102q-23 -6 -48 -14t-45 -20.5t-33 -31t-13 -45.5q0 -32 25 -50.5t59 -18.5
q47 0 83 21t66.5 52t58.5 68t60 68t70 52t88 21h73v-1144h-143v968q-23 0 -42.5 -17.5t-40 -43t-44 -56t-55.5 -56t-74.5 -43t-99.5 -17.5q-45 0 -86.5 11.5t-73 35t-50 60t-18.5 87.5z" />
    <glyph glyph-name="uni19f9" unicode="&#x19f9;" horiz-adv-x="1157" 
d="M567 -313q85 0 152.5 -17.5t121.5 -45.5t96 -63.5t75 -70.5l-70 -78q-31 32 -68 60t-82.5 48.5t-101 32t-123.5 11.5q-23 0 -57 -6t-72 -21t-76.5 -40.5t-69.5 -64.5t-50 -93t-19 -127q0 -63 17.5 -111t48.5 -80t73 -48.5t91 -16.5q101 0 150.5 52t49.5 138v164
q-32 -6 -54.5 -17.5t-36.5 -26t-20.5 -30.5t-6.5 -31q0 -21 9.5 -32t22.5 -16t27 -6t22 -1v-82h-43q-26 0 -53 6.5t-48.5 22.5t-35.5 42t-14 64q0 60 32.5 103.5t80.5 71.5t102.5 41.5t99.5 13.5h60v-254q0 -92 -16 -157.5t-53 -107.5t-97 -61.5t-148 -19.5
q-104 0 -179.5 30t-125.5 84t-74 128.5t-24 162.5q0 46 11 99.5t36.5 106.5t68 100.5t105.5 82.5q-33 22 -58 43t-42.5 44t-26 50.5t-8.5 63.5q0 85 32.5 142t81.5 91t106 48t106 14q73 0 126 -20t89.5 -46.5t58 -53.5t31.5 -42v119q0 38 -11.5 59t-30 30.5t-42 11
t-47.5 1.5v103h84q53 0 89 -16t58.5 -43.5t32.5 -65t10 -80.5v-336h-143q-18 51 -48 97.5t-69.5 82t-87 56t-100.5 20.5q-26 0 -57.5 -8t-59.5 -27t-47 -50.5t-19 -78.5q0 -43 20 -72t46 -46.5t52.5 -26t39.5 -10.5q20 5 48.5 5.5t51.5 0.5zM135 1341q0 94 66 146t184 69
l33 -102q-23 -6 -48 -14t-45 -20.5t-33 -31t-13 -45.5q0 -32 24.5 -50.5t58.5 -18.5q47 0 83 21t67 52t59 68t59.5 68t69.5 52t88 21h74v-1130h-143v954q-23 0 -42.5 -17.5t-40 -43t-44.5 -56t-56 -56t-74.5 -43t-99.5 -17.5q-45 0 -86 11.5t-72.5 35t-50 60t-18.5 87.5z
" />
    <glyph glyph-name="uni19fa" unicode="&#x19fa;" horiz-adv-x="2601" 
d="M225 -729q0 -65 18.5 -122t54.5 -100t89.5 -68t124.5 -25q70 0 124 23.5t90 63t54.5 91t18.5 108.5v471q0 57 -21.5 109t-61.5 91.5t-97 63t-127 23.5q-53 0 -101.5 -17t-85.5 -50.5t-58.5 -84.5t-21.5 -118q0 -104 32 -153.5t89 -49.5q103 0 103 154h143
q0 -75 -16.5 -127.5t-47 -85.5t-75 -47.5t-99.5 -14.5q-58 0 -108 20.5t-86.5 62t-57 104.5t-20.5 147t30.5 154t84.5 121t129.5 79.5t165.5 28.5q103 0 186 -32t141.5 -89t90.5 -136t32 -173v-430q0 -93 -31.5 -172t-88.5 -136t-136 -89.5t-174 -32.5q-97 0 -176 32.5
t-135.5 91t-87.5 139t-31 175.5h143zM1126 -315q0 95 31 175.5t87.5 139t135.5 91t176 32.5q95 0 174.5 -32t136.5 -89t88.5 -136t31.5 -173v-430q0 -93 -31.5 -172t-88.5 -136t-136.5 -89.5t-174.5 -32.5q-97 0 -176 32.5t-135.5 91t-87.5 139t-31 175.5v414zM1843 -287
q0 57 -18.5 109t-54.5 91.5t-89.5 63t-124.5 23.5t-124.5 -23.5t-89.5 -63t-54 -91.5t-18 -109v-471q0 -57 18 -108.5t54 -91t89.5 -63t124.5 -23.5t124.5 23.5t89.5 63t54.5 91t18.5 108.5v471zM569 1341q0 94 66.5 146t183.5 69l33 -102q-23 -6 -47.5 -14t-45 -20.5
t-33.5 -31t-13 -45.5q0 -32 25 -50.5t59 -18.5q47 0 83 21t66.5 52t58.5 68t60 68t70 52t88 21h73v-1351h-143v1175q-23 0 -42.5 -17.5t-40 -43t-44 -56t-55.5 -56t-74.5 -43t-99.5 -17.5q-45 0 -86.5 11.5t-73 35t-50 60t-18.5 87.5z" />
    <glyph glyph-name="uni19fb" unicode="&#x19fb;" horiz-adv-x="2601" 
d="M225 -729q0 -65 18.5 -122t54.5 -100t89.5 -68t124.5 -25q70 0 124 23.5t90 63t54.5 91t18.5 108.5v471q0 57 -21.5 109t-61.5 91.5t-97 63t-127 23.5q-53 0 -101.5 -17t-85.5 -50.5t-58.5 -84.5t-21.5 -118q0 -104 32 -153.5t89 -49.5q103 0 103 154h143
q0 -75 -16.5 -127.5t-47 -85.5t-75 -47.5t-99.5 -14.5q-58 0 -108 20.5t-86.5 62t-57 104.5t-20.5 147t30.5 154t84.5 121t129.5 79.5t165.5 28.5q103 0 186 -32t141.5 -89t90.5 -136t32 -173v-430q0 -93 -31.5 -172t-88.5 -136t-136 -89.5t-174 -32.5q-97 0 -176 32.5
t-135.5 91t-87.5 139t-31 175.5h143zM1276 -729q0 -65 18.5 -122t54.5 -100t89.5 -68t124.5 -25q70 0 123.5 23.5t89.5 63t54.5 91t18.5 108.5v471q0 57 -21.5 109t-61 91.5t-96.5 63t-128 23.5q-53 0 -101 -17t-85 -50.5t-58.5 -84.5t-21.5 -118q0 -104 32 -153.5t89 -49.5
q102 0 102 154h143q0 -75 -16.5 -127.5t-47 -85.5t-74.5 -47.5t-99 -14.5q-59 0 -108.5 20.5t-86 62t-57 104.5t-20.5 147t30.5 154t84.5 121t129 79.5t165 28.5q103 0 186.5 -32t142 -89t90.5 -136t32 -173v-430q0 -93 -31.5 -172t-88.5 -136t-136 -89.5t-174 -32.5
q-97 0 -176 32.5t-135.5 91t-87.5 139t-31 175.5h143zM569 1341q0 94 66.5 146t183.5 69l33 -102q-23 -6 -47.5 -14t-45 -20.5t-33.5 -31t-13 -45.5q0 -32 25 -50.5t59 -18.5q47 0 83 21t66.5 52t58.5 68t60 68t70 52t88 21h73v-1351h-143v1175q-23 0 -42.5 -17.5t-40 -43
t-44 -56t-55.5 -56t-74.5 -43t-99.5 -17.5q-45 0 -86.5 11.5t-73 35t-50 60t-18.5 87.5z" />
    <glyph glyph-name="uni19fc" unicode="&#x19fc;" horiz-adv-x="2699" 
d="M227 -729q0 -65 18.5 -122t54.5 -100t89.5 -68t124.5 -25q70 0 124 23.5t90 63t54.5 91t18.5 108.5v471q0 57 -21.5 109t-61.5 91.5t-97 63t-127 23.5q-53 0 -101.5 -17t-85.5 -50.5t-58.5 -84.5t-21.5 -118q0 -104 32 -153.5t89 -49.5q103 0 103 154h143
q0 -75 -16.5 -127.5t-47 -85.5t-75 -47.5t-99.5 -14.5q-58 0 -108 20.5t-86.5 62t-57 104.5t-20.5 147t30.5 154t84.5 121t129.5 79.5t165.5 28.5q103 0 186 -32t141.5 -89t90.5 -136t32 -173v-430q0 -93 -31.5 -172t-88.5 -136t-136 -89.5t-174 -32.5q-97 0 -176 32.5
t-135.5 91t-87.5 139t-31 175.5h143zM1116 123q0 38 -11 59t-29.5 30.5t-42 11t-48.5 1.5v103h84q53 0 89.5 -16t59 -43.5t32.5 -65t10 -80.5v-909q0 -115 47 -176.5t149 -61.5h318q102 0 149 61.5t47 176.5v708l-176 -135l-217 147v-497q56 25 87.5 61t31.5 88
q0 21 -9.5 32.5t-23 16.5t-27.5 6t-22 1l39 122q27 0 55 -9.5t50 -28t36 -47t14 -66.5q0 -67 -32.5 -123.5t-80.5 -98t-102.5 -64.5t-99.5 -23h-59v706l73 113l287 -207l244 207l76 -113v-805q0 -93 -28.5 -159.5t-75.5 -109t-108.5 -63t-127.5 -20.5h-318
q-66 0 -127.5 20.5t-108.5 63t-75.5 109t-28.5 159.5v918zM569 1341q0 94 66.5 146t183.5 69l33 -102q-23 -6 -47.5 -14t-45 -20.5t-33.5 -31t-13 -45.5q0 -32 25 -50.5t59 -18.5q47 0 83 21t66.5 52t58.5 68t60 68t70 52t88 21h73v-1079h-143v903q-23 0 -42.5 -17.5
t-40 -43t-44 -56t-55.5 -56t-74.5 -43t-99.5 -17.5q-45 0 -86.5 11.5t-73 35t-50 60t-18.5 87.5z" />
    <glyph glyph-name="uni19fd" unicode="&#x19fd;" horiz-adv-x="2949" 
d="M227 -729q0 -65 18.5 -122t54.5 -100t89.5 -68t124.5 -25q70 0 124 23.5t90 63t54.5 91t18.5 108.5v471q0 57 -21.5 109t-61.5 91.5t-97 63t-127 23.5q-53 0 -101.5 -17t-85.5 -50.5t-58.5 -84.5t-21.5 -118q0 -104 32 -153.5t89 -49.5q103 0 103 154h143
q0 -75 -16.5 -127.5t-47 -85.5t-75 -47.5t-99.5 -14.5q-58 0 -108 20.5t-86.5 62t-57 104.5t-20.5 147t30.5 154t84.5 121t129.5 79.5t165.5 28.5q103 0 186 -32t141.5 -89t90.5 -136t32 -173v-430q0 -93 -31.5 -172t-88.5 -136t-136 -89.5t-174 -32.5q-97 0 -176 32.5
t-135.5 91t-87.5 139t-31 175.5h143zM2726 -1147h-143v860q0 57 -18.5 109t-54.5 91.5t-90 63t-124 23.5q-71 0 -124.5 -23.5t-89.5 -63t-54.5 -91.5t-18.5 -109v-860h-143v860q0 57 -18.5 109t-54.5 91.5t-90 63t-124 23.5q-71 0 -124.5 -23.5t-89.5 -63t-54.5 -91.5
t-18.5 -109v-727q56 25 87.5 61t31.5 89q0 21 -9.5 32t-23 16t-27 6t-22.5 1v123h43q26 0 53 -9.5t49 -28t36 -47t14 -67.5q0 -45 -15 -85t-40.5 -74.5t-58 -62t-67.5 -47t-70 -30t-65 -10.5h-59v832q0 95 31 175.5t87.5 139t135.5 91t176 32.5q119 0 211 -48.5t147 -133.5
q56 85 147 133.5t212 48.5q97 0 176 -32.5t135.5 -91t87.5 -139t31 -175.5v-832zM979 1341q0 94 66 146t184 69l33 -102q-23 -6 -48 -14t-45.5 -20.5t-33.5 -31t-13 -45.5q0 -32 25 -50.5t59 -18.5q47 0 83 21t67 52t59 68t59.5 68t69.5 52t88 21h74v-1351h-143v1175
q-23 0 -42.5 -17.5t-40 -43t-44.5 -56t-56 -56t-74.5 -43t-99.5 -17.5q-45 0 -86.5 11.5t-72.5 35t-49.5 60t-18.5 87.5z" />
    <glyph glyph-name="uni19fe" unicode="&#x19fe;" horiz-adv-x="2601" 
d="M225 -729q0 -65 18.5 -122t54.5 -100t89.5 -68t124.5 -25q70 0 124 23.5t90 63t54.5 91t18.5 108.5v471q0 57 -21.5 109t-61.5 91.5t-97 63t-127 23.5q-53 0 -101.5 -17t-85.5 -50.5t-58.5 -84.5t-21.5 -118q0 -104 32 -153.5t89 -49.5q103 0 103 154h143
q0 -75 -16.5 -127.5t-47 -85.5t-75 -47.5t-99.5 -14.5q-58 0 -108 20.5t-86.5 62t-57 104.5t-20.5 147t30.5 154t84.5 121t129.5 79.5t165.5 28.5q103 0 186 -32t141.5 -89t90.5 -136t32 -173v-430q0 -93 -31.5 -172t-88.5 -136t-136 -89.5t-174 -32.5q-97 0 -176 32.5
t-135.5 91t-87.5 139t-31 175.5h143zM1987 -43l-78 -102l-494 129l-145 -117v-631q0 -68 24.5 -117t61 -80.5t79 -47t78.5 -15.5h330q-39 25 -80 56t-74.5 75t-55 104t-21.5 144v399h59q30 0 65 -10.5t70 -30t67.5 -47t58 -62t40.5 -74.5t15 -85q0 -38 -14 -66.5
t-36.5 -47.5t-50 -28.5t-55.5 -9.5l-39 123q9 0 22.5 1t27 6t23 16.5t9.5 32.5q0 52 -31.5 88t-87.5 61v-291q0 -55 19 -101.5t51.5 -85.5t74.5 -71.5t87 -60.5v-158h-474q-41 0 -86 9t-88 29t-81.5 50t-68 73t-46.5 98t-17 124v653l289 234l428 -111v111q0 43 10 80.5
t32.5 65t59 43.5t89.5 16h84v-103q-25 0 -48.5 -1.5t-42 -11t-29.5 -30.5t-11 -59v-166zM659 1341q0 94 66.5 146t183.5 69l33 -102q-23 -6 -47.5 -14t-45 -20.5t-33.5 -31t-13 -45.5q0 -32 25 -50.5t59 -18.5q47 0 83 21t66.5 52t58.5 68t60 68t70 52t88 21h73v-1237h-143
v1061q-23 0 -42.5 -17.5t-40 -43t-44 -56t-55.5 -56t-74.5 -43t-99.5 -17.5q-45 0 -86.5 11.5t-73 35t-50 60t-18.5 87.5z" />
    <glyph glyph-name="uni19ff" unicode="&#x19ff;" horiz-adv-x="2601" 
d="M227 -729q0 -65 18.5 -122t54.5 -100t89.5 -68t124.5 -25q70 0 124 23.5t90 63t54.5 91t18.5 108.5v471q0 57 -21.5 109t-61.5 91.5t-97 63t-127 23.5q-53 0 -101.5 -17t-85.5 -50.5t-58.5 -84.5t-21.5 -118q0 -104 32 -153.5t89 -49.5q103 0 103 154h143
q0 -75 -16.5 -127.5t-47 -85.5t-75 -47.5t-99.5 -14.5q-58 0 -108 20.5t-86.5 62t-57 104.5t-20.5 147t30.5 154t84.5 121t129.5 79.5t165.5 28.5q103 0 186 -32t141.5 -89t90.5 -136t32 -173v-430q0 -93 -31.5 -172t-88.5 -136t-136 -89.5t-174 -32.5q-97 0 -176 32.5
t-135.5 91t-87.5 139t-31 175.5h143zM2140 225q-24 0 -47.5 -1.5t-42 -11t-30 -30.5t-11.5 -59v-248l-72 -94q-157 29 -271 58.5t-196 60.5q-35 -26 -79.5 -54.5t-98.5 -60.5v-549q0 -68 24.5 -117t61.5 -80.5t79.5 -47t78.5 -15.5h330q-39 25 -80.5 56t-75 75t-55 104
t-21.5 144v399h60q44 0 99 -23.5t103 -64.5t80.5 -97.5t32.5 -123.5q0 -38 -14 -66.5t-36.5 -47.5t-50 -28.5t-55.5 -9.5l-38 123q8 0 22 1t27 6t22.5 16.5t9.5 32.5q0 52 -31.5 88t-86.5 61v-291q0 -55 19 -101.5t51 -85.5t74 -71.5t87 -60.5v-158h-473q-62 0 -130.5 21
t-125.5 67t-94 118.5t-37 176.5v600q63 34 112 64t87 55q-42 24 -69 48t-43.5 49.5t-23 52t-6.5 55.5q0 38 14 72.5t40.5 60t63.5 40.5t83 15q48 0 87 -14t67 -39.5t43.5 -62t15.5 -80.5q0 -45 -12.5 -83t-38.5 -75q55 -17 128 -36.5t169 -39.5v205q0 43 10 80.5t32.5 65
t58.5 43.5t89 16h84v-103zM1497 150q0 30 -24.5 52.5t-59.5 22.5q-19 0 -34.5 -6t-26.5 -15.5t-17 -21t-6 -22.5q0 -12 4 -26t17 -29t36.5 -31.5t61.5 -34.5q18 20 28 36t14.5 29.5t5.5 25t1 20.5zM659 1341q0 94 66.5 146t183.5 69l33 -102q-23 -6 -47.5 -14t-45 -20.5
t-33.5 -31t-13 -45.5q0 -32 25 -50.5t59 -18.5q47 0 83 21t66.5 52t58.5 68t60 68t70 52t88 21h73v-1079h-143v903q-23 0 -42.5 -17.5t-40 -43t-44 -56t-55.5 -56t-74.5 -43t-99.5 -17.5q-45 0 -86.5 11.5t-73 35t-50 60t-18.5 87.5z" />
    <glyph glyph-name="uni200B" unicode="&#x200b;" 
 />
    <glyph glyph-name="ZWNJ" unicode="&#x200c;" 
 />
    <glyph glyph-name="ZWJ" unicode="&#x200d;" 
 />
    <glyph glyph-name="endash" unicode="&#x2013;" horiz-adv-x="1384" 
d="M1290 645v-145h-1163v145h1163z" />
    <glyph glyph-name="emdash" unicode="&#x2014;" horiz-adv-x="1634" 
d="M1536 645v-145h-1407v145h1407z" />
    <glyph glyph-name="quoteleft" unicode="&#x2018;" horiz-adv-x="410" 
d="M123 893v258q0 103 55.5 170.5t151.5 89.5v-113q-29 -8 -46.5 -21.5t-28 -32t-14 -42t-3.5 -51.5v-29h92v-229h-207z" />
    <glyph glyph-name="quoteright" unicode="&#x2019;" horiz-adv-x="410" 
d="M330 1409v-258q0 -103 -55.5 -171.5t-151.5 -88.5v110q28 10 46 24t28.5 32.5t14 41.5t3.5 52v27h-92v231h207z" />
    <glyph glyph-name="quotedblleft" unicode="&#x201c;" horiz-adv-x="725" 
d="M434 934v256q0 105 55.5 172.5t151.5 89.5v-113q-29 -9 -47 -22.5t-28 -32t-13.5 -42t-3.5 -52.5v-27h92v-229h-207zM125 934v256q0 105 55.5 172.5t151.5 89.5v-113q-29 -9 -47 -22.5t-28 -32t-13.5 -42t-3.5 -52.5v-27h92v-229h-207z" />
    <glyph glyph-name="quotedblright" unicode="&#x201d;" horiz-adv-x="725" 
d="M332 1409v-258q0 -51 -15 -94.5t-42 -77t-65 -56t-85 -32.5v110q28 10 46 24t28.5 32.5t14 41.5t3.5 52v27h-92v231h207zM641 1409v-258q0 -51 -15 -94.5t-42 -77t-65 -56t-85 -32.5v110q28 10 46 24t27.5 32.5t13 41.5t3.5 52v27h-90v231h207z" />
    <glyph glyph-name="bullet" unicode="&#x2022;" horiz-adv-x="666" 
d="M356 379q-46 0 -86.5 18t-71 48.5t-48 71t-17.5 85.5q0 46 17.5 87t48 71.5t71 48.5t86.5 18t87 -18t71.5 -48.5t48 -71.5t17.5 -87q0 -45 -17.5 -85.5t-48 -71t-71.5 -48.5t-87 -18z" />
    <glyph glyph-name="uni2219" unicode="&#x2219;" horiz-adv-x="410" 
d="M330 713v-232h-207v232h207z" />
    <glyph glyph-name="uni25CC" unicode="&#x25cc;" horiz-adv-x="1194" 
d="M621 963q0 -52 -50 -52q-24 0 -37.5 13.5t-13.5 38.5q0 24 13.5 36.5t37.5 12.5q50 0 50 -49zM664 926q0 51 51 51q49 0 49 -51q0 -49 -49 -49q-51 0 -51 49zM772 827q0 52 49 52q51 0 51 -54q0 -47 -51 -47q-49 0 -49 49zM821 680q0 49 49 49q52 0 52 -49q0 -51 -54 -51
q-47 0 -47 51zM838 506q0 49 47 49q51 0 51 -49t-51 -49q-47 0 -47 49zM621 51q0 -51 -50 -51q-24 0 -37.5 12.5t-13.5 38.5q0 25 13.5 37t37.5 12q50 0 50 -49zM821 332q0 51 49 51q52 0 52 -51q0 -49 -52 -49q-49 0 -49 49zM664 88q0 47 51 47q49 0 49 -51q0 -47 -49 -47
q-51 0 -51 51zM772 182q0 51 49 51q51 0 51 -51q0 -49 -51 -49q-49 0 -49 49zM477 926q0 -49 -51 -49q-49 0 -49 49q0 51 49 51q51 0 51 -51zM371 827q0 -49 -52 -49q-49 0 -49 47q0 54 49 54q52 0 52 -52zM322 680q0 -51 -50 -51q-51 0 -51 51q0 49 49 49q52 0 52 -49z
M305 506q0 -49 -49 -49q-51 0 -51 49t51 49q49 0 49 -49zM322 332q0 -49 -52 -49q-49 0 -49 49q0 51 49 51q52 0 52 -51zM477 88q0 -51 -51 -51q-49 0 -49 47q0 51 49 51q51 0 51 -47zM371 182q0 -49 -52 -49q-49 0 -49 49q0 51 49 51q52 0 52 -51z" />
    <glyph glyph-name="km_vs_aa" horiz-adv-x="924" 
d="M0 1171l291 181l428 -258v-1094h-144v1024l-315 197l-260 -156v106z" />
    <glyph glyph-name="km_vs_i" 
d="M-1038 1556q0 72 26.5 122.5t69 82.5t96 47t107.5 15q57 0 114.5 -15t113 -38.5t106.5 -53t94.5 -59t77.5 -56.5t55 -45l-45 -122h-815v122zM-739 1700q-81 0 -118.5 -38.5t-37.5 -105.5h526q-27 22 -66.5 47.5t-87 47t-102.5 35.5t-114 14z" />
    <glyph glyph-name="km_vs_ii" 
d="M-1036 1556q0 72 26.5 122.5t69 82.5t96 47t107.5 15q58 0 117.5 -15.5t116 -40.5t108.5 -55.5t96 -60.5v239h123v-456h-860v122zM-737 1700q-81 0 -118.5 -38.5t-37.5 -105.5h526q-27 22 -66.5 47.5t-87 47t-102.5 35.5t-114 14z" />
    <glyph glyph-name="km_vs_y" 
d="M-1036 1556q0 72 26.5 122.5t69 82.5t96 47t107.5 15q17 0 39.5 -0.5t46.5 -3t48 -8t44 -15.5v21q0 71 46 102t122 31q34 0 70 -11t65 -32.5t47.5 -54.5t18.5 -76q0 -23 -7.5 -45.5t-20 -40.5t-30.5 -30t-39 -15q14 -9 30 -21.5t31.5 -25.5t28.5 -24.5t21 -17.5l-45 -122
h-815v122zM-737 1700q-81 0 -118.5 -38.5t-37.5 -105.5h526q-27 22 -66.5 47.5t-87 47t-102.5 35.5t-114 14zM-498 1798q0 -12 1.5 -19t4.5 -12l146 -81q21 0 35 6.5t22.5 17.5t12.5 24.5t4 28.5q0 22 -13 41t-32.5 33t-44 22.5t-46.5 8.5q-16 0 -32 -3t-29 -11t-21 -21.5
t-8 -34.5z" />
    <glyph glyph-name="km_vs_yy" 
d="M-1036 1556q0 72 26.5 122.5t69 82.5t96 47t107.5 15q63 0 127.5 -19t126.5 -47v133h123v-198q29 -22 61 -41v239h123v-456h-860v122zM-737 1700q-81 0 -118.5 -38.5t-37.5 -105.5h526q-27 22 -66.5 47.5t-87 47t-102.5 35.5t-114 14z" />
    <glyph glyph-name="km_vs_u" 
d="M-348 -737v491h143v-491h-143z" />
    <glyph glyph-name="km_vs_uu" 
d="M-573 -246q0 -66 2 -132t13.5 -118.5t36 -85t70.5 -32.5t71 32.5t36.5 85t13.5 118.5t2 132h123q0 -46 -1 -100.5t-8 -109t-22 -105t-42 -90t-69.5 -63t-103.5 -23.5t-103 23.5t-69.5 63t-42 90t-21.5 105t-8 109t-1 100.5h123z" />
    <glyph glyph-name="km_vs_ua" 
d="M-614 -246v-332l143 121l143 -121v332h123v-491h-123l-143 135l-143 -135h-123v491h123z" />
    <glyph glyph-name="km_vs_e" horiz-adv-x="827" 
d="M453 133q55 25 86.5 61t31.5 89q0 21 -9.5 32t-23 16t-27 6t-22.5 1v123h43q26 0 53 -9.5t49 -28t36 -47t14 -67.5q0 -67 -32.5 -123.5t-80.5 -98t-103 -64.5t-99 -23h-60v819l-227 213v80l313 219l166 -155l70 49v-84l-127 -86l-137 129l-150 -105l236 -219v-727z" />
    <glyph glyph-name="km_vs_ae" horiz-adv-x="827" 
d="M324 1556q-54 0 -54 -34q0 -12 7.5 -21t19 -15t26 -8.5t29.5 -2.5q42 0 73.5 13t52.5 34.5t31.5 49t10.5 56.5q0 55 -36.5 73.5t-106.5 18.5l18 103q73 0 124 -13.5t83.5 -38.5t47 -60.5t14.5 -80.5q0 -46 -19 -92t-56 -83t-91.5 -60t-124.5 -23q-35 0 -75 5.5t-73.5 22
t-55.5 45.5t-22 77q0 51 42 83.5t114 32.5h35zM453 133q55 25 86.5 61t31.5 89q0 21 -9.5 32t-23 16t-27 6t-22.5 1v123h43q26 0 53 -9.5t49 -28t36 -47t14 -67.5q0 -67 -32.5 -123.5t-80.5 -98t-103 -64.5t-99 -23h-60v819l-227 213v80l313 219l166 -155l70 49v-84
l-127 -86l-137 129l-150 -105l236 -219v-727z" />
    <glyph glyph-name="km_vs_ai" horiz-adv-x="868" 
d="M494 133q55 25 86.5 61t31.5 89q0 21 -9.5 32t-23 16t-27 6t-22.5 1v123h43q26 0 53 -9.5t49 -28t36 -47t14 -67.5q0 -67 -32.5 -123.5t-80.5 -98t-103 -64.5t-99 -23h-60v819l-227 213v80l313 219l166 -155l70 49v-84l-127 -86l-137 129l-150 -105l236 -219v-727z
M215 1556q24 31 55.5 68t70 68t83.5 52t96 21q42 0 79 -14t65 -39t44.5 -59.5t16.5 -75.5q0 -62 -29 -109t-94 -94l-55 80q29 20 47 39.5t18 50.5q0 15 -7.5 29t-20 25t-29.5 17.5t-35 6.5q-43 0 -84 -28.5t-78 -68t-68 -81.5t-54 -70l-324 383l88 66z" />
    <glyph glyph-name="km_nikahit" 
d="M-864 1671q0 48 19 91t51 74.5t75.5 50t91.5 18.5t91 -18.5t75.5 -50t51 -74.5t18.5 -91t-18.5 -90.5t-51 -74t-75.5 -50t-91 -18.5t-91.5 18.5t-75.5 50t-51 74t-19 90.5zM-729 1677q0 -21 8 -38.5t22 -31t32.5 -21t39.5 -7.5t39.5 7.5t32 21t21.5 31t8 38.5t-8 39.5
t-21.5 32t-32 21.5t-39.5 8t-39.5 -8t-32.5 -21.5t-22 -32t-8 -39.5z" />
    <glyph glyph-name="km_reahmuk" horiz-adv-x="760" 
d="M123 1098q0 48 19 90.5t51 74t75.5 50t91.5 18.5t91 -18.5t75.5 -50t51 -74t18.5 -90.5t-18.5 -91t-51 -74.5t-75.5 -50t-91 -18.5t-91.5 18.5t-75.5 50t-51 74.5t-19 91zM258 1104q0 -21 8 -38.5t22 -31t32.5 -21t39.5 -7.5t39.5 7.5t32 21t21.5 31t8 38.5t-8 39
t-21.5 31.5t-32 21.5t-39.5 8t-39.5 -8t-32.5 -21.5t-22 -31.5t-8 -39zM123 336q0 48 19 90.5t51 74t75.5 50t91.5 18.5t91 -18.5t75.5 -50t51 -74t18.5 -90.5t-18.5 -91t-51 -74.5t-75.5 -50t-91 -18.5t-91.5 18.5t-75.5 50t-51 74.5t-19 91zM258 342q0 -21 8 -38.5t22 -31
t32.5 -21t39.5 -7.5t39.5 7.5t32 21t21.5 31t8 38.5t-8 39t-21.5 31.5t-32 21.5t-39.5 8t-39.5 -8t-32.5 -21.5t-22 -31.5t-8 -39z" />
    <glyph glyph-name="km_yukaleakpintu" horiz-adv-x="614" 
d="M123 1143q0 34 13 65t35.5 53.5t52 36t63.5 13.5t63.5 -13.5t52 -36t35.5 -53.5t13 -65q0 -35 -13 -65t-35.5 -52.5t-52 -35.5t-63.5 -13t-63.5 13t-52 35.5t-35.5 52.5t-13 65zM123 268q0 34 13 65t35.5 53.5t52 36t63.5 13.5t63.5 -13.5t52 -36t35.5 -53.5t13 -65
q0 -35 -13 -65t-35.5 -52.5t-52 -35.5t-63.5 -13t-63.5 13t-52 35.5t-35.5 52.5t-13 65z" />
    <glyph glyph-name="km_muusekatoan" 
d="M-719 1823v-389h-143v389h143zM-391 1823v-389h-144v389h144z" />
    <glyph glyph-name="km_treisap" 
d="M-831 1675l-177 -119l43 -43l-75 -65l-80 76v80l319 219l180 -168l242 168l166 -156l70 49v-84l-127 -86l-138 129l-243 -168z" />
    <glyph glyph-name="km_bantoc" 
d="M-555 1823v-389h-143v389h143z" />
    <glyph glyph-name="km_robat" 
d="M-840 1581q23 0 38 5t30.5 11.5t36 11.5t55.5 5q59 0 87 -36.5t28 -96.5v-23h-123q0 24 -2 38.5t-7 22.5t-12.5 10.5t-19.5 2.5t-25 -5t-29 -10.5t-35 -10.5t-42 -5q-37 0 -63.5 22t-26.5 79q0 38 21.5 77.5t57.5 71.5t83.5 52t99.5 20q36 0 66 -10.5t55 -26t46.5 -33.5
t40 -33.5t36 -26t34.5 -10.5q23 0 41 10t31 22q15 14 27 32v-123q-12 -18 -27 -32q-13 -12 -31 -21.5t-41 -9.5q-24 0 -45.5 11.5t-42 28.5t-41.5 36.5t-43.5 36.5t-48.5 28.5t-57 11.5q-36 0 -64.5 -11.5t-48 -30.5t-29.5 -42.5t-10 -48.5z" />
    <glyph glyph-name="km_toandakhiat" 
d="M-262 1880l88 -65l-324 -383q-15 18 -34 43.5t-41 53t-47 54.5t-51.5 48.5t-54.5 34.5t-56 13q-18 0 -35 -6.5t-29.5 -17.5t-20 -25t-7.5 -28q0 -31 18 -51t47 -40l-55 -79q-65 46 -94 93t-29 109q0 41 16.5 75.5t44.5 60t65 39.5t79 14q51 0 96 -21t83.5 -52t70 -68
t55.5 -68z" />
    <glyph glyph-name="km_kakabat" 
d="M-432 1577h-143v-143h-103v143h-143v102h143v144h103v-144h143v-102z" />
    </font>
</defs>
</svg>
